<svg xmlns="http://www.w3.org/2000/svg">
<defs>
<font id="Viktorie">
<font-face  font-family="Viktorie" units-per-em="1000" ascent="650" descent="-350" font-style="normal" font-weight="400" font-stretch="normal" cap-height="700" x-height="400" underline-position="-123" underline-thickness="20" />

<glyph glyph-name="NULL" d="" />
<glyph glyph-name="nonmarkingreturn" unicode="&#xd;" horiz-adv-x="312" d="" />
<glyph glyph-name="space" unicode="&#x20;" horiz-adv-x="312" d="" />
<glyph glyph-name="Scaron" unicode="&#x160;" horiz-adv-x="337" d="M147 -132 Q147 -114 144 -97 Q142 -86 140.5 -74 Q139 -62 137 -52.5 Q135 -43 132.5 -37.5 Q130 -32 127 -32 Q125 -32 119 -37.5 Q113 -43 105 -51 L71 -88 Q50 -108 32 -132.5 Q14 -157 14 -177 Q14 -183 18 -191 Q22 -199 25 -206 Q28 -213 32 -218 Q40 -230 50 -231 Q55 -232 59.5 -232 Q64 -232 68 -232 Q81 -232 88.5 -229.5 Q96 -227 102 -223 Q107 -218 111.5 -212 Q116 -206 121 -201 L128 -193 Q139 -182 143 -166 Q147 -150 147 -132 Z M394 226 Q393 218 383.5 205.5 Q374 193 351 172 L239 72 Q210 47 190 29 Q170 11 167 8 Q167 7 166.5 6.5 Q166 6 166 4 Q166 3 166.5 1.5 Q167 0 167 -2 L173 -22 Q177 -34 181.5 -51 Q186 -68 188 -89 Q191 -112 191 -131 Q191 -157 184 -180 Q177 -203 157 -226 Q143 -243 116.5 -253.5 Q90 -264 63 -264 Q45 -264 28.5 -258 Q12 -252 1 -237 Q-15 -216 -21.5 -202 Q-28 -188 -28 -177 Q-28 -167 -24 -160 Q-20 -153 -13 -145 Q0 -129 30 -93.5 Q60 -58 114 -6 Q118 -3 118 4 Q118 8 116.5 13.5 Q115 19 113 28 Q108 45 98 75.5 Q88 106 74 159 Q61 205 53 241 Q45 277 40.5 304 Q36 331 34.5 351.5 Q33 372 33 388 Q33 396 33.5 403 Q34 410 34 417 Q35 434 39.5 456.5 Q44 479 50 500.5 Q56 522 63 540.5 Q70 559 76 568 Q90 591 103 614 Q116 637 133 658 Q150 679 173.5 696.5 Q197 714 229 724 Q232 725 238 725 Q245 725 253.5 721.5 Q262 718 269.5 712.5 Q277 707 282 699.5 Q287 692 287 683 Q286 678 277 646 Q268 614 257 572.5 Q246 531 235 490 Q224 449 220 426 Q211 380 205 357.5 Q199 335 194 327 Q193 326 191.5 323.5 Q190 321 188 321 Q187 321 187 327 Q187 335 190 359 Q190 365 193 379 Q196 393 200.5 413 Q205 433 210.5 457 Q216 481 222 505 Q227 529 232.5 552 Q238 575 242 594 Q247 614 249.5 626.5 Q252 639 252 643 L252 655 Q252 685 239 685 Q230 685 218 677 Q205 669 188.5 654.5 Q172 640 154 614.5 Q136 589 118.5 551.5 Q101 514 86 459 Q81 439 78.5 418.5 Q76 398 76 378 Q76 327 87 275 Q97 230 109.5 191.5 Q122 153 131 127 Q140 100 144.5 83 Q149 66 151 55 L155 41 Q156 38 158 36 Q161 36 197 68 Q215 85 243 110 Q271 135 310 169 Q324 182 335 193 Q346 204 355 213 Q363 221 368.5 226.5 Q374 232 379 234 L384 234 Q394 234 394 226 Z M345 987 Q345 979 343.5 972 Q342 965 340 962 Q337 959 335 959 Q333 959 332 962 Q331 965 330 967 Q328 973 322 973 Q311 968 299 944 Q287 920 276 881 L255 809 Q250 794 246 784 Q242 774 238 772 Q236 771 233 771 Q228 771 224 774 Q220 777 218 779 Q211 790 202.5 815 Q194 840 186 863 Q182 875 179 884.5 Q176 894 172.5 905.5 Q169 917 164 931.5 Q159 946 151 967 Q148 975 145.5 983 Q143 991 143 1000 Q143 1004 146.5 1013.5 Q150 1023 152 1023 Q154 1024 158 1024 Q165 1024 171.5 1020 Q178 1016 180 1011 Q188 994 192.5 979 Q197 964 201 949 Q208 921 213 892.5 Q218 864 226 836 Q226 829 231 829 Q232 829 234 838 Q239 858 244 880 Q249 902 257 931 Q260 940 266 955.5 Q272 971 280.5 986 Q289 1001 300 1012 Q311 1023 324 1023 Q335 1023 340 1010.5 Q345 998 345 987 Z " />
<glyph glyph-name="scaron" unicode="&#x161;" horiz-adv-x="219" d="M104 48 Q102 46 99 40.5 Q96 35 93 30 Q84 16 76.5 3 Q69 -10 61 -25 L46 -56 Q43 -62 40 -69.5 Q37 -77 37 -87 Q38 -91 40 -93 Q42 -95 48 -95 Q57 -94 69.5 -81 Q82 -68 92 -42 Q100 -21 103 -6.5 Q106 8 107 18 L107 22 Q107 27 106.5 38 Q106 49 104 48 Z M187 191 Q187 189 185.5 186 Q184 183 182 181 Q179 176 176 172 Q173 168 171 163 Q168 157 163 148.5 Q158 140 153 132 Q150 127 145.5 119 Q141 111 141 105 Q141 100 143 89.5 Q145 79 146 62 L146 48 Q146 34 145 17 Q144 0 141 -18 Q133 -65 112 -94.5 Q91 -124 62 -128 L50 -128 Q30 -128 16 -119 Q2 -110 2 -93 Q2 -85 5 -76 Q14 -51 27 -29 L46 5 Q55 20 63 33.5 Q71 47 77 58 Q91 81 93 89 Q94 91 94 96 Q94 110 88 118 L54 176 Q43 195 33 214 Q23 233 19 247 Q15 260 15 274 Q15 292 25.5 305 Q36 318 63 330 Q74 334 89.5 340 Q105 346 116 346 Q118 346 119 345.5 Q120 345 122 345 Q124 345 130 344 Q136 343 142.5 341.5 Q149 340 154.5 336.5 Q160 333 163 329 Q170 320 170 314 Q170 307 164 306 Q163 305 159 305 Q155 305 150.5 306.5 Q146 308 142 309 Q140 309 138 309.5 Q136 310 131 310 Q122 310 112.5 307.5 Q103 305 88 296 Q81 291 74 287 L63 280 Q60 277 58 274.5 Q56 272 56 267 Q58 246 84 209 Q98 190 111 171 Q124 152 128 141 L129 141 Q130 141 131 142 L134 146 Q141 156 147.5 165.5 Q154 175 162 184 Q165 188 168.5 192 Q172 196 175 198 Q177 200 180 200 Q183 200 186 195 Q186 194 186.5 193.5 Q187 193 187 191 Z M224 639 Q224 631 222.5 624 Q221 617 219 614 Q216 611 214 611 Q212 611 211 614 Q210 617 209 619 Q207 625 201 625 Q190 620 178 596 Q166 572 155 533 L134 461 Q129 446 125 436 Q121 426 117 424 Q115 423 112 423 Q107 423 103 426 Q99 429 97 431 Q90 442 81.5 467 Q73 492 65 515 Q61 527 58 536.5 Q55 546 51.5 557.5 Q48 569 43 583.5 Q38 598 30 619 Q27 627 24.5 635 Q22 643 22 652 Q22 656 25.5 665.5 Q29 675 31 675 Q33 676 37 676 Q44 676 50.5 672 Q57 668 59 663 Q67 646 71.5 631 Q76 616 80 601 Q87 573 92 544.5 Q97 516 105 488 Q105 481 110 481 Q111 481 113 490 Q118 510 123 532 Q128 554 136 583 Q139 592 145 607.5 Q151 623 159.5 638 Q168 653 179 664 Q190 675 203 675 Q214 675 219 662.5 Q224 650 224 639 Z " />
<glyph glyph-name="Yacute" unicode="&#xdd;" horiz-adv-x="298" d="M267 529 Q267 523 265 512.5 Q263 502 260 490 Q256 477 253 464.5 Q250 452 249 443 Q247 434 243.5 407.5 Q240 381 236.5 349.5 Q233 318 229 287.5 Q225 257 224 241 Q219 185 211 142.5 Q203 100 196 52 Q193 28 191.5 10.5 Q190 -7 189 -23 Q188 -39 187.5 -55.5 Q187 -72 186 -93 Q185 -115 184 -130.5 Q183 -146 183 -158 Q182 -163 182 -172 Q182 -185 185 -198 Q187 -208 191 -219 Q195 -230 197 -241 Q198 -246 198.5 -250 Q199 -254 199 -258 Q199 -270 191 -273 Q189 -274 186 -274 Q177 -274 170 -261 Q166 -253 163.5 -244 Q161 -235 158 -227 L152 -209 Q150 -202 148 -186 Q146 -178 146 -168 Q146 -158 146 -144 Q146 -133 146 -121 Q146 -109 147 -94 Q148 -59 149.5 -35.5 Q151 -12 152.5 7 Q154 26 156 43 Q158 60 161 83 L197 362 Q199 370 199 375 Q199 380 199 382 L173 337 Q167 327 157 310 Q147 293 134.5 276.5 Q122 260 109 248 Q96 236 86 236 Q83 236 82 237 Q72 240 65.5 245 Q59 250 54.5 259.5 Q50 269 46.5 284.5 Q43 300 40 324 Q34 372 28 424.5 Q22 477 18 537 Q17 551 16.5 562.5 Q16 574 16 585 Q16 596 16.5 605 Q17 614 18 622 Q20 636 21.5 644 Q23 652 25 657 Q32 687 46 687 Q48 687 54 683 Q57 680 62 678 Q67 676 69 672 Q71 668 71 658 Q71 655 71 651.5 Q71 648 70 644 Q69 633 68 616.5 Q67 600 67 577 Q67 557 68 531.5 Q69 506 71 476 Q74 444 76 413 Q78 382 80 356 Q82 330 83.5 312.5 Q85 295 87 291 Q87 289 89 289 Q92 289 96 293 Q101 298 106 305.5 Q111 313 116 323 Q121 333 131 350.5 Q141 368 152 388.5 Q163 409 173.5 430.5 Q184 452 191 469 Q209 514 217 530 Q226 549 234 550 Q236 551 240 551 Q249 551 257.5 545.5 Q266 540 267 529 Z M387 984 Q387 975 383 966 Q379 957 377 953 Q374 948 363 939.5 Q352 931 345 926 Q339 921 322 906 Q305 891 262 865 Q241 852 228.5 846.5 Q216 841 208 838.5 Q200 836 194.5 834 Q189 832 180 827 Q163 816 154 811.5 Q145 807 137 798 Q132 793 128 793 Q123 793 120.5 801 Q118 809 118 811 Q118 822 134.5 836 Q151 850 191 872 Q211 882 224.5 890 Q238 898 247.5 904 Q257 910 264.5 915 Q272 920 280 925 Q300 939 312.5 949 Q325 959 330 968 Q335 976 342.5 987 Q350 998 368 998 L373 998 Q387 997 387 984 Z " />
<glyph glyph-name="yacute" unicode="&#xfd;" horiz-adv-x="301" d="M264 -64 Q264 -95 262 -133.5 Q260 -172 253 -214 Q248 -244 239.5 -279 Q231 -314 222 -346 Q213 -378 206 -403.5 Q199 -429 197 -440 Q196 -447 195.5 -452 Q195 -457 195 -461 Q195 -470 197.5 -474 Q200 -478 203 -480 Q214 -487 214 -496 Q214 -501 208 -504 Q202 -507 195 -507 Q180 -507 170 -498 Q158 -486 158 -457 Q158 -438 164 -409 Q168 -390 174.5 -365.5 Q181 -341 188 -315 Q195 -289 201.5 -263 Q208 -237 211 -213 Q216 -172 219.5 -131.5 Q223 -91 223 -56 Q223 -50 223 -44.5 Q223 -39 222 -34 L222 -18 Q222 -6 222.5 3 Q223 12 224 19 Q224 24 224.5 27 Q225 30 225 33 Q225 36 223 38 Q222 39 222 40 Q220 40 219 37 L213 28 Q210 25 199.5 14 Q189 3 174.5 -10 Q160 -23 143 -34 Q126 -45 109 -48 Q95 -51 86 -51 Q65 -51 56 -41 Q47 -31 43 -17 Q41 -10 38.5 3.5 Q36 17 33.5 33.5 Q31 50 29.5 69 Q28 88 28 106 L28 122 Q29 141 31 159 Q33 177 35 192 Q37 207 39 217 Q41 227 42 230 Q45 240 50.5 243.5 Q56 247 61 247 Q65 247 69 245 Q77 243 81 236.5 Q85 230 89 219 Q92 211 92 206 Q92 193 84 190 Q79 188 76.5 184.5 Q74 181 72 168 Q71 160 71 147.5 Q71 135 71 121 Q71 109 71 96 Q71 83 72 71 Q74 57 75 43 Q76 29 78 18 Q81 -6 92 -6 Q99 -6 109 -2 Q119 2 128.5 7 Q138 12 146.5 18 Q155 24 158 28 Q162 33 169 43.5 Q176 54 185 66 Q193 78 201 89 Q209 100 214 106 Q228 120 235 120 Q241 120 247 111 Q252 106 254 93.5 Q256 81 258 66 Q260 50 260.5 34 Q261 18 262 5 Q263 -6 263.5 -23.5 Q264 -41 264 -64 Z M366 613 Q366 604 362 595 Q358 586 356 582 Q353 577 342 568.5 Q331 560 324 555 Q318 550 301 535 Q284 520 241 494 Q220 481 207.5 475.5 Q195 470 187 467.5 Q179 465 173.5 463 Q168 461 159 456 Q142 445 133 440.5 Q124 436 116 427 Q111 422 107 422 Q102 422 99.5 430 Q97 438 97 440 Q97 451 113.5 465 Q130 479 170 501 Q190 511 203.5 519 Q217 527 226.5 533 Q236 539 243.5 544 Q251 549 259 554 Q279 568 291.5 578 Q304 588 309 597 Q314 605 321.5 616 Q329 627 347 627 L352 627 Q366 626 366 613 Z " />
<glyph glyph-name="Thorn" unicode="&#xde;" horiz-adv-x="312" d="M226 495 Q226 513 218.5 523.5 Q211 534 199 534 Q196 534 190 532 Q181 529 168.5 518 Q156 507 143.5 493.5 Q131 480 120.5 466 Q110 452 104 443 Q93 426 90.5 414 Q88 402 82 388 Q76 373 74.5 356.5 Q73 340 71 318 Q70 304 69.5 285 Q69 266 69 247 Q69 227 69.5 211 Q70 195 70 188 L70 181 Q70 173 70.5 164.5 Q71 156 75 156 Q76 156 83.5 168.5 Q91 181 102 201 Q113 221 126.5 247 Q140 273 154 300 Q183 355 201 404.5 Q219 454 224 476 Q225 481 225.5 485.5 Q226 490 226 495 Z M267 497 Q267 474 258.5 440.5 Q250 407 225 356 Q202 309 180.5 268 Q159 227 142 195.5 Q125 164 112 144 Q99 124 93 120 Q83 112 80.5 105.5 Q78 99 78 93 Q78 91 78.5 90 Q79 89 79 87 Q79 82 80.5 75.5 Q82 69 82 41 L82 34 Q82 6 87 -22.5 Q92 -51 92 -69 Q92 -86 86 -90 Q81 -94 74 -94 Q66 -94 61 -84 Q56 -74 51 -57 Q48 -47 44.5 -28 Q41 -9 37.5 14.5 Q34 38 31.5 63 Q29 88 27 112 Q25 129 23.5 158 Q22 187 20 220 Q18 253 17 286 Q16 319 16 346 Q16 366 17 381 Q18 396 20 401 Q24 413 25.5 423.5 Q27 434 27 451 L27 503 Q27 508 27 515.5 Q27 523 26 534 L26 559 Q26 591 29 611.5 Q32 632 43 639 Q54 646 60 646 Q63 646 66.5 644.5 Q70 643 75 641 Q87 636 87 620 Q87 613 85 610 Q80 601 75 589.5 Q70 578 69 564 Q69 556 68.5 539 Q68 522 68 505 Q68 491 69 480.5 Q70 470 72 468 Q74 468 78.5 475.5 Q83 483 95 497 Q102 505 112 517.5 Q122 530 134 542 Q146 554 159 563 Q172 572 186 573 L200 573 Q223 573 237.5 568 Q252 563 257 549 Q259 541 263 529 Q267 517 267 497 Z " />
<glyph glyph-name="thorn" unicode="&#xfe;" horiz-adv-x="229" d="M61 -233 Q61 -223 61 -212.5 Q61 -202 60 -191 Q59 -179 58.5 -163.5 Q58 -148 57.5 -133.5 Q57 -119 56.5 -108 Q56 -97 56 -93 Q55 -89 54 -81 Q53 -73 51 -71 Q49 -69 48 -69 Q46 -69 46 -71 Q45 -73 45 -79 Q45 -85 45 -89 L45 -117 Q45 -129 45.5 -145 Q46 -161 46.5 -177 Q47 -193 48 -206.5 Q49 -220 50 -227 Q51 -234 51 -240 Q51 -246 51 -251 Q52 -253 52 -261.5 Q52 -270 57 -270 Q59 -269 60 -256.5 Q61 -244 61 -233 Z M179 241 Q179 246 176 246 Q175 246 171.5 244.5 Q168 243 167 243 Q163 240 152 226.5 Q141 213 126 192 Q115 177 103.5 156.5 Q92 136 84 117 Q83 116 80 110 Q77 104 77 100 Q77 99 78 98 Q78 97 79 97 Q82 97 85 101 Q88 105 91 107 Q102 118 110.5 129.5 Q119 141 128 152 Q153 182 170 214 Q175 221 176.5 226.5 Q178 232 179 236 L179 241 Z M211 249 Q211 241 210 232 Q209 223 206 215 Q200 197 186 175 Q172 153 150 123 Q139 107 127.5 92.5 Q116 78 106 65 Q96 53 89 43.5 Q82 34 80 30 Q76 22 74.5 16 Q73 10 73 -1 Q73 -7 74 -11 Q75 -28 79 -60.5 Q83 -93 86 -131 Q88 -159 90 -190 Q92 -221 92 -255 Q92 -268 91.5 -280 Q91 -292 90 -306 Q89 -320 89 -331 Q89 -342 89 -350 L89 -369 Q89 -374 89.5 -377 Q90 -380 90 -383 Q90 -385 89.5 -386 Q89 -387 89 -389 Q87 -392 85.5 -394 Q84 -396 79 -396 Q73 -396 66 -391 Q55 -385 44.5 -359 Q34 -333 26 -303 Q22 -289 18.5 -264.5 Q15 -240 12.5 -211.5 Q10 -183 8.5 -154 Q7 -125 7 -102 L7 -98 Q7 -60 13.5 -16 Q20 28 29 63 Q30 67 30.5 71 Q31 75 31 81 Q31 107 24.5 151 Q18 195 18 247 L18 261 Q18 269 18 274.5 Q18 280 17.5 287 Q17 294 16.5 303 Q16 312 16 326 L16 351 Q16 383 19 403.5 Q22 424 33 431 Q44 438 50 438 Q53 438 56.5 436.5 Q60 435 65 433 Q77 428 77 412 Q77 405 75 402 Q70 393 65 381.5 Q60 370 59 356 Q59 349 59 334 Q59 319 58.5 303.5 Q58 288 58 275.5 Q58 263 58 261 L58 240 Q58 225 58 210 Q58 195 58.5 183 Q59 171 60 163.5 Q61 156 62 156 Q67 168 72.5 178 Q78 188 80 193 Q91 213 104 230 Q117 247 129.5 259.5 Q142 272 152.5 280.5 Q163 289 168 291 Q170 293 176 294.5 Q182 296 185 296 Q197 296 205 280 Q211 268 211 249 Z " />
<glyph glyph-name="Zcaron" unicode="&#x17d;" horiz-adv-x="550" d="M173 261 Q173 265 163 265 L158 265 Q152 265 136.5 265.5 Q121 266 106 266 Q95 266 87 266 Q79 266 76 264 Q72 264 72 262 Q72 259 78.5 256 Q85 253 93 251 Q104 248 117 239 Q130 230 135 227 Q139 223 143 223 Q145 223 151 231 Q156 236 160 241.5 Q164 247 171 256 Q173 260 173 261 Z M601 268 Q601 264 594 261 Q583 258 577 258 Q568 258 558 261 Q548 264 528 264 Q511 264 492.5 264.5 Q474 265 451 265 Q437 265 419.5 265 Q402 265 380 263 Q366 262 352.5 262 Q339 262 327 262 Q306 262 290 262.5 Q274 263 263 263 Q248 263 245 261 Q240 257 229 246.5 Q218 236 210 226 Q202 217 192.5 207.5 Q183 198 181 193 Q181 189 188.5 184.5 Q196 180 201 177 Q210 174 210 169 Q210 166 206 166 Q200 167 190 171 Q180 175 170 180 Q165 180 157.5 169.5 Q150 159 142 151 Q138 147 131.5 137 Q125 127 118.5 115 Q112 103 106 91 Q100 79 97 72 Q92 62 92 56 Q92 48 104 39.5 Q116 31 154 17 Q186 6 224 2 Q262 -2 297 -2 Q322 -2 343.5 -1 Q365 0 381 1 Q420 4 432 8.5 Q444 13 446 18 Q446 20 442.5 21.5 Q439 23 434.5 25 Q430 27 426.5 29 Q423 31 423 33 Q425 35 432 35 Q440 35 449.5 32.5 Q459 30 466 28 Q476 25 484.5 25 Q493 25 497 15 Q500 6 500 -2 Q500 -15 494 -21 Q491 -23 478 -28 Q465 -33 443 -38 Q421 -43 391.5 -46.5 Q362 -50 327 -50 L292 -50 Q239 -50 208.5 -44 Q178 -38 157 -31 Q145 -27 128.5 -20 Q112 -13 96 -5 Q80 3 67 12.5 Q54 22 48 31 Q42 40 42 52 Q42 69 50 87 Q58 105 68 120 Q80 140 90 155 Q100 170 106 178 Q111 185 119.5 193 Q128 201 128 207 Q128 209 127 210 Q124 217 113.5 222.5 Q103 228 94 233 Q89 235 78 237 Q67 239 54.5 241 Q42 243 29.5 245 Q17 247 10 248 Q-5 250 -19 258 Q-33 266 -33 279 Q-33 284 -31 287 Q-28 295 -20.5 298.5 Q-13 302 -3 303 Q7 304 19.5 304 Q32 304 46 306 Q51 306 55.5 306.5 Q60 307 64 307 Q73 307 81.5 306 Q90 305 101 305 Q106 305 113 305.5 Q120 306 128 307 Q158 309 183 308.5 Q208 308 219 310 Q224 311 227 311 Q230 311 234 313 Q238 315 243.5 319 Q249 323 259 332 Q278 349 295 364.5 Q312 380 329 397 Q340 407 347 415 Q354 423 354 431 Q354 440 339 450 Q328 456 310.5 461 Q293 466 271.5 470 Q250 474 226 477.5 Q202 481 178 484 Q143 488 107 492.5 Q71 497 33 497 L25 497 Q5 497 -9.5 499 Q-24 501 -33 506 Q-42 513 -42 526 Q-42 531 -39.5 535.5 Q-37 540 -32 541 Q-24 542 -12 544 Q0 546 17 546 Q27 546 32 545 Q53 544 85.5 539 Q118 534 164 530 Q186 528 213.5 524 Q241 520 267 515 Q293 510 315 504.5 Q337 499 349 494 Q369 486 382.5 471.5 Q396 457 396 439 Q396 427 391 418 Q378 393 365.5 378 Q353 363 335 349 Q326 343 313.5 331.5 Q301 320 299 307 Q300 306 316 306 Q332 306 352.5 306.5 Q373 307 387 307 Q398 308 407.5 308 Q417 308 426 308 Q458 308 487 305.5 Q516 303 551 297 Q566 295 583.5 285.5 Q601 276 601 268 Z M345 837 Q345 829 343.5 822 Q342 815 340 812 Q337 809 335 809 Q333 809 332 812 Q331 815 330 817 Q328 823 322 823 Q311 818 299 794 Q287 770 276 731 L255 659 Q250 644 246 634 Q242 624 238 622 Q236 621 233 621 Q228 621 224 624 Q220 627 218 629 Q211 640 202.5 665 Q194 690 186 713 Q182 725 179 734.5 Q176 744 172.5 755.5 Q169 767 164 781.5 Q159 796 151 817 Q148 825 145.5 833 Q143 841 143 850 Q143 854 146.5 863.5 Q150 873 152 873 Q154 874 158 874 Q165 874 171.5 870 Q178 866 180 861 Q188 844 192.5 829 Q197 814 201 799 Q208 771 213 742.5 Q218 714 226 686 Q226 679 231 679 Q232 679 234 688 Q239 708 244 730 Q249 752 257 781 Q260 790 266 805.5 Q272 821 280.5 836 Q289 851 300 862 Q311 873 324 873 Q335 873 340 860.5 Q345 848 345 837 Z " />
<glyph glyph-name="zcaron" unicode="&#x17e;" horiz-adv-x="362" d="M70 179 Q70 182 63.5 188.5 Q57 195 52 199 Q43 208 38 208 Q36 208 34 206 Q33 204 33 202 Q33 198 37 194 Q41 190 47 186.5 Q53 183 59.5 181 Q66 179 70 179 Z M218 118 Q218 122 205 122 Q198 122 186 123 Q174 124 164 124 Q159 124 153.5 125 Q148 126 141 126 Q139 126 139 124 Q139 122 144.5 115.5 Q150 109 154 101 Q159 92 161 86 Q163 80 165 71 Q166 63 169 63 Q171 63 177 69 Q179 71 184 77 Q189 83 195 90 Q201 97 206.5 103.5 Q212 110 215 113 Q218 116 218 118 Z M317 -36 Q317 -38 314 -41 Q309 -46 299 -50 Q289 -54 275 -55 Q271 -56 258 -56 L216 -56 Q206 -56 197.5 -56 Q189 -56 184 -57 Q172 -59 153.5 -61 Q135 -63 122 -63 Q115 -63 112 -62 Q104 -61 101 -56.5 Q98 -52 98 -47 Q98 -42 99 -40 Q102 -33 107.5 -29.5 Q113 -26 126 -26 L140 -26 Q147 -26 156.5 -25.5 Q166 -25 177 -23 Q182 -23 187 -22.5 Q192 -22 197 -22 Q211 -22 223 -23 Q235 -24 246 -25 Q253 -25 262 -25.5 Q271 -26 280 -27 Q289 -28 296.5 -28.5 Q304 -29 307 -29 Q317 -31 317 -36 Z M361 162 Q361 158 357 154 Q349 149 337.5 143 Q326 137 315 135 Q302 133 290.5 131 Q279 129 272 124 Q266 118 253.5 103 Q241 88 229 75 Q223 69 214 61 Q205 53 195 44.5 Q185 36 176.5 28 Q168 20 163 15 Q159 11 154 5 Q149 -1 143 -7 Q137 -13 130.5 -17 Q124 -21 116 -21 Q108 -21 100.5 -16 Q93 -11 93 -2 Q93 2 96 8 Q100 15 103.5 18 Q107 21 111.5 22.5 Q116 24 121.5 26 Q127 28 134 34 Q139 39 141 46 Q143 53 143 61 Q143 67 142 72.5 Q141 78 139 81 Q129 99 122 112 Q115 125 107 130 Q102 132 88.5 136 Q75 140 60 145 Q52 147 43 152 Q34 157 25.5 163.5 Q17 170 10 177.5 Q3 185 1 191 Q-2 198 -2 205 Q-2 223 13 229 Q20 232 28 232 Q35 232 41 230 Q47 228 51 226 Q57 223 66.5 212.5 Q76 202 84 191 Q96 177 101.5 171 Q107 165 121 163 Q128 161 140.5 160 Q153 159 166.5 158.5 Q180 158 192.5 157.5 Q205 157 211 157 Q223 157 239 158 Q255 159 259 166 Q261 171 268 184 Q275 197 275 210 L275 217 Q273 224 269 231.5 Q265 239 256.5 246.5 Q248 254 233 261 Q218 268 194 274 Q151 284 122 284 Q105 284 94.5 281.5 Q84 279 76 276 Q68 272 59 270.5 Q50 269 41 269 Q30 269 22 270 Q14 271 9 273 Q2 274 -3.5 278 Q-9 282 -9 290 Q-9 292 -7 298 Q-2 309 3 309 Q8 309 16 310 Q43 314 70.5 318.5 Q98 323 128 323 Q147 323 166.5 320 Q186 317 204 312.5 Q222 308 237.5 303 Q253 298 263 292 Q283 281 298.5 264.5 Q314 248 314 222 L314 214 Q312 200 310.5 192 Q309 184 307 179.5 Q305 175 304 173 Q303 171 303 168 Q303 165 312 165 Q321 165 333 167 Q345 169 350 169 Q361 169 361 162 Z M287 639 Q287 631 285.5 624 Q284 617 282 614 Q279 611 277 611 Q275 611 274 614 Q273 617 272 619 Q270 625 264 625 Q253 620 241 596 Q229 572 218 533 L197 461 Q192 446 188 436 Q184 426 180 424 Q178 423 175 423 Q170 423 166 426 Q162 429 160 431 Q153 442 144.5 467 Q136 492 128 515 Q124 527 121 536.5 Q118 546 114.5 557.5 Q111 569 106 583.5 Q101 598 93 619 Q90 627 87.5 635 Q85 643 85 652 Q85 656 88.5 665.5 Q92 675 94 675 Q96 676 100 676 Q107 676 113.5 672 Q120 668 122 663 Q130 646 134.5 631 Q139 616 143 601 Q150 573 155 544.5 Q160 516 168 488 Q168 481 173 481 Q174 481 176 490 Q181 510 186 532 Q191 554 199 583 Q202 592 208 607.5 Q214 623 222.5 638 Q231 653 242 664 Q253 675 266 675 Q277 675 282 662.5 Q287 650 287 639 Z " />
<glyph glyph-name="onehalf" unicode="&#xbd;" horiz-adv-x="661" d="M628 653 L544 554 Q505 502 458.5 443 Q412 384 366.5 325.5 Q321 267 279.5 213 Q238 159 208 116 L128 3 Q106 -29 87.5 -58 Q69 -87 60 -105 L26 -176 Q18 -192 12.5 -206.5 Q7 -221 2 -237 Q0 -243 -2 -248 Q-4 -253 -6 -256 Q-7 -260 -11 -260 Q-14 -260 -18 -256 Q-25 -249 -25 -234 Q-25 -221 -20.5 -207.5 Q-16 -194 -14 -184 Q2 -125 28.5 -77.5 Q55 -30 87 21 Q103 46 113.5 61 Q124 76 133 88 Q142 100 151 111.5 Q160 123 174 142 L286 294 Q315 333 353 381.5 Q391 430 427 476 Q462 522 489 558 Q516 594 523 608 Q527 617 535 625.5 Q543 634 552.5 642.5 Q562 651 571.5 658 Q581 665 589 671 Q594 674 599 677 Q604 680 609 680 Q612 680 613 679 L623 672 Q627 667 627 658 L628 653 Z M176 355 Q176 335 175 313.5 Q174 292 171.5 274 Q169 256 164 243.5 Q159 231 150 229 Q148 227 144 226 Q136 224 130 224 Q124 224 119 227.5 Q114 231 114 242 Q114 247 115 252.5 Q116 258 118 265 Q130 305 133 348.5 Q136 392 136 423 L136 445 Q136 473 134.5 492.5 Q133 512 131.5 525 Q130 538 128 545.5 Q126 553 125 558 Q123 566 123 574 Q123 579 125.5 587 Q128 595 138 595 Q153 595 158 586.5 Q163 578 167 564 Q169 557 170.5 539 Q172 521 173 498.5 Q174 476 174.5 452.5 Q175 429 175 412 Q176 402 176 387 Q176 372 176 355 Z M676 -38 Q676 -41 675 -42 Q672 -49 663 -53 Q655 -57 638 -63.5 Q621 -70 600.5 -77 Q580 -84 559 -90.5 Q538 -97 522 -101 Q507 -105 488.5 -107.5 Q470 -110 452 -110 Q432 -110 414.5 -106.5 Q397 -103 385 -95 Q369 -85 362 -71 Q355 -57 355 -42 Q355 -25 363 -11 Q368 -2 380 14.5 Q392 31 404 49 Q417 67 427.5 82.5 Q438 98 441 106 Q445 114 449 123 Q453 132 456 141 Q457 146 457 153 Q457 163 452 168 Q441 180 416 180 Q397 180 381 176 Q364 172 349 172 L343 172 Q338 173 332.5 175.5 Q327 178 327 186 Q328 195 334 197 L337 199 L344 202 Q358 210 380.5 217 Q403 224 425 224 Q431 224 436.5 224 Q442 224 447 222 Q467 216 485 203.5 Q503 191 503 163 Q503 152 500 139 Q495 119 486.5 102 Q478 85 469 69 Q459 54 450 41 Q441 28 433 18 Q421 1 412.5 -15.5 Q404 -32 404 -43 Q404 -50 409 -54 Q417 -59 432.5 -63 Q448 -67 468 -67 Q490 -67 516 -61 Q535 -57 555.5 -52.5 Q576 -48 593.5 -43.5 Q611 -39 623.5 -36 Q636 -33 640 -31 Q649 -28 659 -28 Q667 -28 670 -30 Q676 -32 676 -38 Z " />
<glyph glyph-name="onequarter" unicode="&#xbc;" horiz-adv-x="640" d="M628 653 L544 554 Q505 502 458.5 443 Q412 384 366.5 325.5 Q321 267 279.5 213 Q238 159 208 116 L128 3 Q106 -29 87.5 -58 Q69 -87 60 -105 L26 -176 Q18 -192 12.5 -206.5 Q7 -221 2 -237 Q0 -243 -2 -248 Q-4 -253 -6 -256 Q-7 -260 -11 -260 Q-14 -260 -18 -256 Q-25 -249 -25 -234 Q-25 -221 -20.5 -207.5 Q-16 -194 -14 -184 Q2 -125 28.5 -77.5 Q55 -30 87 21 Q103 46 113.5 61 Q124 76 133 88 Q142 100 151 111.5 Q160 123 174 142 L286 294 Q315 333 353 381.5 Q391 430 427 476 Q462 522 489 558 Q516 594 523 608 Q527 617 535 625.5 Q543 634 552.5 642.5 Q562 651 571.5 658 Q581 665 589 671 Q594 674 599 677 Q604 680 609 680 Q612 680 613 679 L623 672 Q627 667 627 658 L628 653 Z M176 355 Q176 335 175 313.5 Q174 292 171.5 274 Q169 256 164 243.5 Q159 231 150 229 Q148 227 144 226 Q136 224 130 224 Q124 224 119 227.5 Q114 231 114 242 Q114 247 115 252.5 Q116 258 118 265 Q130 305 133 348.5 Q136 392 136 423 L136 445 Q136 473 134.5 492.5 Q133 512 131.5 525 Q130 538 128 545.5 Q126 553 125 558 Q123 566 123 574 Q123 579 125.5 587 Q128 595 138 595 Q153 595 158 586.5 Q163 578 167 564 Q169 557 170.5 539 Q172 521 173 498.5 Q174 476 174.5 452.5 Q175 429 175 412 Q176 402 176 387 Q176 372 176 355 Z M580 168 Q580 156 578 143.5 Q576 131 574 120 Q565 78 562.5 35 Q560 -8 557 -51 Q555 -81 549 -111 Q543 -141 541 -172 Q541 -175 540.5 -179.5 Q540 -184 539 -189 Q538 -194 536 -197.5 Q534 -201 530 -201 Q520 -201 517 -195 Q515 -192 513.5 -184.5 Q512 -177 511 -167.5 Q510 -158 509.5 -149.5 Q509 -141 509 -137 Q509 -130 509.5 -123 Q510 -116 511 -109 Q515 -84 515.5 -60 Q516 -36 519 -11 Q521 1 522 13.5 Q523 26 523 39 Q523 43 522.5 49.5 Q522 56 517 56 Q513 56 506.5 51 Q500 46 490 40 Q480 34 467.5 29 Q455 24 440 24 Q399 24 383.5 46 Q368 68 368 106 Q368 132 373 157 Q378 182 385 207 Q387 215 391.5 223 Q396 231 400 239 Q403 246 407.5 253 Q412 260 420 260 Q434 260 434 248 Q434 245 433 241.5 Q432 238 431 235 Q423 206 419 176.5 Q415 147 415 118 Q415 101 420 86 Q425 71 446 71 Q467 71 480 84 Q493 97 505 111 Q513 121 516 125.5 Q519 130 524 143 Q525 148 527.5 159 Q530 170 534 181 Q538 192 542.5 200.5 Q547 209 553 209 Q569 209 574.5 195 Q580 181 580 168 Z " />
<glyph glyph-name="onesuperior" unicode="&#xb9;" horiz-adv-x="294" d="M176 475 Q176 455 175 433.5 Q174 412 171.5 394 Q169 376 164 363.5 Q159 351 150 349 Q148 347 144 346 Q136 344 130 344 Q124 344 119 347.5 Q114 351 114 362 Q114 367 115 372.5 Q116 378 118 385 Q130 425 133 468.5 Q136 512 136 543 L136 565 Q136 593 134.5 612.5 Q133 632 131.5 645 Q130 658 128 665.5 Q126 673 125 678 Q123 686 123 694 Q123 699 125.5 707 Q128 715 138 715 Q153 715 158 706.5 Q163 698 167 684 Q169 677 170.5 659 Q172 641 173 618.5 Q174 596 174.5 572.5 Q175 549 175 532 Q176 522 176 507 Q176 492 176 475 Z " />
<glyph glyph-name="threequarters" unicode="&#xbe;" horiz-adv-x="667" d="M655 653 L571 554 Q532 502 485.5 443 Q439 384 393.5 325.5 Q348 267 306.5 213 Q265 159 235 116 L155 3 Q133 -29 114.5 -58 Q96 -87 87 -105 L53 -176 Q45 -192 39.5 -206.5 Q34 -221 29 -237 Q27 -243 25 -248 Q23 -253 21 -256 Q20 -260 16 -260 Q13 -260 9 -256 Q2 -249 2 -234 Q2 -221 6.5 -207.5 Q11 -194 13 -184 Q29 -125 55.5 -77.5 Q82 -30 114 21 Q130 46 140.5 61 Q151 76 160 88 Q169 100 178 111.5 Q187 123 201 142 L313 294 Q342 333 380 381.5 Q418 430 454 476 Q489 522 516 558 Q543 594 550 608 Q554 617 562 625.5 Q570 634 579.5 642.5 Q589 651 598.5 658 Q608 665 616 671 Q621 674 626 677 Q631 680 636 680 Q639 680 640 679 L650 672 Q654 667 654 658 L655 653 Z M607 168 Q607 156 605 143.5 Q603 131 601 120 Q592 78 589.5 35 Q587 -8 584 -51 Q582 -81 576 -111 Q570 -141 568 -172 Q568 -175 567.5 -179.5 Q567 -184 566 -189 Q565 -194 563 -197.5 Q561 -201 557 -201 Q547 -201 544 -195 Q542 -192 540.5 -184.5 Q539 -177 538 -167.5 Q537 -158 536.5 -149.5 Q536 -141 536 -137 Q536 -130 536.5 -123 Q537 -116 538 -109 Q542 -84 542.5 -60 Q543 -36 546 -11 Q548 1 549 13.5 Q550 26 550 39 Q550 43 549.5 49.5 Q549 56 544 56 Q540 56 533.5 51 Q527 46 517 40 Q507 34 494.5 29 Q482 24 467 24 Q426 24 410.5 46 Q395 68 395 106 Q395 132 400 157 Q405 182 412 207 Q414 215 418.5 223 Q423 231 427 239 Q430 246 434.5 253 Q439 260 447 260 Q461 260 461 248 Q461 245 460 241.5 Q459 238 458 235 Q450 206 446 176.5 Q442 147 442 118 Q442 101 447 86 Q452 71 473 71 Q494 71 507 84 Q520 97 532 111 Q540 121 543 125.5 Q546 130 551 143 Q552 148 554.5 159 Q557 170 561 181 Q565 192 569.5 200.5 Q574 209 580 209 Q596 209 601.5 195 Q607 181 607 168 Z M245 545 Q245 534 241.5 522 Q238 510 230 497 Q222 483 215 480 Q208 477 203 468 Q199 461 193 455.5 Q187 450 187 439 Q187 428 195 415 Q197 411 202.5 407 Q208 403 215 396 Q222 389 229 379.5 Q236 370 240 355 Q243 344 243 334 Q243 317 235 300 Q227 283 210 270 Q192 256 170 245.5 Q148 235 125 230 Q95 222 71 218 Q54 215 43 215 Q36 215 34 216 Q28 217 28 221 Q28 224 30 226 Q37 237 54 243 Q64 246 79.5 252.5 Q95 259 111.5 266.5 Q128 274 143 282.5 Q158 291 166 297 Q181 308 187 318 Q193 328 193 338 Q193 355 180.5 368.5 Q168 382 158 393 Q151 401 143.5 410.5 Q136 420 136 433 Q136 443 140.5 451.5 Q145 460 152.5 469 Q160 478 169 488 Q178 498 187 511 Q194 521 194 530 Q194 545 181 552.5 Q168 560 154 560 L150 560 Q145 560 140.5 560.5 Q136 561 128 561 Q123 561 118.5 560.5 Q114 560 106 560 Q76 557 64 557 Q55 557 51 558.5 Q47 560 43 563 Q38 567 38 571 Q38 576 43 580.5 Q48 585 55.5 588.5 Q63 592 71 594 Q79 596 84 597 Q110 602 122.5 605 Q135 608 149 608 Q157 608 167 607 Q177 606 193 603 Q202 601 216.5 597.5 Q231 594 236 584 Q239 578 242 568 Q245 558 245 545 Z " />
<glyph glyph-name="threesuperior" unicode="&#xb3;" horiz-adv-x="256" d="M245 665 Q245 654 241.5 642 Q238 630 230 617 Q222 603 215 600 Q208 597 203 588 Q199 581 193 575.5 Q187 570 187 559 Q187 548 195 535 Q197 531 202.5 527 Q208 523 215 516 Q222 509 229 499.5 Q236 490 240 475 Q243 464 243 454 Q243 437 235 420 Q227 403 210 390 Q192 376 170 365.5 Q148 355 125 350 Q95 342 71 338 Q54 335 43 335 Q36 335 34 336 Q28 337 28 341 Q28 344 30 346 Q37 357 54 363 Q64 366 79.5 372.5 Q95 379 111.5 386.5 Q128 394 143 402.5 Q158 411 166 417 Q181 428 187 438 Q193 448 193 458 Q193 475 180.5 488.5 Q168 502 158 513 Q151 521 143.5 530.5 Q136 540 136 553 Q136 563 140.5 571.5 Q145 580 152.5 589 Q160 598 169 608 Q178 618 187 631 Q194 641 194 650 Q194 665 181 672.5 Q168 680 154 680 L150 680 Q145 680 140.5 680.5 Q136 681 128 681 Q123 681 118.5 680.5 Q114 680 106 680 Q76 677 64 677 Q55 677 51 678.5 Q47 680 43 683 Q38 687 38 691 Q38 696 43 700.5 Q48 705 55.5 708.5 Q63 712 71 714 Q79 716 84 717 Q110 722 122.5 725 Q135 728 149 728 Q157 728 167 727 Q177 726 193 723 Q202 721 216.5 717.5 Q231 714 236 704 Q239 698 242 688 Q245 678 245 665 Z " />
<glyph glyph-name="twosuperior" unicode="&#xb2;" horiz-adv-x="283" d="M396 458 Q396 455 395 454 Q392 447 383 443 Q375 439 358 432.5 Q341 426 320.5 419 Q300 412 279 405.5 Q258 399 242 395 Q227 391 208.5 388.5 Q190 386 172 386 Q152 386 134.5 389.5 Q117 393 105 401 Q89 411 82 425 Q75 439 75 454 Q75 471 83 485 Q88 494 100 510.5 Q112 527 124 545 Q137 563 147.5 578.5 Q158 594 161 602 Q165 610 169 619 Q173 628 176 637 Q177 642 177 649 Q177 659 172 664 Q161 676 136 676 Q117 676 101 672 Q84 668 69 668 L63 668 Q58 669 52.5 671.5 Q47 674 47 682 Q48 691 54 693 L57 695 L64 698 Q78 706 100.5 713 Q123 720 145 720 Q151 720 156.5 720 Q162 720 167 718 Q187 712 205 699.5 Q223 687 223 659 Q223 648 220 635 Q215 615 206.5 598 Q198 581 189 565 Q179 550 170 537 Q161 524 153 514 Q141 497 132.5 480.5 Q124 464 124 453 Q124 446 129 442 Q137 437 152.5 433 Q168 429 188 429 Q210 429 236 435 Q255 439 275.5 443.5 Q296 448 313.5 452.5 Q331 457 343.5 460 Q356 463 360 465 Q369 468 379 468 Q387 468 390 466 Q396 464 396 458 Z " />
<glyph glyph-name="brokenbar" unicode="&#xa6;" horiz-adv-x="240" d="M149 -188 Q149 -222 142 -229 Q136 -235 130 -235 Q124 -235 120 -230 Q115 -225 111 -213 Q107 -201 105 -181 Q103 -170 103 -159.5 Q103 -149 103 -138 Q103 -109 104.5 -84.5 Q106 -60 106 -51 Q106 -48 107 -33 Q108 -18 108 -3 L108 11 Q107 23 107 32 Q107 41 106.5 48.5 Q106 56 106 65 Q106 74 105 86 Q104 105 102 124 Q100 143 100 163 Q100 189 109 189 Q113 189 118.5 184 Q124 179 128.5 171.5 Q133 164 136 156.5 Q139 149 139 143 L139 139 Q138 135 138 125.5 Q138 116 138 102 Q138 87 138.5 69 Q139 51 139.5 32 Q140 13 140.5 -6.5 Q141 -26 142 -43 Q143 -68 145 -102 Q147 -136 148 -162 Q149 -170 149 -176.5 Q149 -183 149 -188 Z M176 693 Q176 690 174 679.5 Q172 669 169 652 L153 574 Q148 552 145.5 537.5 Q143 523 141.5 511.5 Q140 500 139 489.5 Q138 479 137 467 Q135 459 135 446 Q135 433 135 418 Q135 400 135.5 381.5 Q136 363 136 348 Q136 342 135.5 335.5 Q135 329 135 321 Q135 316 135.5 306 Q136 296 136.5 284 Q137 272 137.5 261 Q138 250 138 244 L138 239 Q136 227 125 227 Q117 227 107.5 238 Q98 249 98 275 L98 336 Q99 341 99 349.5 Q99 358 99 369 L99 418 Q98 459 96.5 491.5 Q95 524 95 546 Q95 554 95.5 561 Q96 568 97 573 Q99 582 98.5 584.5 Q98 587 100 593 Q118 648 133.5 681.5 Q149 715 159 717 Q161 718 164 718 Q176 718 176 697 L176 693 Z " />
<glyph glyph-name="minus" unicode="&#x2212;" horiz-adv-x="534" d="M506 145 Q506 138 492 138 L484 138 Q470 138 446.5 138.5 Q423 139 396 139.5 Q369 140 342 140.5 Q315 141 294 142 Q287 142 280.5 142.5 Q274 143 267 143 Q232 143 199 141 Q166 139 142 139 L117 139 Q105 139 93.5 138.5 Q82 138 69 138 Q40 138 36 146 Q35 150 33 155 Q31 160 31 162 Q31 164 33 168 Q36 171 47 173.5 Q58 176 73 178.5 Q88 181 103.5 182 Q119 183 131 183 Q151 183 181 185.5 Q211 188 246 188 Q254 188 263 188 Q272 188 281 187 Q303 185 323.5 185 Q344 185 364 183 Q383 182 398.5 180.5 Q414 179 425 175 Q436 171 447.5 168.5 Q459 166 470 164 Q475 163 479.5 162 Q484 161 487 160 Q491 159 493 159 Q495 159 497 158 Q499 156 502.5 152.5 Q506 149 506 145 Z " />
<glyph glyph-name="multiply" unicode="&#xd7;" horiz-adv-x="407" d="M362 -13 Q362 -27 346 -30 Q342 -31 334 -31 Q326 -31 316.5 -27.5 Q307 -24 298 -13 Q287 1 276 17.5 Q265 34 259 42 Q256 46 250 55 Q244 64 238 73.5 Q232 83 226 92 Q220 101 217 105 Q212 111 208 116.5 Q204 122 201 126 Q197 130 195 135 Q192 129 188 124 Q185 119 181.5 113 Q178 107 174 102 Q168 93 159 80 Q150 67 140.5 54.5 Q131 42 122.5 31 Q114 20 109 15 Q103 9 96 -1.5 Q89 -12 82 -17 Q75 -22 67.5 -25 Q60 -28 51 -28 Q37 -28 30 -24 Q24 -21 24 -18 Q24 -16 29.5 -14.5 Q35 -13 40 -12 Q41 -11 45 -11 Q47 -10 49.5 -9 Q52 -8 57 -5 Q67 2 79 19.5 Q91 37 102 53 Q113 70 120 81 Q127 92 129 95 Q135 103 143.5 118 Q152 133 158 142 Q160 144 165.5 154 Q171 164 171 166 Q171 167 167 174 Q163 181 157.5 189 Q152 197 146.5 205.5 Q141 214 138 220 Q124 240 116.5 251.5 Q109 263 99 277 L78 307 Q75 312 71.5 319 Q68 326 68 331 Q68 336 73.5 340 Q79 344 85 344 Q96 344 104 337 Q113 330 118.5 321.5 Q124 313 128 305 Q130 301 132 296.5 Q134 292 138 287 L177 229 Q182 221 187 214.5 Q192 208 196 206 Q198 206 198 209 Q200 212 207.5 225.5 Q215 239 224 254.5 Q233 270 241.5 285 Q250 300 255 308 Q261 316 270.5 329 Q280 342 294 342 Q310 338 310 322 Q310 318 309 316 Q307 310 305.5 302 Q304 294 296 292 L292 292 Q287 292 283.5 285 Q280 278 277 274 Q272 268 264.5 255.5 Q257 243 249.5 229.5 Q242 216 236 205.5 Q230 195 229 192 Q227 190 223 181.5 Q219 173 219 171 Q219 170 222 165.5 Q225 161 229 156 Q233 151 236.5 146.5 Q240 142 242 140 Q243 138 248 131 Q253 124 260 115 Q267 106 273.5 97.5 Q280 89 284 84 Q292 74 297 67 Q302 60 307 54 Q329 28 338 18.5 Q347 9 354 4 Q362 -4 362 -13 Z " />
<glyph glyph-name="exclam" unicode="&#x21;" horiz-adv-x="212" d="M98 -69 Q98 -77 91 -87 Q86 -95 80.5 -107 Q75 -119 61 -127 Q53 -132 45.5 -135 Q38 -138 32 -138 Q21 -138 17 -127 Q16 -126 16 -122 Q16 -116 20 -110 Q24 -104 29 -99.5 Q34 -95 38.5 -91.5 Q43 -88 45 -87 Q55 -82 68 -72 Q81 -62 93 -62 Q98 -62 98 -69 Z M128 401 Q128 370 125.5 337.5 Q123 305 121 273 Q119 234 117.5 207 Q116 180 114 166 Q112 152 109 136.5 Q106 121 95 116 Q89 114 88 114 Q81 114 81 124 Q81 131 82 135 Q84 143 85.5 149.5 Q87 156 87 166 Q87 171 87 176 Q87 181 85 187 Q83 203 82 214 Q81 225 81 234 Q81 247 81.5 257.5 Q82 268 82 282 L82 314 Q82 331 83 347 Q84 363 84 383 Q84 391 83.5 400.5 Q83 410 82 421 L64 649 Q63 657 63 664.5 Q63 672 63 679 Q63 691 66 699 Q69 707 79 710 Q86 713 92 713 Q103 713 108.5 701.5 Q114 690 115 657 Q117 606 120.5 545.5 Q124 485 127 429 Q128 422 128 415 Q128 408 128 401 Z " />
<glyph glyph-name="quotedbl" unicode="&#x22;" horiz-adv-x="257" d="M101 662 Q101 657 100 655 Q99 651 95 649 Q92 646 88.5 643 Q85 640 83 635 Q79 627 78 617 Q77 607 77 596 L77 579 Q77 571 76.5 564 Q76 557 76 550 L76 538 Q78 532 80 512.5 Q82 493 82 478 Q82 468 80 462 Q79 460 76.5 457 Q74 454 69 454 Q66 454 64 455 Q58 458 55.5 468.5 Q53 479 51 485 Q48 497 44 507 Q40 517 38 531 Q36 542 35 556 Q34 570 34 584 Q34 601 36.5 618.5 Q39 636 46 651 Q50 659 59 671 Q68 683 83 683 Q87 683 93 681 Q96 678 98.5 672.5 Q101 667 101 662 Z M200 648 Q200 640 197 633 L190 613 Q185 596 185 577 Q185 569 185.5 561 Q186 553 187 545 Q189 534 190 525.5 Q191 517 191 509 Q191 501 189.5 493 Q188 485 186 475 Q184 465 180 457 Q176 449 171 444 Q164 436 156 436 Q145 436 145 450 L145 457 L149 469 Q150 474 150 478 Q150 482 150 487 Q150 496 149 505 Q148 514 146 524 Q145 533 144 543 Q143 553 143 564 Q143 569 143 572.5 Q143 576 144 581 Q146 608 150.5 630 Q155 652 165 660 Q171 666 183 666 Q189 666 194 663 Q199 660 200 652 L200 648 Z " />
<glyph glyph-name="numbersign" unicode="&#x23;" horiz-adv-x="665" d="M401 273 Q401 278 395 278 Q393 278 390.5 277.5 Q388 277 386 277 Q383 277 376.5 276 Q370 275 363 273.5 Q356 272 349.5 270 Q343 268 341 265 Q339 262 337 252.5 Q335 243 332.5 231.5 Q330 220 328 209.5 Q326 199 325 194 Q322 186 322 183 Q322 180 324 180 Q326 180 334 182 Q343 184 358 187 Q373 190 381 192 Q388 194 389 198 Q390 202 391 210 Q392 214 393 222 Q394 230 395.5 239 Q397 248 398.5 256 Q400 264 401 269 L401 273 Z M634 163 Q634 157 627 157 Q618 158 614.5 162.5 Q611 167 594 170 Q583 172 567 174 Q551 176 534 176 Q514 176 495 173 Q467 168 449.5 164.5 Q432 161 427 158 Q423 155 419.5 131 Q416 107 411 75 Q406 43 400.5 14 Q395 -15 393 -33 Q392 -42 390 -56 Q388 -70 386 -84.5 Q384 -99 382 -111.5 Q380 -124 379 -130 Q376 -144 367 -144 Q362 -144 358 -141 Q355 -138 355 -124 Q355 -110 357.5 -89 Q360 -68 361 -54 Q362 -34 363 -1.5 Q364 31 369 67 Q372 96 376 116 Q380 136 380 144 Q380 149 375 149 Q372 149 366 147.5 Q360 146 350 144 Q334 141 324.5 139 Q315 137 313 132 Q312 129 309 119.5 Q306 110 303 97 Q300 84 297 71 Q294 58 292 49 Q289 32 286 19 Q283 6 280.5 -5.5 Q278 -17 275.5 -27 Q273 -37 271 -49 Q269 -60 266.5 -73.5 Q264 -87 261.5 -99 Q259 -111 255.5 -120 Q252 -129 249 -130 Q247 -131 244 -131 Q237 -131 230.5 -124.5 Q224 -118 222 -105 Q221 -101 221 -94 Q221 -82 224 -71.5 Q227 -61 230 -51 Q234 -39 237.5 -20 Q241 -1 246 26 Q250 46 255 67.5 Q260 89 260 111 Q259 118 258 120.5 Q257 123 252 123 Q247 123 244 122 L91 90 Q63 85 49 85 Q31 85 27 91 Q23 99 23 102 Q23 110 32 114 Q38 117 45 122 Q52 127 58 127 Q60 127 62 126 Q64 124 70 124 Q75 124 82 126 Q89 128 103 130 L238 160 Q247 162 257.5 163.5 Q268 165 270 170 Q272 175 274.5 189 Q277 203 283 226 Q288 248 288 253 Q288 258 283 258 Q277 258 254 255.5 Q231 253 186 244 Q164 239 142 236 Q120 233 102 231 Q84 229 72 227 Q60 225 58 222 Q55 219 50 216.5 Q45 214 38 214 Q28 214 22 220 Q13 226 13 235 Q13 247 24 253 Q35 259 67 261.5 Q99 264 138 272 Q157 275 182.5 279.5 Q208 284 231.5 288.5 Q255 293 272 296.5 Q289 300 291 302 Q296 305 299 312 Q302 319 303 337 Q305 355 307 367 Q309 379 310 390 Q313 421 314 439 Q315 457 315 468 Q315 473 314.5 478.5 Q314 484 314 491 Q314 500 318.5 506 Q323 512 331 512 Q334 512 342 508 Q352 500 361 489.5 Q370 479 370 457 L370 450 Q368 425 363.5 396.5 Q359 368 357 354 Q355 345 352.5 335.5 Q350 326 350 320 Q350 314 354 314 Q357 314 365 315.5 Q373 317 382 319 Q391 321 398.5 323.5 Q406 326 409 328 Q411 330 413.5 342.5 Q416 355 417.5 370 Q419 385 420.5 399 Q422 413 422 418 Q423 423 423 426.5 Q423 430 423 433 Q423 441 419 446 Q417 452 417 453 Q417 458 419.5 462.5 Q422 467 427 475 Q435 486 435 495.5 Q435 505 442 510 Q446 513 452 513 Q457 513 461.5 508.5 Q466 504 466 493 Q466 485 464.5 466 Q463 447 461 426.5 Q459 406 457 387.5 Q455 369 454 362 Q453 355 452 349.5 Q451 344 451 339 Q451 330 459 330 Q470 332 487.5 334 Q505 336 513 336 Q518 336 523.5 329 Q529 322 529 313 Q529 308 526 304 Q521 296 517.5 293 Q514 290 505 290 L494 290 Q491 290 488 290.5 Q485 291 482 291 Q471 291 463 289.5 Q455 288 450 286 Q444 284 443.5 279 Q443 274 442 269 L434 217 Q434 215 433.5 214 Q433 213 433 211 Q433 205 441 205 L445 205 Q453 206 474.5 210.5 Q496 215 518 215 Q521 215 524.5 215 Q528 215 531 214 Q554 211 580 208 Q606 205 618 192 Q634 174 634 163 Z " />
<glyph glyph-name="dollar" unicode="&#x24;" horiz-adv-x="477" d="M320 65 Q320 74 312 85 Q304 96 293 106 Q282 116 270 124.5 Q258 133 251 138 L244 142 Q239 147 235 147 Q233 147 232 146 Q230 144 228.5 123 Q227 102 226 76 Q225 50 224.5 26.5 Q224 3 224 -3 Q222 -42 221.5 -76 Q221 -110 221 -130 L221 -155 Q221 -158 223 -158 Q226 -158 235 -146.5 Q244 -135 254.5 -119 Q265 -103 275 -86 Q285 -69 291 -58 Q295 -49 300.5 -34 Q306 -19 310 -2 Q314 15 317 31.5 Q320 48 320 60 L320 65 Z M210 459 Q210 463 205 463 Q201 463 196 461.5 Q191 460 187 459 Q182 457 170.5 452.5 Q159 448 146 441.5 Q133 435 120.5 428.5 Q108 422 101 418 Q93 413 85 408 Q77 403 69 397 Q57 386 57 373 Q57 366 63.5 357 Q70 348 79 337 L123 294 Q125 292 135 283 Q145 274 156.5 264 Q168 254 179 246 Q190 238 194 238 Q196 238 196.5 241 Q197 244 197 246 L197 266 Q198 280 198.5 298.5 Q199 317 201 347 L210 459 Z M463 500 Q463 493 457 490 Q451 487 443 487 Q430 487 421 490.5 Q412 494 398 504 Q394 507 388 508 Q382 509 375 509 Q358 509 340.5 505 Q323 501 312 499 Q303 497 293.5 494 Q284 491 275.5 488 Q267 485 261 482 Q255 479 254 476 Q254 472 253 456 Q252 440 251 419 Q250 398 249 376 Q248 354 247 339 L240 263 Q238 249 236.5 235 Q235 221 235 206 Q237 199 245 194 Q250 190 255.5 187 Q261 184 266 179 L287 165 Q298 157 310.5 146.5 Q323 136 333.5 123.5 Q344 111 351 97 Q358 83 360 68 Q361 65 361 58 Q361 37 355 13 Q349 -11 340.5 -33.5 Q332 -56 323.5 -73.5 Q315 -91 310 -98 Q305 -106 294 -123.5 Q283 -141 270 -156 Q258 -171 247.5 -186.5 Q237 -202 234 -206 Q228 -213 223.5 -220.5 Q219 -228 218 -239 Q218 -245 217 -262.5 Q216 -280 215 -302.5 Q214 -325 213 -348 Q212 -371 211 -388 Q209 -411 206.5 -449.5 Q204 -488 204 -539 Q204 -563 205 -589 Q206 -615 208 -643 Q209 -663 212 -674.5 Q215 -686 218 -692 Q221 -698 223.5 -700 Q226 -702 227 -702 L227 -698 Q227 -695 227.5 -691 Q228 -687 228 -682 Q229 -673 230 -662 Q231 -651 234 -643 Q243 -617 252 -617 Q253 -617 257 -619 Q263 -623 263 -643 Q263 -648 263 -654.5 Q263 -661 261 -667 Q260 -676 260 -687.5 Q260 -699 260 -710 Q259 -721 258 -731.5 Q257 -742 255 -748 Q251 -756 242 -762.5 Q233 -769 222 -769 Q211 -769 201 -762 Q184 -751 173.5 -708 Q163 -665 163 -584 L163 -577 Q163 -501 169.5 -425.5 Q176 -350 176 -272 L174 -260 Q172 -262 168 -263 Q164 -264 159 -266 L154 -266 Q145 -266 145 -259 Q146 -254 151.5 -250.5 Q157 -247 160 -243 Q174 -227 177.5 -214 Q181 -201 181 -180 Q181 -172 180.5 -155 Q180 -138 180 -110 Q180 -84 181 -50.5 Q182 -17 184 26 L190 148 Q190 153 190.5 156.5 Q191 160 191 163 Q191 175 189 177 Q187 179 185 181 Q180 185 155 207 Q130 229 101 256.5 Q72 284 47 311.5 Q22 339 16 354 Q9 369 9 383 Q9 405 29 419 Q34 423 38 425.5 Q42 428 47 431 Q56 437 73.5 446.5 Q91 456 111.5 466.5 Q132 477 151.5 486.5 Q171 496 183 501 Q195 506 201.5 509 Q208 512 211 515 Q214 518 215 521 Q216 524 218 529 L232 737 Q232 752 228 757 Q223 765 223 775 Q223 789 235 797 Q241 799 243 799 Q254 799 262.5 790 Q271 781 273 775 Q277 766 277 746 Q277 729 274.5 705 Q272 681 268 653 Q263 622 261.5 595 Q260 568 259 552 Q259 549 258.5 545 Q258 541 258 537 Q258 531 259 530 Q259 527 261 527 L265 527 L292 537 Q311 544 335 544 L339 544 Q353 543 364.5 543.5 Q376 544 387 542 Q398 540 407 537 Q416 534 424 526 Q430 521 438 514 Q446 507 457 507 Q463 507 463 500 Z " />
<glyph glyph-name="percent" unicode="&#x25;" horiz-adv-x="723" d="M239 411 Q239 415 238.5 420 Q238 425 235 430 Q227 429 220.5 427.5 Q214 426 206 426 Q191 426 183.5 433 Q176 440 171.5 448 Q167 456 164.5 463 Q162 470 158 470 Q152 470 145 461.5 Q138 453 131 441.5 Q124 430 119 419 Q114 408 113 403 Q106 382 101 358.5 Q96 335 96 312 Q96 302 97.5 291.5 Q99 281 103.5 272.5 Q108 264 116 258.5 Q124 253 136 253 Q152 253 167.5 263 Q183 273 195.5 287.5 Q208 302 217 319 Q226 336 231 350 Q235 361 237 379.5 Q239 398 239 411 Z M569 42 Q569 48 567 56.5 Q565 65 561.5 73 Q558 81 552 86.5 Q546 92 538 92 Q531 92 525.5 84.5 Q520 77 516 67 Q512 57 509 47 Q506 37 505 33 Q502 22 498.5 12.5 Q495 3 493 -9 Q492 -19 491.5 -29.5 Q491 -40 491 -52 Q491 -59 492 -70.5 Q493 -82 498 -82 Q502 -82 509 -75 Q516 -68 523.5 -59.5 Q531 -51 537.5 -42.5 Q544 -34 546 -31 Q569 1 569 42 Z M230 454 Q230 457 227.5 463.5 Q225 470 221 476.5 Q217 483 213 488.5 Q209 494 206 494 Q200 494 200 490 Q200 486 202 484.5 Q204 483 204 477 Q204 472 203.5 468.5 Q203 465 203 461 Q203 453 208 451.5 Q213 450 220 450 Q222 450 226 450.5 Q230 451 230 454 Z M612 53 Q612 21 602.5 -4.5 Q593 -30 575 -56 Q569 -65 559.5 -77 Q550 -89 539 -99.5 Q528 -110 515.5 -117 Q503 -124 491 -124 Q478 -124 470 -117.5 Q462 -111 458 -101 Q454 -91 452.5 -79.5 Q451 -68 451 -58 Q451 -41 454.5 -17 Q458 7 464.5 31 Q471 55 479.5 76.5 Q488 98 499 112 Q507 123 518.5 130 Q530 137 544 137 Q557 137 569.5 128 Q582 119 591.5 106.5 Q601 94 606.5 79.5 Q612 65 612 53 Z M607 599 Q607 591 603.5 584.5 Q600 578 596 572 Q562 523 531 472.5 Q500 422 474 368 Q444 308 415.5 248 Q387 188 354 130 Q337 100 319 70.5 Q301 41 284 12 Q270 -11 254.5 -37.5 Q239 -64 228 -89 Q224 -97 221 -105.5 Q218 -114 213 -122 Q209 -130 202.5 -136.5 Q196 -143 186 -143 Q178 -143 175 -136.5 Q172 -130 172 -123 Q172 -113 175.5 -101 Q179 -89 184.5 -77 Q190 -65 196 -54.5 Q202 -44 207 -36 Q256 44 302 125 Q348 206 391 289 Q403 313 416.5 340 Q430 367 444.5 394.5 Q459 422 473.5 448 Q488 474 503 496 Q511 507 517.5 519.5 Q524 532 533 543 Q534 544 539.5 553 Q545 562 544 562 Q539 562 520.5 553.5 Q502 545 480.5 534.5 Q459 524 440 514.5 Q421 505 415 502 Q385 486 353 472.5 Q321 459 289 447 Q287 445 279.5 443 Q272 441 272 437 Q272 429 273 420.5 Q274 412 274 404 Q274 384 271 364.5 Q268 345 260 327 Q252 310 238.5 289.5 Q225 269 208 251.5 Q191 234 170.5 222.5 Q150 211 129 211 Q109 211 95.5 221 Q82 231 73.5 246.5 Q65 262 61 280 Q57 298 57 315 Q57 328 58.5 343 Q60 358 63 374 Q66 390 70.5 404.5 Q75 419 81 431 Q87 443 94.5 456 Q102 469 111.5 481 Q121 493 132.5 503 Q144 513 156 518 Q160 520 163 520 Q168 520 169.5 518 Q171 516 174 515 Q177 518 179 522.5 Q181 527 183 531.5 Q185 536 189 539 Q193 542 201 542 Q215 542 228.5 528.5 Q242 515 248 504 Q253 496 257.5 480.5 Q262 465 266 460 Q267 460 284.5 468.5 Q302 477 328 490.5 Q354 504 385 519.5 Q416 535 444 549.5 Q472 564 493 575 Q514 586 521 589 Q527 592 536 597 Q545 602 555 606.5 Q565 611 574.5 614.5 Q584 618 590 618 Q598 618 602.5 612.5 Q607 607 607 599 Z " />
<glyph glyph-name="ampersand" unicode="&#x26;" horiz-adv-x="494" d="M232 68 Q232 78 223 104 Q214 130 196 176 Q176 225 155.5 261.5 Q135 298 127 309 Q121 318 117 318 Q113 318 110 311 Q106 303 101.5 277.5 Q97 252 97 217 Q97 212 97 206.5 Q97 201 98 195 Q98 184 98 169 Q98 154 100 136 Q101 118 102.5 99 Q104 80 109 61 Q117 29 130.5 19 Q144 9 153 9 Q156 9 162.5 12 Q169 15 177.5 19.5 Q186 24 194.5 29.5 Q203 35 210 40 Q219 46 227 54 Q230 57 232 68 Z M441 275 Q441 267 433 255 L406 212 Q397 199 388.5 186 Q380 173 372 164 L330 115 Q319 101 311 90.5 Q303 80 301 78 Q295 67 295 57 Q295 49 296 29.5 Q297 10 300 -9 L311 -54 Q314 -63 316 -71.5 Q318 -80 318 -86 Q318 -88 317 -89 Q314 -105 301 -105 L294 -105 Q285 -103 280.5 -93.5 Q276 -84 268 -52 L254 -2 L252 8 Q251 12 249.5 15.5 Q248 19 247 19 Q245 19 239.5 17 Q234 15 226 7 Q220 2 212 -2.5 Q204 -7 196 -11 L166 -25 Q155 -31 144 -31 Q135 -31 125 -27 Q115 -23 104 -12 Q85 5 78 24.5 Q71 44 67 75 Q64 106 64 140.5 Q64 175 63 193 Q62 206 61.5 218 Q61 230 61 241 Q61 277 66 303.5 Q71 330 82 341 Q89 348 97.5 353 Q106 358 115 358 Q135 358 153 333 Q163 319 173.5 301 Q184 283 194.5 262.5 Q205 242 214 222 Q223 202 229 186 Q236 169 239 159 Q242 149 244 144 L245 140 Q246 139 246 137.5 Q246 136 248 136 L248 142 Q248 144 248.5 147 Q249 150 249 152 Q250 162 250.5 178 Q251 194 251 217 Q252 255 254 295.5 Q256 336 256 368 L256 391 Q255 396 255 402 Q255 408 255 413 Q255 441 259 466.5 Q263 492 271 500 Q282 510 291 510 Q296 510 302 506 Q312 502 312 473 Q312 468 312 461 Q312 454 311 446 Q308 418 301 391.5 Q294 365 292 342 Q291 330 290 309 Q289 288 288 264.5 Q287 241 286 219 Q285 197 285 183 Q285 171 285 161 Q285 151 286 143 Q286 135 287 131.5 Q288 128 289 127 Q292 127 299 134.5 Q306 142 323 164 Q332 175 343.5 189 Q355 203 366.5 216.5 Q378 230 388 241.5 Q398 253 403 258 Q408 262 417 271.5 Q426 281 435 281 Q441 281 441 275 Z " />
<glyph glyph-name="quotesingle" unicode="&#x27;" horiz-adv-x="194" d="M124 653 Q124 643 120 627 Q116 612 116 594.5 Q116 577 114 552 Q112 536 110.5 515 Q109 494 106 473 Q104 462 100.5 451 Q97 440 94 438 Q92 437 91 437 L88 437 Q78 437 76.5 442 Q75 447 75 455 Q75 457 74.5 461 Q74 465 74 470 Q76 486 76 502 Q76 518 76 536 Q76 541 75 547 Q74 553 74 558 Q74 565 74 571 Q74 577 73 582 Q70 603 69 614 Q68 625 66 630 Q65 634 65 640 Q65 654 74 662 Q77 665 80 668 Q83 671 87 673 Q90 676 96 676 Q98 676 106 674 Q115 671 119.5 667 Q124 663 124 653 Z " />
<glyph glyph-name="parenleft" unicode="&#x28;" horiz-adv-x="395" d="M494 -223 Q494 -226 493 -227 Q492 -228 490 -228 Q486 -228 476 -220 Q466 -212 442 -207 Q428 -204 401.5 -198 Q375 -192 341 -179.5 Q307 -167 268.5 -146 Q230 -125 191 -92 Q161 -67 142.5 -33.5 Q124 0 113.5 36.5 Q103 73 99 110.5 Q95 148 95 182 Q95 208 96.5 231 Q98 254 100 272 Q103 303 113 353 Q123 403 140.5 460 Q158 517 182 574 Q206 631 236 676 Q243 687 256 703.5 Q269 720 284.5 735.5 Q300 751 317.5 762 Q335 773 352 773 Q362 773 368.5 767 Q375 761 379.5 752.5 Q384 744 386 735.5 Q388 727 390 722 Q392 715 393.5 707 Q395 699 395 691 Q395 680 391 675 Q382 664 376 664 Q369 664 364 676 Q359 691 356.5 705 Q354 719 349 719 Q346 719 337.5 715.5 Q329 712 317 703 Q305 694 291 678.5 Q277 663 264 639 Q251 615 234 579 Q217 543 201 502.5 Q185 462 173 420 Q161 378 157 342 Q152 297 147.5 252 Q143 207 143 163 Q143 115 150 73.5 Q157 32 177 0 Q195 -31 225 -58.5 Q255 -86 288 -108 Q321 -130 352.5 -146 Q384 -162 405 -169 Q427 -177 439.5 -182 Q452 -187 459.5 -191.5 Q467 -196 470.5 -199 Q474 -202 477 -205 Q483 -210 488.5 -214.5 Q494 -219 494 -223 Z " />
<glyph glyph-name="parenright" unicode="&#x29;" horiz-adv-x="393" d="M294 176 Q294 127 283 83 Q272 39 256.5 3 Q241 -33 225.5 -59 Q210 -85 201 -99 Q182 -127 162 -143.5 Q142 -160 113 -180 Q99 -189 95.5 -198.5 Q92 -208 90 -215 Q88 -225 81 -225 Q75 -225 71 -220 Q66 -215 66 -207 Q66 -199 72 -188 Q78 -177 93 -160 Q105 -148 129 -122 Q153 -96 178 -57.5 Q203 -19 223.5 31.5 Q244 82 249 144 Q250 159 250 173.5 Q250 188 250 202 Q250 255 244.5 304 Q239 353 230 394.5 Q221 436 210.5 467.5 Q200 499 191 517 Q172 555 153.5 587 Q135 619 119.5 643.5 Q104 668 92 684 Q80 700 74 706 Q68 711 59.5 718.5 Q51 726 41.5 733 Q32 740 23.5 746 Q15 752 10 755 Q-2 762 -2 767 Q-2 771 1.5 773 Q5 775 10 777 Q14 779 25.5 780.5 Q37 782 50 782 Q58 782 68 780 Q75 778 91 759.5 Q107 741 128 711 Q149 681 172 643 Q195 605 216 565 Q259 484 275 387 Q291 290 293 187 Q293 184 293.5 181.5 Q294 179 294 176 Z " />
<glyph glyph-name="asterisk" unicode="&#x2a;" horiz-adv-x="460" d="M163 315 Q163 320 156 320 Q150 320 139 317 Q128 314 123 312 Q116 310 109 306.5 Q102 303 94 303 L94 302 Q94 302 96 300 Q98 298 102 294 Q106 290 112 286 Q119 281 125.5 275.5 Q132 270 138 264 Q139 263 145 258 Q151 253 152 253 Q153 253 161 302 Q162 307 162.5 310 Q163 313 163 315 Z M214 195 Q214 200 213 209.5 Q212 219 210.5 230 Q209 241 207 252.5 Q205 264 203 273 Q202 276 200.5 284 Q199 292 197 292 Q197 292 195 287 Q193 281 193 276 Q193 271 191 266 L189 255 Q189 252 189 247.5 Q189 243 188 237 Q187 235 187 231 Q187 223 192 218 Q196 212 200 207 Q204 202 209 197 Q211 195 214 195 Z M428 402 Q428 397 423.5 394 Q419 391 414 390 Q408 388 405 388 L401 388 Q400 389 395 389 Q391 389 383.5 388 Q376 387 364 384 Q338 378 319 373 Q300 368 284.5 363.5 Q269 359 255.5 353.5 Q242 348 228 342 Q221 340 221 334 Q221 332 223 326 Q223 322 226 307 Q230 292 235 268 Q239 250 242.5 226.5 Q246 203 246 185 Q246 180 245.5 176 Q245 172 244 168 Q241 155 232 155 Q226 155 219.5 159 Q213 163 208 168 Q206 169 202 173 Q198 177 193 180 Q192 181 188.5 183.5 Q185 186 184 186 Q182 185 181 183 Q180 181 176 181 Q175 181 174.5 181.5 Q174 182 172 182 Q168 183 165 183.5 Q162 184 157 186 Q146 191 146 200 Q146 204 148 212 Q149 215 149 219 Q149 222 146 225 Q144 226 143 227 Q142 228 140 230 Q136 233 123.5 244 Q111 255 97 268 Q83 281 71 292.5 Q59 304 58 308 Q57 310 57 313 Q57 319 61 321 Q65 323 70 325 L78 328 Q83 330 92 333 Q101 336 111.5 339.5 Q122 343 132 346.5 Q142 350 148 352 Q152 353 156.5 354.5 Q161 356 161 364 L161 375 Q160 380 159 386.5 Q158 393 157 402 Q153 433 148.5 456.5 Q144 480 140 497 Q136 514 132.5 526.5 Q129 539 127 549 Q125 558 122.5 567 Q120 576 119 584 Q119 586 118.5 587.5 Q118 589 118 591 Q118 603 128 606 Q130 606 131 606.5 Q132 607 133 607 Q149 607 151 596 Q153 585 156 575.5 Q159 566 162 556 Q163 551 167 539 Q171 527 175.5 513.5 Q180 500 184 486.5 Q188 473 190 464 Q195 444 197 439 L200 457 Q202 468 204 481.5 Q206 495 210 512 Q214 528 219 544.5 Q224 561 229 575.5 Q234 590 237.5 601 Q241 612 243 617 L233 605 Q228 599 224 597 Q220 595 212 585 Q204 575 199 571.5 Q194 568 190 563 L181 557 Q176 557 176 563 Q176 567 180 573 Q184 579 189 586 Q194 594 198.5 598.5 Q203 603 208 611 Q217 626 231.5 644 Q246 662 254 676 Q260 686 266 692.5 Q272 699 279 699 Q281 699 285 697 Q294 692 294 687 Q294 684 293 681 Q292 678 290 673 Q288 668 283 654.5 Q278 641 272.5 623.5 Q267 606 261 586.5 Q255 567 251 550 Q247 533 241 506 Q235 479 229 453 Q223 427 218.5 407 Q214 387 214 384 L214 378 L214 375 Q214 373 216 373 Q219 373 221 374 Q226 376 233.5 379 Q241 382 249 386 Q267 394 288 400 Q298 402 311.5 405.5 Q325 409 338.5 412.5 Q352 416 364 418.5 Q376 421 384 422 Q386 422 388.5 422.5 Q391 423 393 423 Q421 423 427 406 Q428 405 428 402 Z " />
<glyph glyph-name="plus" unicode="&#x2b;" horiz-adv-x="566" d="M581 146 Q581 142 574 142 Q572 141 565 141 Q547 141 514 144 Q481 147 443 150 Q424 151 409.5 153 Q395 155 379.5 156.5 Q364 158 346 159 Q328 160 303 160 Q295 160 286 160 Q277 160 267 159 Q238 158 214 158 Q190 158 189 153 Q188 150 187.5 136.5 Q187 123 186 105 Q185 87 184.5 68 Q184 49 183 36 Q182 30 182 23 Q182 16 182 8 L182 -23 Q182 -46 181 -64.5 Q180 -83 175 -90 Q166 -102 157 -102 Q147 -102 147 -87 Q147 -82 148 -78 Q149 -73 149 -68.5 Q149 -64 149 -59 Q149 -44 146.5 -32 Q144 -20 143 -3 L143 7 Q143 18 143.5 34.5 Q144 51 144.5 68.5 Q145 86 145.5 102 Q146 118 146 129 Q146 140 145 142 Q144 147 143 149 Q142 151 137 151 Q132 151 120 148 Q106 145 82 141.5 Q58 138 44 138 L36 138 Q29 139 22 142.5 Q15 146 15 157 Q17 169 25 173 Q33 177 56 179 Q68 180 81 182.5 Q94 185 105.5 187 Q117 189 126 190.5 Q135 192 139 193 Q145 193 147.5 197.5 Q150 202 150 216 L150 228 Q150 233 149.5 240.5 Q149 248 149 256 Q149 264 149.5 273.5 Q150 283 150 293 Q150 313 149.5 332 Q149 351 148 365 Q146 381 144.5 399 Q143 417 143 434 Q143 447 144.5 457 Q146 467 150 472 Q158 482 164 482 Q174 482 174 462 Q175 445 176 434 Q177 423 181 409 Q182 402 183.5 387 Q185 372 186.5 353.5 Q188 335 188.5 316 Q189 297 189 281 Q189 249 189.5 224.5 Q190 200 193 198 L198 198 Q208 198 232 199.5 Q256 201 287 201 Q296 201 305 200.5 Q314 200 323 200 Q347 198 365 196.5 Q383 195 399.5 193 Q416 191 434 188.5 Q452 186 476 183 Q490 181 510 175 Q530 169 550 165 Q564 162 572.5 156.5 Q581 151 581 146 Z " />
<glyph glyph-name="comma" unicode="&#x2c;" horiz-adv-x="226" d="M133 -3 Q133 -5 132.5 -9.5 Q132 -14 131 -15 Q129 -21 129 -24 Q129 -27 128 -31 Q127 -35 124.5 -42.5 Q122 -50 116 -65 Q106 -89 95 -111.5 Q84 -134 69 -155 Q63 -163 55.5 -172.5 Q48 -182 41 -189.5 Q34 -197 27 -202 Q20 -207 16 -207 Q12 -207 10 -206 Q6 -205 6 -201 Q6 -198 10.5 -190.5 Q15 -183 21 -174 Q27 -165 33 -156 Q39 -147 42 -142 Q46 -135 51.5 -123 Q57 -111 62 -97.5 Q67 -84 70.5 -71 Q74 -58 74 -47 L75 -37 Q75 -17 73 -10 Q71 -3 71 6 L71 13 Q71 18 72 23.5 Q73 29 76 33 Q79 36 84 41 Q89 46 96 46 Q98 46 101.5 45.5 Q105 45 107 45 Q118 45 125 32.5 Q132 20 132 10 Q132 8 132.5 4 Q133 0 133 -3 Z " />
<glyph glyph-name="hyphen" unicode="&#x2d;" horiz-adv-x="351" d="M291 147 Q291 142 285 137 Q279 132 263 130 Q238 128 214 122.5 Q190 117 165 117 L148 117 Q136 117 131 113 Q128 111 121 109.5 Q114 108 106 108 Q96 108 86 110 Q77 113 67 121 Q57 129 57 140 Q57 143 57.5 148 Q58 153 59.5 158 Q61 163 63 166.5 Q65 170 70 170 Q78 169 92 165.5 Q106 162 126 161 Q137 160 147 160 Q157 160 168 160 Q175 160 182 160 Q189 160 196 161 Q207 162 219 162.5 Q231 163 242 163 Q250 163 255.5 163 Q261 163 265 161 Q270 159 279.5 157 Q289 155 291 147 Z " />
<glyph glyph-name="period" unicode="&#x2e;" horiz-adv-x="226" d="M142 8 Q142 -2 131 -13 Q109 -35 93 -35 Q85 -35 79 -29 Q73 -23 73 -14 Q73 -10 73.5 -6 Q74 -2 74 2 Q74 8 73 10 Q72 13 72 17 Q72 25 78 29.5 Q84 34 94 41 Q105 49 116 49 Q130 49 133 36 Q135 28 138.5 21.5 Q142 15 142 8 Z " />
<glyph glyph-name="slash" unicode="&#x2f;" horiz-adv-x="301" d="M416 699 Q416 686 391 644 Q378 621 361.5 593 Q345 565 328 537 Q304 495 277.5 450 Q251 405 224.5 359.5 Q198 314 173.5 270 Q149 226 129 187 Q107 145 84.5 100.5 Q62 56 40.5 13 Q19 -30 1 -68.5 Q-17 -107 -30 -138 Q-45 -174 -58 -209 Q-71 -244 -81 -273 Q-82 -277 -86 -287.5 Q-90 -298 -95 -309.5 Q-100 -321 -106 -329.5 Q-112 -338 -117 -338 Q-122 -338 -124.5 -333 Q-127 -328 -127 -320 L-127 -316 Q-125 -305 -122.5 -293.5 Q-120 -282 -118 -274 Q-112 -242 -99 -206.5 Q-86 -171 -75 -142 Q-64 -113 -53 -84.5 Q-42 -56 -28 -28 Q-14 0 -1 27 Q12 54 25 81 Q40 114 53.5 138.5 Q67 163 79.5 185 Q92 207 104.5 229.5 Q117 252 132 281 Q156 329 176.5 364 Q197 399 214 428 Q230 454 245.5 480 Q261 506 273 534 Q284 560 296 580 Q308 600 320 617 Q331 634 342 649.5 Q353 665 363 682 Q373 699 381.5 705.5 Q390 712 398 712 Q404 712 408.5 709 Q413 706 415 703 Q416 702 416 699 Z " />
<glyph glyph-name="zero" unicode="0" horiz-adv-x="440" d="M396 212 Q396 182 387.5 150 Q379 118 361 86 Q343 54 316 23.5 Q289 -7 253 -32 Q230 -48 209.5 -54.5 Q189 -61 171 -61 Q146 -61 126 -51.5 Q106 -42 92 -29.5 Q78 -17 69.5 -5 Q61 7 60 12 Q53 37 53 68 Q53 94 57.5 126 Q62 158 72 203 Q87 275 100.5 326.5 Q114 378 124 389 L142 408 Q150 416 155 417 Q160 419 164.5 420 Q169 421 174 421 Q187 421 187 411 Q187 407 182 397 Q176 385 167 365.5 Q158 346 149 323 Q140 300 131.5 275 Q123 250 117 227 Q110 198 105 165.5 Q100 133 100 101 Q100 61 109 31 Q117 7 130.5 -3.5 Q144 -14 161 -14 Q175 -14 189.5 -8.5 Q204 -3 220 6 Q239 16 261 38.5 Q283 61 302.5 88 Q322 115 335.5 143 Q349 171 352 192 L352 206 Q352 243 331.5 269.5 Q311 296 283 321 Q257 344 241 362 Q225 380 225 396 Q225 401 229 409 Q234 419 242 419 Q250 419 256 411.5 Q262 404 266 399 Q267 397 269 395 Q271 393 273 391 Q276 389 279.5 386.5 Q283 384 287 381 Q295 375 305 367.5 Q315 360 326 350 Q347 331 366 306.5 Q385 282 392 250 Q396 234 396 212 Z " />
<glyph glyph-name="one" unicode="1" horiz-adv-x="286" d="M224 485 Q224 481 220.5 475.5 Q217 470 211 460 Q206 452 200.5 441 Q195 430 189 409.5 Q183 389 176.5 357.5 Q170 326 163 277 Q157 235 151.5 189.5 Q146 144 141.5 102 Q137 60 134.5 25.5 Q132 -9 132 -29 Q132 -44 133 -48 Q139 -81 153 -81 Q158 -81 163 -77 Q165 -75 168 -75 Q172 -75 172 -83 Q172 -88 170.5 -94 Q169 -100 164 -104 Q161 -107 153.5 -110 Q146 -113 138 -113 Q124 -113 109 -99.5 Q94 -86 90 -46 Q89 -38 89 -30 Q89 -22 89 -12 Q89 23 93 66 Q97 109 102 150 Q107 191 111.5 224 Q116 257 118 271 Q122 302 126.5 333.5 Q131 365 137 392 Q143 419 150 439.5 Q157 460 166 469 Q194 497 208 497 Q212 497 217 494 Q224 490 224 485 Z " />
<glyph glyph-name="two" unicode="2" horiz-adv-x="482" d="M556 43 Q556 37 541 30 Q529 23 503 13 Q477 3 446 -8 Q415 -19 383 -28.5 Q351 -38 327 -44 Q304 -50 276.5 -53.5 Q249 -57 221 -57 Q192 -57 166.5 -52.5 Q141 -48 124 -37 Q102 -23 92 -3 Q82 17 82 38 Q82 61 93 81 Q101 95 118.5 120 Q136 145 155.5 172 Q175 199 191.5 223.5 Q208 248 214 261 Q222 279 230.5 299 Q239 319 239 338 Q239 355 228 366 Q217 378 201 383 Q185 388 166 388 Q153 388 139 386 Q125 384 111 381 Q81 375 64 375 Q39 375 39 386 Q41 395 43.5 396 Q46 397 60 405 Q82 416 115.5 427 Q149 438 181 438 Q199 438 212 434 Q242 426 266.5 408 Q291 390 291 352 Q291 344 290 335.5 Q289 327 286 318 Q278 289 265.5 262.5 Q253 236 239 213 Q225 190 211 170 Q197 150 186 135 Q169 112 154 84.5 Q139 57 139 36 Q139 20 150 12 Q182 -9 246 -9 Q263 -9 282.5 -7.5 Q302 -6 322 -1 Q351 5 382.5 12.5 Q414 20 441 26.5 Q468 33 487 38 Q506 43 512 45 Q520 48 527 49 Q534 50 539 50 Q556 50 556 43 Z " />
<glyph glyph-name="three" unicode="3" horiz-adv-x="423" d="M374 111 Q374 102 370.5 90.5 Q367 79 359 65 Q352 54 346 43.5 Q340 33 334 24 Q318 -1 301 -17.5 Q284 -34 255 -44 L184 -66 Q170 -69 159.5 -71 Q149 -73 141 -73 L135 -73 Q126 -72 126 -66 Q126 -64 129 -59 Q132 -53 140 -46.5 Q148 -40 160 -35 Q172 -30 188.5 -23.5 Q205 -17 221.5 -9.5 Q238 -2 252.5 7.5 Q267 17 274 28 Q282 41 290 53 Q298 65 304 79 Q306 85 308 91.5 Q310 98 310 104 Q310 117 302 122 Q294 128 281 136 Q268 144 254 155 Q241 166 231.5 178.5 Q222 191 220 206 L220 215 Q220 244 235 277 Q250 310 273 343 Q298 380 299 394 Q298 402 286 405 Q274 408 263 408 Q253 408 240 409 Q227 410 210 410 Q202 410 193 409.5 Q184 409 175 408 Q150 406 136 404.5 Q122 403 109 400.5 Q96 398 79 395 Q62 392 32 387 Q0 381 -13 381 Q-21 381 -27 382.5 Q-33 384 -33 388 Q-33 392 -20 397 Q1 406 16.5 412.5 Q32 419 46.5 424.5 Q61 430 77 434.5 Q93 439 114 445 Q144 453 170 457.5 Q196 462 222 462 Q247 462 270 458 Q281 456 289 455.5 Q297 455 304 453 Q311 451 316 450.5 Q321 450 325 448 Q340 442 347 428 Q351 421 351 411 Q351 395 341 374 Q331 353 314 325 Q303 307 293.5 292 Q284 277 277 265 Q272 256 269 248 Q266 240 266 233 Q266 231 266.5 229 Q267 227 267 225 Q270 217 278.5 208.5 Q287 200 298 192 Q309 183 321.5 175 Q334 167 346 158 Q362 147 370 132 Q372 127 373 122.5 Q374 118 374 111 Z " />
<glyph glyph-name="four" unicode="4" horiz-adv-x="460" d="M424 360 Q424 311 406 239 Q388 164 377.5 98.5 Q367 33 367 -9 Q367 -29 369.5 -54.5 Q372 -80 376.5 -105.5 Q381 -131 385.5 -154.5 Q390 -178 395 -195 Q401 -221 401 -232 Q401 -238 400 -239 Q399 -244 396 -244 Q392 -244 388 -240 Q383 -235 378 -226 Q373 -217 368 -206 Q363 -195 359.5 -183 Q356 -171 351 -162 Q342 -142 333 -102 Q324 -62 324 -5 L324 12 Q324 66 332.5 119 Q341 172 353 209 Q362 240 362 253 Q362 268 354 268 Q351 268 345 262 L332 247 Q324 239 313.5 229 Q303 219 289 210 Q271 200 248.5 188.5 Q226 177 203.5 167.5 Q181 158 160.5 152 Q140 146 126 146 L118 146 Q96 151 83 172 Q77 180 71 200 Q65 220 60 242.5 Q55 265 51.5 286 Q48 307 47 317 Q45 341 45.5 361.5 Q46 382 45 392 L45 409 Q45 433 47.5 452.5 Q50 472 58 480 Q64 487 69 487 Q78 487 81 473 L84 451 Q84 443 84.5 434 Q85 425 86 414 Q88 392 89.5 368.5 Q91 345 94 325 Q97 301 100.5 278.5 Q104 256 108.5 239 Q113 222 118.5 210.5 Q124 199 132 198 L138 198 Q147 198 160 201 Q173 204 186.5 208.5 Q200 213 212.5 218 Q225 223 231 226 Q253 238 266.5 248 Q280 258 290 268 Q300 278 308.5 289.5 Q317 301 325 312 Q331 320 336.5 329.5 Q342 339 347 349 L366 388 Q374 404 382 414 Q390 424 398 424 Q399 424 400 423.5 Q401 423 403 423 Q424 414 424 360 Z " />
<glyph glyph-name="five" unicode="5" horiz-adv-x="649" d="M700 365 Q700 358 684 355 L670 355 Q655 355 639 357 Q623 359 609 359 L602 359 Q588 359 558 365 Q528 371 480 371 Q466 371 449 370 Q432 369 414 367 Q375 362 340.5 355.5 Q306 349 279.5 343.5 Q253 338 236.5 333.5 Q220 329 218 327 Q214 323 214 320 Q214 315 224 311 Q228 309 243.5 300 Q259 291 277.5 277.5 Q296 264 314.5 247 Q333 230 344 211 Q359 185 369 156.5 Q379 128 379 95 Q379 62 367 23 Q348 -34 327 -61 Q306 -88 288 -98 Q270 -107 243 -111.5 Q216 -116 201 -116 Q194 -116 185 -116 Q176 -116 168 -114.5 Q160 -113 154.5 -109.5 Q149 -106 149 -100 Q149 -95 151 -93 Q153 -89 158.5 -88.5 Q164 -88 182 -85 Q189 -84 201.5 -82.5 Q214 -81 228 -78 Q242 -75 255.5 -69 Q269 -63 279 -52 Q287 -43 295.5 -27.5 Q304 -12 311 7 Q318 26 322.5 47.5 Q327 69 327 90 Q327 101 326 111.5 Q325 122 322 132 Q314 157 299 177 Q284 197 266.5 213.5 Q249 230 231.5 242.5 Q214 255 203 264 Q189 275 182 280.5 Q175 286 169 286 Q163 286 154 277 Q147 269 137 260 Q127 251 117 241 Q107 231 99 221 Q91 211 88 202 Q86 192 80 185.5 Q74 179 69 179 Q64 179 60.5 185.5 Q57 192 57 203 Q57 228 70.5 247.5 Q84 267 101 292 Q110 304 117 311.5 Q124 319 129 324 Q134 329 137 333 Q140 337 141 343 Q141 351 134.5 363 Q128 375 128 392 Q128 399 131 408 Q137 431 149 450.5 Q161 470 181 474 Q186 475 189 475.5 Q192 476 195 476 Q206 476 211 472.5 Q216 469 221 464 Q228 459 228 449 Q228 436 212 427 Q198 418 187 411 Q176 404 176 391 Q176 389 176.5 388 Q177 387 177 385 Q179 374 180.5 369.5 Q182 365 187 365 Q189 365 192.5 366 Q196 367 201 369 Q208 372 224 378 Q240 384 261 390.5 Q282 397 307 402.5 Q332 408 358 410 Q424 416 479 416 Q495 416 508.5 416 Q522 416 534 414 Q565 411 598.5 406 Q632 401 664 389 Q700 376 700 365 Z " />
<glyph glyph-name="six" unicode="6" horiz-adv-x="419" d="M326 26 Q325 47 308.5 61.5 Q292 76 269 76 Q252 76 229 63 Q206 50 186 23 Q182 18 179 12 Q176 6 173 0 Q171 -6 168.5 -12.5 Q166 -19 162 -26 L152 -44 Q151 -45 151 -47 Q151 -51 157 -55 Q161 -57 173.5 -59 Q186 -61 201 -61 Q212 -61 223.5 -60 Q235 -59 244 -57 Q254 -55 267.5 -48 Q281 -41 293.5 -30.5 Q306 -20 314.5 -6.5 Q323 7 325 21 Q325 23 325.5 24 Q326 25 326 26 Z M374 32 Q374 28 374 24.5 Q374 21 372 16 Q370 6 368 -2 Q366 -10 364 -18 Q359 -34 351 -44 Q343 -56 326.5 -67.5 Q310 -79 278 -93 Q244 -109 204 -109 Q181 -109 162 -103 Q137 -95 118.5 -86 Q100 -77 86.5 -63.5 Q73 -50 62.5 -31.5 Q52 -13 43 14 Q30 54 30 95 Q30 125 36.5 157 Q43 189 54 227 Q63 259 68.5 276.5 Q74 294 81 314 Q88 335 100.5 363 Q113 391 124 406 Q149 442 168 457.5 Q187 473 204 476 L221 479 Q226 480 229.5 480.5 Q233 481 238 481 Q244 481 250 479 Q256 477 261 471 Q266 465 271 459 Q276 453 279 445 Q282 440 282 433 Q282 422 275 409 Q273 405 266.5 394 Q260 383 252 383 Q248 383 247 391 Q245 402 238 416 Q231 430 214 430 Q199 428 176 407 Q153 386 130 334 Q119 308 111.5 284 Q104 260 99 237 Q94 214 89.5 194 Q85 174 82 155 Q77 127 77 104 Q77 78 81 53.5 Q85 29 92 9 Q103 -22 113 -28 Q115 -29 118 -29 Q127 -29 132 -12 Q135 -2 141.5 12 Q148 26 158 41 Q168 56 181 71 Q194 86 210 97 Q227 110 244.5 115.5 Q262 121 278 121 Q298 121 315.5 113.5 Q333 106 346 93 Q359 80 366.5 64 Q374 48 374 32 Z " />
<glyph glyph-name="seven" unicode="7" horiz-adv-x="561" d="M708 191 Q708 186 691 177 Q682 172 675 169.5 Q668 167 660.5 165.5 Q653 164 643.5 162 Q634 160 618 157 Q602 154 576.5 150.5 Q551 147 524 144 Q497 141 472 139 Q447 137 432 136 Q400 134 382 134 Q364 134 359 129 Q354 124 347.5 106.5 Q341 89 328 44 Q322 21 311 -11.5 Q300 -44 288 -78.5 Q276 -113 265 -144.5 Q254 -176 247 -196 Q241 -216 230.5 -245 Q220 -274 209 -302 Q198 -330 187 -352 Q176 -374 169 -380 Q160 -386 155 -386 Q146 -386 146 -373 Q146 -370 146.5 -367 Q147 -364 148 -360 Q151 -353 156.5 -338.5 Q162 -324 169 -306.5 Q176 -289 182.5 -271.5 Q189 -254 192 -239 Q195 -224 205.5 -193.5 Q216 -163 228 -127.5 Q240 -92 252 -58 Q264 -24 271 -2 Q283 36 289.5 68.5 Q296 101 296 115 L296 121 Q295 125 284 125 Q275 125 259.5 123 Q244 121 223 119 Q199 116 186 116 Q178 116 174 118.5 Q170 121 170 129 L170 135 Q171 144 178.5 150.5 Q186 157 196 161 Q206 165 217 167 Q228 169 238 170 Q248 171 260.5 171.5 Q273 172 284.5 172.5 Q296 173 305.5 175.5 Q315 178 320 183 Q330 194 335.5 221.5 Q341 249 352 307 Q361 352 361 384 Q361 434 338 450 Q326 458 300.5 466 Q275 474 238 474 Q220 474 198.5 471.5 Q177 469 153 462 Q140 459 117 451.5 Q94 444 69.5 436.5 Q45 429 23 423 Q1 417 -9 417 Q-15 417 -21.5 420 Q-28 423 -28 428 Q-28 434 -20 442 Q-3 458 33.5 474 Q70 490 121 502 Q151 509 185.5 514.5 Q220 520 254 520 Q276 520 296.5 516.5 Q317 513 335 505 Q372 488 392 461 Q412 434 412 393 Q412 383 410.5 372.5 Q409 362 407 350 Q398 312 385.5 271 Q373 230 373 188 Q374 177 386 177 Q391 177 398.5 178 Q406 179 417 180 Q439 182 473 182.5 Q507 183 545 187 Q583 190 614.5 193 Q646 196 675 197 L682 197 Q708 197 708 191 Z " />
<glyph glyph-name="eight" unicode="8" horiz-adv-x="487" d="M306 -84 Q306 -67 297.5 -49 Q289 -31 277.5 -15 Q266 1 255 13 Q244 25 239 30 Q227 42 223 42 Q222 42 216 38 Q213 37 208 27 Q203 17 197 2.5 Q191 -12 184.5 -28.5 Q178 -45 172 -58 Q167 -68 163.5 -81 Q160 -94 160 -108 Q160 -111 160.5 -114.5 Q161 -118 161 -121 Q162 -132 168.5 -145.5 Q175 -159 184 -170.5 Q193 -182 205 -190.5 Q217 -199 230 -199 Q252 -195 272 -166 Q292 -137 303 -100 Q306 -93 306 -84 Z M511 437 Q511 426 505 419 Q502 414 490 400.5 Q478 387 461.5 367.5 Q445 348 425.5 325 Q406 302 387 280 Q368 257 347 232 Q326 207 308.5 184.5 Q291 162 279 145.5 Q267 129 266 125 Q264 120 260.5 113 Q257 106 257 98 Q257 88 262 81 Q266 75 280.5 60 Q295 45 310 24.5 Q325 4 337 -20 Q349 -44 349 -68 Q349 -71 348.5 -74 Q348 -77 348 -80 Q344 -105 333.5 -129 Q323 -153 309.5 -172.5 Q296 -192 282 -206 Q268 -220 257 -226 Q240 -235 223 -235 Q206 -235 189 -226.5 Q172 -218 156 -199 Q141 -180 132 -156.5 Q123 -133 123 -106 Q123 -76 135 -43 Q152 5 168 34.5 Q184 64 186 71 Q187 74 188 76.5 Q189 79 189 81 Q189 86 186.5 91 Q184 96 176 104 Q170 110 151 132 Q132 154 110 183 Q88 212 67.5 244.5 Q47 277 39 303 Q29 337 29 361 Q29 382 35 394 Q41 406 46 414 Q69 446 101 467 Q133 488 179 501 Q205 508 227.5 510.5 Q250 513 270 513 Q300 513 323 508 Q347 502 363 491 Q379 480 382 471 L382 467 Q382 464 379 464 Q375 464 366.5 466 Q358 468 345 468 L341 468 Q329 468 315 470 Q301 472 283 472 Q268 472 249.5 469.5 Q231 467 208 461 Q157 447 119 424.5 Q81 402 70 383 Q66 376 66 362 Q66 342 76.5 316.5 Q87 291 107 265 Q119 247 136 225.5 Q153 204 168.5 185 Q184 166 196.5 152.5 Q209 139 212 137 Q216 134 218 134 Q222 134 226 139 Q230 144 239 156 Q245 165 258.5 182.5 Q272 200 288 220.5 Q304 241 319 260 Q334 279 344 290 Q367 316 383 334.5 Q399 353 421 376 Q441 396 462 414.5 Q483 433 496 443 Q500 447 504 447 Q511 447 511 437 Z " />
<glyph glyph-name="nine" unicode="9" horiz-adv-x="359" d="M194 386 Q194 392 190.5 400 Q187 408 186 416 Q184 427 175.5 439.5 Q167 452 158 452 Q149 452 135 448 Q121 444 107 428 Q86 407 86 387 Q86 367 110 364 Q113 363 116.5 363 Q120 363 123 363 Q144 363 163 369 Q182 375 189 378 Q194 380 194 386 Z M296 233 Q296 198 289.5 150.5 Q283 103 265 40 Q244 -31 230 -75 Q216 -119 206 -145.5 Q196 -172 190.5 -187.5 Q185 -203 181 -217 Q173 -249 173 -264 Q173 -267 174 -271.5 Q175 -276 181 -276 Q187 -274 192 -271.5 Q197 -269 200 -269 Q203 -269 203 -274 L203 -278 Q201 -289 195 -298.5 Q189 -308 172 -308 L167 -308 Q153 -306 144 -294 Q135 -282 135 -257 Q135 -232 145 -198 Q153 -171 166 -132 Q179 -93 192.5 -51.5 Q206 -10 218 29 Q230 68 236 95 Q244 129 248.5 165.5 Q253 202 253 231 Q253 249 251.5 262.5 Q250 276 245 283 Q242 289 237 297.5 Q232 306 226 314.5 Q220 323 212.5 329 Q205 335 196 336 Q188 334 166 330 Q144 326 120 326 Q108 326 96.5 327.5 Q85 329 75 334 Q58 342 53 353.5 Q48 365 48 377 Q48 385 49 392.5 Q50 400 51 405 Q53 419 58 428.5 Q63 438 71 449 Q83 466 105 483 Q127 500 151 502 L157 502 Q180 502 198 486 Q216 470 222 450 Q227 429 230.5 407.5 Q234 386 239 378 Q244 370 258 361.5 Q272 353 278 338 Q283 330 289.5 304.5 Q296 279 296 233 Z " />
<glyph glyph-name="colon" unicode="&#x3a;" horiz-adv-x="321" d="M147 -31 Q147 -26 145.5 -20 Q144 -14 144 -10 Q143 -6 139 -6 Q133 -6 131 -13 Q128 -20 127.5 -19.5 Q127 -19 125 -29 Q124 -30 124 -33 Q124 -38 127.5 -42.5 Q131 -47 136 -47 Q140 -47 143 -44 Q147 -40 147 -31 Z M182 238 Q182 243 179 248 Q175 258 164 258 Q162 258 154 256 Q139 252 139 243 Q139 235 147.5 228.5 Q156 222 165 222 Q174 222 178 227 Q182 232 182 238 Z M182 -33 Q182 -47 171 -61 Q155 -82 129 -82 Q120 -82 111 -78.5 Q102 -75 94 -67 Q82 -56 82 -43 Q82 -32 88.5 -22.5 Q95 -13 99 -7 Q105 2 109 10.5 Q113 19 117 24 Q132 45 146 45 Q153 45 163 40 Q173 35 176 28 Q179 21 179 12 L179 -2 Q178 -3 178 -5 Q178 -12 180 -18.5 Q182 -25 182 -33 Z M210 235 Q210 215 195 203 Q187 196 173.5 192 Q160 188 146 188 Q129 188 114.5 196.5 Q100 205 98 227 Q97 232 97 235.5 Q97 239 97 243 Q97 273 109 284 Q121 295 134 297 Q136 298 140 298 Q154 298 173 290.5 Q192 283 199 270 Q204 262 207 253 Q210 244 210 235 Z " />
<glyph glyph-name="semicolon" unicode="&#x3b;" horiz-adv-x="318" d="M216 -62 Q216 -100 190 -157 Q170 -199 145.5 -227.5 Q121 -256 106 -270 Q95 -281 82.5 -287.5 Q70 -294 62 -294 Q58 -294 56 -292 Q51 -289 51 -285 Q51 -279 62 -270 Q66 -267 75 -259 Q84 -251 94 -240.5 Q104 -230 113 -218 Q122 -206 128 -194 Q137 -176 143 -164 Q149 -152 153 -143.5 Q157 -135 159 -128 Q161 -121 163 -113 L172 -67 Q172 -66 172.5 -65 Q173 -64 173 -63 Q173 -54 167 -43 Q161 -32 149 -27 Q141 -23 136.5 -16 Q132 -9 132 -1 Q132 10 141 12 Q144 13 151 13 Q164 13 181.5 6 Q199 -1 208 -23 Q216 -39 216 -62 Z M171 246 Q171 230 168 214 Q166 199 164.5 189.5 Q163 180 158 178 L154 178 Q149 178 142 182 Q135 186 132 196 Q128 209 126.5 219.5 Q125 230 122 238 Q120 243 119.5 247.5 Q119 252 119 256 L119 266 Q119 271 118 274 Q118 275 117.5 275.5 Q117 276 117 278 Q117 286 123 289 Q129 292 137 292 Q148 290 154 286 Q160 282 166 272 Q171 264 171 246 Z " />
<glyph glyph-name="less" unicode="&#x3c;" horiz-adv-x="396" d="M340 -15 Q340 -20 339 -21 Q335 -27 333 -27 Q331 -27 329 -26 Q303 -17 272.5 -5.5 Q242 6 221 9 Q213 10 197.5 12.5 Q182 15 164.5 18 Q147 21 131 25 Q115 29 108 32 Q103 34 95 36 Q87 38 78 39.5 Q69 41 60.5 42.5 Q52 44 46 45 Q43 46 34.5 49 Q26 52 25 55 Q24 57 24 62 Q24 70 27.5 79 Q31 88 35 92 Q44 101 53.5 106.5 Q63 112 77.5 119 Q92 126 113 136.5 Q134 147 166 167 Q173 171 195 184.5 Q217 198 242 212.5 Q267 227 287.5 238.5 Q308 250 312 250 Q326 248 332 244.5 Q338 241 338 231 Q338 229 337.5 225.5 Q337 222 336 217 Q332 198 326 196.5 Q320 195 316 191 Q310 185 300 181 Q290 177 278.5 172.5 Q267 168 255.5 163.5 Q244 159 236 153 Q228 147 213.5 142.5 Q199 138 191 134 Q169 123 156 115.5 Q143 108 121 95 Q117 93 108.5 88.5 Q100 84 100 77 Q100 74 106.5 72 Q113 70 122.5 68.5 Q132 67 142.5 65 Q153 63 161 61 Q178 56 206 49 Q234 42 262 33.5 Q290 25 311.5 17 Q333 9 336 2 Q340 -6 340 -15 Z " />
<glyph glyph-name="equal" unicode="&#x3d;" horiz-adv-x="747" d="M695 122 Q695 117 685 110 Q675 103 652 98 Q637 95 612 90.5 Q587 86 554.5 82.5 Q522 79 484 75.5 Q446 72 404 70 Q363 68 318.5 65.5 Q274 63 234 60 Q194 57 163 54.5 Q132 52 118 51 L107 51 Q90 51 82.5 56 Q75 61 75 67 Q75 70 76 72 Q78 76 85.5 79.5 Q93 83 102.5 87 Q112 91 123 94 Q134 97 142 100 Q154 104 170.5 108.5 Q187 113 202 117 Q217 121 229.5 124 Q242 127 247 127 Q255 127 255 119 Q255 114 250 112.5 Q245 111 245 108 Q245 106 251.5 105 Q258 104 267 104 L274 104 Q281 104 310.5 105.5 Q340 107 377 108.5 Q414 110 449.5 112.5 Q485 115 504 117 Q528 120 546 120 Q557 120 566 119.5 Q575 119 583 119 Q597 119 611 122 Q626 125 643 126.5 Q660 128 673 128 Q686 128 692 126 Q695 124 695 122 Z M642 299 Q642 289 635 276.5 Q628 264 617 255 Q608 248 594 238.5 Q580 229 563.5 220 Q547 211 530 204 Q513 197 500 194 Q490 192 488 192 Q482 192 482 195 Q482 199 490 205 Q498 211 506 214 Q512 217 521.5 222 Q531 227 540.5 232.5 Q550 238 557.5 242.5 Q565 247 568 249 Q571 251 574.5 255 Q578 259 578 263 Q578 268 568 268 Q561 268 556 267 Q542 265 517.5 261.5 Q493 258 464 254 Q435 250 406 245.5 Q377 241 356 236 Q334 231 297 223 Q260 215 222 206.5 Q184 198 152 191 Q120 184 108 182 Q91 178 73 174 Q55 170 44 170 Q37 170 34 173 Q30 177 30 181 Q30 187 44.5 196 Q59 205 107 218 Q133 225 168.5 233.5 Q204 242 240.5 250 Q277 258 310.5 265.5 Q344 273 366 278 Q388 283 412.5 288 Q437 293 461 297.5 Q485 302 506.5 305 Q528 308 544 309 Q565 311 582.5 312.5 Q600 314 613 314 Q627 314 635 311 Q642 308 642 299 Z " />
<glyph glyph-name="greater" unicode="&#x3e;" horiz-adv-x="396" d="M341 144 Q341 129 306.5 108 Q272 87 209 43 Q192 31 172 16 Q152 1 134.5 -12.5 Q117 -26 104 -36.5 Q91 -47 87 -50 Q83 -53 83 -56 Q83 -62 96 -62 Q100 -62 102 -61 L108 -61 Q113 -61 117.5 -62 Q122 -63 122 -65 Q122 -66 118 -67 Q110 -69 99 -72.5 Q88 -76 78 -76 L72 -76 Q58 -71 54.5 -66.5 Q51 -62 50 -51 Q50 -41 62.5 -25 Q75 -9 95 5 Q105 12 118.5 22 Q132 32 147 43.5 Q162 55 177.5 65.5 Q193 76 207 85 Q225 97 236.5 104 Q248 111 248 116 Q248 120 241 121 Q227 125 208.5 130 Q190 135 172 146 Q165 150 156 155.5 Q147 161 138.5 165.5 Q130 170 124 173.5 Q118 177 116 177 Q97 184 78 196 Q59 208 54 226 Q53 231 52.5 235 Q52 239 52 242 Q52 246 54 254 Q56 262 63 262 Q69 262 82.5 253 Q96 244 113 231 Q130 218 147.5 204 Q165 190 179 180 Q205 163 228.5 159 Q252 155 268 155 Q284 155 293 158.5 Q302 162 311 163 L318 163 Q324 163 328.5 161 Q333 159 338 151 Q341 148 341 144 Z " />
<glyph glyph-name="question" unicode="&#x3f;" horiz-adv-x="419" d="M225 1 Q225 -5 221.5 -7.5 Q218 -10 218 -15 Q218 -17 219 -19 Q220 -23 221 -28.5 Q222 -34 222 -41 Q222 -51 218.5 -60.5 Q215 -70 206 -72 Q203 -72 200.5 -72.5 Q198 -73 196 -73 Q186 -73 179 -66.5 Q172 -60 172 -47 Q174 -33 181 -20.5 Q188 -8 193 -6 Q201 -1 209 4 Q217 9 221 9 Q224 9 224 7 Q225 5 225 1 Z M374 585 Q374 563 352 533.5 Q330 504 281 455 Q250 425 226.5 405.5 Q203 386 185.5 372.5 Q168 359 156 348 Q144 337 135 322 Q127 310 127 300 Q127 289 135 286 Q143 283 150 281 Q159 279 165.5 276.5 Q172 274 180 271 Q188 268 200 265.5 Q212 263 233 260 Q256 257 265 250.5 Q274 244 280 236 Q285 229 289 221.5 Q293 214 293 203 Q293 198 292 189 Q291 180 288.5 171.5 Q286 163 282.5 156.5 Q279 150 275 150 Q271 150 271 158 L271 170 Q271 172 270 178.5 Q269 185 265 192 Q261 199 253.5 205.5 Q246 212 233 215 Q221 218 199 221.5 Q177 225 154.5 233 Q132 241 113.5 256 Q95 271 89 295 Q87 300 87 303.5 Q87 307 87 311 Q87 330 97 347.5 Q107 365 123.5 380.5 Q140 396 160 411.5 Q180 427 200 442 Q210 450 230 466.5 Q250 483 270 502.5 Q290 522 305.5 542 Q321 562 322 578 Q320 591 300.5 595 Q281 599 260 599 Q254 599 248 599 Q242 599 237 598 Q226 598 206.5 596.5 Q187 595 165.5 592 Q144 589 122.5 584 Q101 579 86 572 Q69 564 59 556 Q49 548 43 542 Q37 536 33 532.5 Q29 529 24 529 Q13 529 9 532 Q5 535 5 546 Q5 565 30 584 Q53 603 92.5 618.5 Q132 634 190 639 Q207 641 223.5 642 Q240 643 256 643 Q294 643 323.5 636 Q353 629 365 611 Q374 599 374 585 Z " />
<glyph glyph-name="at" unicode="&#x40;" horiz-adv-x="630" d="M377 171 Q377 174 376.5 176.5 Q376 179 375 182 Q373 192 373 203 L373 213 Q373 219 369 220.5 Q365 222 360 224 Q355 224 346 209.5 Q337 195 328 177 Q314 147 304.5 113 Q295 79 295 59 Q295 52 296 49 Q297 42 303 42 Q308 42 314 47 Q320 52 325 57 Q329 61 333 67 Q337 73 341 80 L355 102 Q358 107 362.5 111.5 Q367 116 368 124 Q369 132 370.5 141.5 Q372 151 376 163 Q377 166 377 171 Z M585 -43 Q585 -54 582.5 -71 Q580 -88 575 -109 Q570 -130 561.5 -153 Q553 -176 541 -198 Q527 -225 503.5 -254 Q480 -283 446.5 -308 Q413 -333 368 -350.5 Q323 -368 267 -370 L258 -370 Q205 -370 162 -348 Q119 -326 88.5 -288 Q58 -250 41 -198 Q24 -146 24 -86 Q24 -31 31.5 23 Q39 77 52.5 127 Q66 177 85 221.5 Q104 266 126 304 Q149 342 169 367 Q189 392 207 408 Q216 416 225 422.5 Q234 429 242 434 Q250 440 257.5 444 Q265 448 273 453 Q296 467 326.5 474.5 Q357 482 389 482 Q412 482 436 477.5 Q460 473 482 463 Q528 442 547.5 403.5 Q567 365 567 326 Q567 321 566.5 316 Q566 311 565 306 Q560 264 540.5 219.5 Q521 175 489 137 Q463 106 448.5 95 Q434 84 422 84 Q415 84 412 85 Q409 86 406 87 Q403 88 401 88 Q395 90 394 90 Q390 90 386 84 Q381 75 371 61.5 Q361 48 348.5 35 Q336 22 322.5 12.5 Q309 3 297 3 Q280 3 270.5 18 Q261 33 261 60 Q261 73 264 93 Q267 115 276.5 142.5 Q286 170 298.5 196 Q311 222 324.5 242.5 Q338 263 350 270 Q362 278 374 278 Q388 278 395.5 269.5 Q403 261 405 255 Q408 249 409 249 Q410 249 415 255 Q417 259 423.5 264 Q430 269 438 269 Q443 269 450 264 Q458 257 458 243 Q458 234 455.5 224.5 Q453 215 449 207 Q445 199 440 189 Q435 179 430 168 Q422 150 422 139 Q422 135 423 133 Q426 126 431 126 Q436 126 441 131 Q446 136 451 141 Q454 145 466 162.5 Q478 180 491 204 Q504 228 515 254.5 Q526 281 528 302 L528 316 Q528 337 522 359 Q516 381 499.5 399 Q483 417 455 429 Q427 441 383 441 L376 441 Q339 440 306 426 Q273 412 244.5 388.5 Q216 365 192.5 334.5 Q169 304 151 271 Q133 238 119.5 201 Q106 164 95.5 128 Q85 92 79 58.5 Q73 25 70 -2 Q67 -37 67 -66 Q67 -99 70.5 -125 Q74 -151 79 -168 Q81 -174 85 -184.5 Q89 -195 95 -209 Q121 -264 163 -294 Q205 -324 265 -324 Q283 -324 301 -321 Q364 -312 406 -283.5 Q448 -255 474.5 -220 Q501 -185 514.5 -149 Q528 -113 533 -90 Q539 -65 539 -56 L539 -51 Q538 -44 533 -38 L530 -34 Q524 -27 524 -21 Q524 -9 541 -9 L546 -9 Q563 -11 572 -15.5 Q581 -20 584 -31 Q584 -33 584.5 -36 Q585 -39 585 -43 Z " />
<glyph glyph-name="A" unicode="A" horiz-adv-x="486" d="M321 338 Q321 349 318 370 Q312 405 312 431.5 Q312 458 309 481 Q308 486 307.5 503.5 Q307 521 305.5 540.5 Q304 560 301 576 Q298 592 292 594 Q287 594 277.5 577.5 Q268 561 252 539 Q244 527 234.5 509.5 Q225 492 216 472 Q207 452 199.5 432 Q192 412 186 396 Q180 380 171 359 Q162 338 153 319 Q144 300 137.5 285.5 Q131 271 131 268 L131 263 Q131 260 132 260 Q134 260 137.5 263.5 Q141 267 146 270 Q150 273 160.5 278.5 Q171 284 185 290 Q199 296 215 301.5 Q231 307 246 310 Q277 316 288.5 318 Q300 320 310 322 Q321 325 321 338 Z M496 274 Q496 267 491 261 Q486 255 475 254 L471 254 Q463 254 457.5 256.5 Q452 259 446.5 262 Q441 265 435.5 267.5 Q430 270 422 271 Q404 273 396 274 Q388 275 384 275 Q380 275 376 272 Q371 269 371 249 Q371 238 372 223.5 Q373 209 374 195 Q374 178 374.5 148 Q375 118 375 89 Q375 70 375 54.5 Q375 39 374 31 Q371 11 369 -14 Q367 -39 363 -52 Q358 -66 352 -66 Q344 -66 344 -40 Q344 -27 343.5 -4.5 Q343 18 342 45.5 Q341 73 339.5 102.5 Q338 132 337 160 Q336 188 335 207.5 Q334 227 332.5 239.5 Q331 252 329.5 259 Q328 266 327 270 Q324 276 308 276 Q299 276 288.5 274.5 Q278 273 271 271 Q265 270 253.5 268 Q242 266 228.5 263 Q215 260 202.5 256 Q190 252 182 248 Q162 236 150.5 233 Q139 230 132.5 229.5 Q126 229 122.5 227 Q119 225 115 215 Q111 205 106.5 196.5 Q102 188 97.5 178.5 Q93 169 88 157 Q83 145 79 129 Q75 113 68 90 Q61 67 54 44.5 Q47 22 41.5 4 Q36 -14 36 -18 Q36 -20 36.5 -23 Q37 -26 37 -29 Q37 -35 35 -43 Q33 -51 26 -61 Q18 -73 10 -73 Q-2 -73 -7 -47 Q-8 -43 -8 -33 Q-8 -21 -6 -6.5 Q-4 8 -1 22 Q2 36 5.5 48.5 Q9 61 11 69 Q23 115 33 163.5 Q43 212 48 244 Q51 260 56 283 Q61 306 66 330 Q71 354 76.5 376.5 Q82 399 87 414 Q91 429 98.5 451 Q106 473 113.5 495 Q121 517 128 535.5 Q135 554 140 561 Q150 576 165.5 592 Q181 608 196 608 Q210 606 210 594 Q210 585 202 574 Q193 562 178.5 548.5 Q164 535 156 506 Q152 491 147 473.5 Q142 456 137.5 438.5 Q133 421 128.5 406.5 Q124 392 121 384 Q115 369 111 350 Q107 331 107 325 L107 323 Q107 322 108 322 Q110 322 116 332.5 Q122 343 128 358 Q131 367 136.5 379 Q142 391 147.5 404 Q153 417 158 429.5 Q163 442 166 451 Q168 460 176.5 477.5 Q185 495 196 515 Q207 535 218 553.5 Q229 572 237 583 Q253 606 262 616.5 Q271 627 280 637 Q289 647 299.5 651.5 Q310 656 319 656 Q327 656 332 641.5 Q337 627 337 607 L337 593 Q337 576 340.5 563.5 Q344 551 344 533 Q344 523 345.5 508 Q347 493 349 476 Q351 459 353 441 Q355 423 356 408 Q359 377 362.5 354.5 Q366 332 369 328 Q373 324 385 322 Q397 320 412 315 Q433 308 449.5 302 Q466 296 486 288 Q496 285 496 274 Z " />
<glyph glyph-name="B" unicode="B" horiz-adv-x="345" d="M261 204 Q261 215 247.5 223.5 Q234 232 222 239 Q215 243 203 251 Q191 259 179 267.5 Q167 276 157 283.5 Q147 291 144 293 Q142 295 140.5 297 Q139 299 134 299 Q132 297 131.5 285 Q131 273 130.5 254 Q130 235 129 211.5 Q128 188 126 164 Q124 140 120 115.5 Q116 91 111.5 70.5 Q107 50 103.5 35 Q100 20 98 14 Q96 6 93.5 1 Q91 -4 91 -6 Q91 -8 94 -8 Q99 -8 111 2.5 Q123 13 136 25 Q149 37 164 58 Q179 79 196 95 Q204 103 213.5 117.5 Q223 132 232 147 Q241 162 248.5 175.5 Q256 189 259 196 Q261 202 261 204 Z M96 495 Q96 511 94.5 521 Q93 531 88 531 Q82 531 78.5 526 Q75 521 67 512 Q50 490 43 466.5 Q36 443 36 420 Q36 392 43 369 Q50 346 57 332 Q69 309 75.5 296 Q82 283 87 282 Q91 282 91 296 Q91 301 91 305.5 Q91 310 90 315 L90 326 Q90 337 90.5 356 Q91 375 91.5 396 Q92 417 93 436 Q94 455 95 466 Q96 474 96 481.5 Q96 489 96 495 Z M223 586 Q223 592 221 592 Q217 594 209 594 Q198 594 185.5 592 Q173 590 165 588 Q148 582 141.5 567 Q135 552 135 531 Q135 523 135.5 515.5 Q136 508 137 500 Q138 492 138.5 485 Q139 478 139 471 Q139 458 138 442 Q137 426 137 420 Q137 412 140 412 Q142 412 145 417 Q148 422 152 429 Q156 436 160 444.5 Q164 453 168 459 Q177 472 186.5 498 Q196 524 206 540 Q214 552 218.5 565 Q223 578 223 586 Z M305 207 Q305 193 298.5 175 Q292 157 277 134 Q257 103 234 75 Q211 47 188 23 Q165 -1 145 -19.5 Q125 -38 111 -49 Q92 -64 79.5 -73 Q67 -82 59 -82 Q52 -82 48 -73 Q46 -69 46 -66 Q46 -61 49.5 -56 Q53 -51 57 -46 Q61 -41 64.5 -36.5 Q68 -32 68 -27 Q68 -26 67.5 -25 Q67 -24 67 -23 Q65 -14 61.5 -4 Q58 6 58 23 Q58 29 59 37 Q60 45 62 55 Q66 73 69 96.5 Q72 120 74.5 143 Q77 166 79 185 Q81 204 81 213 Q81 218 81.5 221.5 Q82 225 82 230 Q82 242 78.5 254.5 Q75 267 63 281 Q55 290 44.5 303.5 Q34 317 23.5 336 Q13 355 6 378 Q-1 401 -1 428 Q-1 433 -1 437 Q-1 441 0 446 Q3 476 13.5 498.5 Q24 521 36 536.5 Q48 552 58.5 561.5 Q69 571 72 575 Q77 584 81 593 Q85 602 87 610 Q89 615 96 621 Q103 627 111 627 Q114 627 118 625 Q123 622 125.5 619.5 Q128 617 133 617 Q138 617 150 623 Q160 629 178.5 635 Q197 641 216 641 Q236 641 247 633 Q265 618 265 588 Q265 556 248 524 Q240 509 225.5 485 Q211 461 196.5 435.5 Q182 410 171 386.5 Q160 363 160 349 Q160 347 160.5 345.5 Q161 344 161 342 Q165 331 176 321 Q187 311 201 301.5 Q215 292 230.5 283.5 Q246 275 260 267 Q277 257 291 243.5 Q305 230 305 207 Z " />
<glyph glyph-name="C" unicode="C" horiz-adv-x="440" d="M484 -5 Q484 -8 481 -14 Q477 -19 467.5 -25 Q458 -31 440 -36 Q416 -43 394 -47.5 Q372 -52 349 -55.5 Q326 -59 300.5 -61 Q275 -63 244 -64 Q238 -65 232.5 -65 Q227 -65 221 -65 Q192 -65 162.5 -61.5 Q133 -58 107.5 -49 Q82 -40 62.5 -25.5 Q43 -11 33 11 Q22 37 15.5 71.5 Q9 106 9 146 Q9 181 14.5 219 Q20 257 32 294 Q49 345 67.5 388.5 Q86 432 103 465 Q120 498 133.5 519.5 Q147 541 153 547 Q166 560 191 573.5 Q216 587 245 587 L251 587 Q281 585 292 566.5 Q303 548 310 522 Q314 509 316.5 497 Q319 485 319 472 Q319 459 315.5 446 Q312 433 303 419 Q289 393 277 384 Q265 375 260 375 Q258 375 257 376 Q254 377 254 380 Q254 383 257 387.5 Q260 392 264 399 Q269 407 272.5 417 Q276 427 276 443 Q276 458 272 474 Q270 482 269 489 Q268 496 267 503 L261 524 Q255 538 243 538 Q238 538 235 537 Q226 534 214.5 528.5 Q203 523 190 511.5 Q177 500 163 480.5 Q149 461 134 430 Q119 399 108 373 Q97 347 89 322 Q81 297 75.5 272.5 Q70 248 67 221 Q64 199 62 174.5 Q60 150 60 126 Q60 90 67.5 58.5 Q75 27 96 12 Q120 -6 161.5 -11.5 Q203 -17 243 -17 Q261 -17 277 -16.5 Q293 -16 306 -16 Q332 -15 352 -15 Q372 -15 387 -14 Q415 -14 427 -11 Q438 -8 454 -4 Q470 0 478 0 L482 0 Q484 -2 484 -5 Z " />
<glyph glyph-name="D" unicode="D" horiz-adv-x="556" d="M162 536 Q162 536 160 542 Q157 548 141.5 553 Q126 558 107 564 Q101 566 95.5 566 Q90 566 84 566 Q67 566 50.5 561.5 Q34 557 26 552 Q19 548 19 534 Q19 523 22.5 509.5 Q26 496 31 482 Q40 456 51.5 428.5 Q63 401 74 376 L112 283 Q120 264 127 250 Q134 236 139 236 Q146 236 147.5 250 Q149 264 149 290 Q149 302 148 320.5 Q147 339 146 359 Q145 379 144 399 Q143 419 143 435 L143 444 Q144 474 146.5 496 Q149 518 153 522 Q162 531 162 536 Z M533 353 Q533 317 510 271 Q487 225 431 163 Q396 125 361.5 87 Q327 49 295 17 Q264 -14 241.5 -32.5 Q219 -51 209 -51 Q187 -49 171 -38 Q155 -27 150 -13 Q146 -4 146 6 Q146 14 147.5 19.5 Q149 25 151 30 Q153 37 156.5 44 Q160 51 168 53 L168 52 Q168 51 169 50 Q170 47 170 37 Q170 35 169.5 33 Q169 31 169 29 Q168 27 167.5 24.5 Q167 22 167 17 Q167 5 176 -3 Q186 -12 194 -12 Q205 -12 221 4 Q228 11 252.5 36 Q277 61 307.5 93 Q338 125 368 157.5 Q398 190 417 213 Q449 251 470 282.5 Q491 314 491 339 Q491 344 489 352 Q485 365 480.5 375.5 Q476 386 467 396.5 Q458 407 443.5 418 Q429 429 405 443 Q382 457 356 469.5 Q330 482 307.5 492 Q285 502 268.5 508 Q252 514 247 514 L242 514 Q232 514 232 508 Q232 503 236 496 Q238 491 239 485.5 Q240 480 240 472 Q240 466 237 466 Q237 466 233 468 Q228 471 225 474 Q222 477 218 482 Q215 484 212 486.5 Q209 489 204 491 Q202 492 198 492 Q189 492 186 483 Q182 474 182 450 Q182 446 182 441.5 Q182 437 183 432 Q184 414 185 387.5 Q186 361 187.5 333 Q189 305 190 277.5 Q191 250 191 229 L191 204 Q191 192 191.5 179.5 Q192 167 192 155 Q192 150 191.5 145.5 Q191 141 191 136 Q189 96 180 93 L176 93 Q168 93 161 103 Q158 106 155.5 110 Q153 114 150 119 L139 143 Q132 156 122.5 178 Q113 200 102 225 Q91 250 80 275 Q69 300 59 320 Q49 340 36 366.5 Q23 393 11 420 Q-2 448 -11.5 472 Q-21 496 -25 512 Q-28 524 -28 535 Q-28 559 -16 578 Q-4 597 20 605 Q34 610 46 612 Q58 614 70 614 Q87 614 106 610.5 Q125 607 150 600 Q171 594 199 585.5 Q227 577 258 566 Q289 555 322 541.5 Q355 528 386 512 Q449 479 485.5 449 Q522 419 530 380 Q533 366 533 353 Z " />
<glyph glyph-name="E" unicode="E" horiz-adv-x="401" d="M516 621 Q516 615 501.5 604 Q487 593 477 588 L452 575 Q395 546 340.5 524 Q286 502 230 471 Q203 456 182.5 446.5 Q162 437 147 429 Q132 421 123 413 Q114 405 109 394 Q104 382 100 365.5 Q96 349 96 335 Q96 320 102 314 Q112 306 138.5 298 Q165 290 201 283 Q219 279 234 277 Q249 275 260 273 Q285 270 292 266 Q301 261 301 251 Q301 240 292 234 Q281 229 257 217 Q233 205 213 191 Q205 186 195 179 Q185 172 176 164 Q167 156 161 147.5 Q155 139 155 132 Q155 125 159 121 Q172 108 185.5 101.5 Q199 95 222 88 Q233 84 243.5 81.5 Q254 79 262 77 Q264 76 268 75 Q272 74 272 70 Q267 61 255 61 Q253 61 249.5 61 Q246 61 242 62 Q234 63 219.5 65.5 Q205 68 190 72 Q175 76 162 81.5 Q149 87 144 94 Q138 103 132 111.5 Q126 120 124 131 Q123 134 123 141 Q123 149 126.5 158 Q130 167 140 177 Q154 191 167 199.5 Q180 208 191 215 L209 225 Q217 231 217 235 Q217 242 200 247 Q192 248 183 249.5 Q174 251 165 253 Q156 255 145 257.5 Q134 260 124 262 Q114 264 106 265.5 Q98 267 95 267 Q90 267 87.5 259 Q85 251 85 238 L85 227 L89 182 Q91 168 95.5 151.5 Q100 135 108 118 Q123 83 148.5 58.5 Q174 34 200 31 L214 31 Q234 31 246.5 35.5 Q259 40 266 45 Q269 47 272 49.5 Q275 52 278 54 Q282 58 290 59 Q299 59 299 47 Q299 41 298 38 Q296 30 286.5 20.5 Q277 11 262 5 Q257 3 252.5 1 Q248 -1 242 -3 Q220 -11 198 -11 Q178 -11 157 -2 Q141 6 125 18.5 Q109 31 94.5 50 Q80 69 69 94.5 Q58 120 52 153 Q46 187 44 211 Q42 235 42 251 L42 275 Q42 283 39 288 L31 294 Q23 302 15.5 311.5 Q8 321 8 333 Q8 342 10.5 353 Q13 364 19 376 Q25 388 35 400 Q45 412 61 422 Q77 432 101 446.5 Q125 461 150.5 475.5 Q176 490 199 502.5 Q222 515 235 521 Q289 546 331 562.5 Q373 579 417 596 Q439 605 451 609.5 Q463 614 470.5 616 Q478 618 482 619 Q486 620 491 621 Q503 624 509 624 Q516 624 516 621 Z " />
<glyph glyph-name="F" unicode="F" horiz-adv-x="403" d="M476 341 Q476 336 473 330 Q470 324 463 320 Q451 315 419.5 302.5 Q388 290 328 276 Q298 270 269 263 Q240 256 215.5 250 Q191 244 173.5 240 Q156 236 150 236 Q137 235 121.5 233 Q106 231 104 226 Q102 222 99 213.5 Q96 205 96 198 Q96 193 99 192 Q102 190 104 189 Q106 188 106 185 Q106 179 101 170 Q96 159 91 128 Q86 97 86 60 Q86 53 86 46.5 Q86 40 87 33 Q89 8 91 -20.5 Q93 -49 93 -72 Q93 -90 90.5 -102 Q88 -114 82 -116 Q76 -118 73 -118 Q52 -118 46 -78 Q42 -53 41.5 -18.5 Q41 16 40 81 L40 89 Q40 132 43.5 165.5 Q47 199 49 206 Q50 208 50 211 Q50 222 36 227 Q25 231 25 252 Q25 260 27.5 270.5 Q30 281 37 293 Q45 307 51.5 317.5 Q58 328 64 337.5 Q70 347 74.5 357.5 Q79 368 83 382 Q94 423 110 474 Q126 525 158 580 Q174 607 192.5 627 Q211 647 228 660.5 Q245 674 259 681.5 Q273 689 279 692 Q301 703 314 703 Q327 703 336 694 Q341 688 341 676 Q341 665 337 652.5 Q333 640 330 633 Q325 623 308 595 Q291 567 262 542 Q233 518 214.5 499 Q196 480 189 475 Q187 473 186 473 Q184 473 184 475 Q184 482 197 499 Q208 513 225 528.5 Q242 544 254 561 Q263 574 271 588.5 Q279 603 286 615.5 Q293 628 297 637.5 Q301 647 301 651 Q299 656 297 656 Q293 656 278 644 Q272 640 262 633 Q252 626 240 614 Q228 602 214 584 Q200 566 187 541 Q174 516 162.5 487 Q151 458 141.5 430 Q132 402 125 377 Q118 352 115 336 Q111 319 109 309 Q107 299 107 292 Q107 279 116 275 Q122 272 129 272 Q143 272 183 285 Q215 295 255.5 304 Q296 313 331 321 Q365 328 379 333.5 Q393 339 404 339 L409 339 Q422 339 440.5 344.5 Q459 350 469 351 Q476 351 476 341 Z " />
<glyph glyph-name="G" unicode="G" horiz-adv-x="407" d="M417 146 Q417 141 408 134.5 Q399 128 386 123 Q373 119 347 114 Q321 109 292 101 Q286 99 277 98 Q268 97 259 95.5 Q250 94 244 92.5 Q238 91 238 89 Q238 84 242.5 78 Q247 72 255 68 Q265 64 279.5 53.5 Q294 43 298 23 Q299 16 299.5 10.5 Q300 5 300 0 Q300 -12 297 -22 Q294 -32 289 -43 Q283 -55 268.5 -66.5 Q254 -78 221 -78 Q212 -78 201.5 -77 Q191 -76 178 -73 Q151 -67 121 -51 Q91 -35 66 -6.5 Q41 22 25 63.5 Q9 105 9 161 Q9 169 9 176.5 Q9 184 10 192 Q16 256 29.5 317 Q43 378 58.5 428.5 Q74 479 88 515.5 Q102 552 107 568 Q118 600 124.5 614.5 Q131 629 134 635 Q137 642 142 654 Q147 666 154 678 Q161 690 170 698.5 Q179 707 190 707 Q202 705 210.5 697.5 Q219 690 219 674 Q219 660 213.5 644 Q208 628 203 625 Q199 623 196 623 Q192 623 188.5 624 Q185 625 183 625 Q180 625 179 624 Q177 623 172 612 Q167 601 160.5 585.5 Q154 570 146.5 551.5 Q139 533 133 516 Q127 499 119.5 474.5 Q112 450 104 423 Q96 396 88.5 368 Q81 340 75 318 Q70 295 65.5 272 Q61 249 58 229.5 Q55 210 53.5 196 Q52 182 51 178 Q50 176 50 170 Q50 155 55.5 123.5 Q61 92 78 56 Q97 13 130 -10 Q163 -33 199 -37 Q204 -38 208 -38 Q212 -38 216 -38 Q239 -38 248 -31 Q257 -24 257 -13 Q257 -9 256 -7 Q253 7 248 21.5 Q243 36 228 48 Q220 55 215 61.5 Q210 68 205.5 73 Q201 78 196 81 Q191 84 183 84 Q166 86 157 87 Q148 88 138 93 Q131 96 131 103 Q131 117 151 125 Q159 128 167 128.5 Q175 129 183 129 L196 129 Q206 129 210 130 Q216 131 231.5 133 Q247 135 265.5 136.5 Q284 138 302 140 Q320 142 332 143 Q355 145 372 144.5 Q389 144 398 147 Q403 148 406.5 149 Q410 150 412 150 Q417 150 417 146 Z " />
<glyph glyph-name="H" unicode="H" horiz-adv-x="387" d="M391 181 Q391 175 385.5 167.5 Q380 160 369 155 Q361 152 350.5 149.5 Q340 147 329 145 Q318 143 309 141.5 Q300 140 296 138 Q289 135 284.5 133.5 Q280 132 280 124 L280 120 Q281 112 283 86 Q285 60 285 28 Q285 10 284 -8.5 Q283 -27 281 -44 Q276 -73 270.5 -80.5 Q265 -88 260 -88 Q258 -88 256 -87.5 Q254 -87 252 -87 Q249 -87 249 -84 Q249 -74 251.5 -64 Q254 -54 254 -42 Q254 -21 252 10 Q250 41 248 67 Q246 94 244.5 110 Q243 126 237 126 Q234 126 223.5 123.5 Q213 121 199.5 117.5 Q186 114 172 111.5 Q158 109 149 109 Q138 109 126 109.5 Q114 110 103 110 Q95 110 90 109.5 Q85 109 83 107 Q77 104 77 93 Q77 86 80 82 Q87 71 98.5 57.5 Q110 44 110 28 Q110 23 108 23 Q106 23 102 27 Q98 31 91 35 Q87 37 84.5 39 Q82 41 80 41 Q75 41 74 24 L74 5 Q74 4 73.5 2 Q73 0 73 -2 Q73 -38 81 -38 Q83 -38 85.5 -36.5 Q88 -35 92 -35 Q96 -35 99.5 -39 Q103 -43 105 -56 Q105 -61 96.5 -69.5 Q88 -78 81 -84 Q77 -88 73 -88 Q65 -88 57.5 -80 Q50 -72 46 -55 Q44 -44 43 -27.5 Q42 -11 41 5.5 Q40 22 39.5 36 Q39 50 38 58 Q37 65 36 69.5 Q35 74 33 78 Q31 82 27.5 86 Q24 90 18 97 Q3 113 3 126 Q3 132 8 137 Q11 140 16.5 141.5 Q22 143 27.5 145.5 Q33 148 37 151.5 Q41 155 41 162 Q42 179 42 195 Q42 211 42 229 Q42 348 44 432.5 Q46 517 46 565 L46 595 Q45 618 42 651 Q39 684 39 712 Q39 732 41.5 747 Q44 762 51 765 Q57 768 63 768 Q76 768 83 757.5 Q90 747 90 733 Q89 715 85.5 697.5 Q82 680 82 660 Q82 649 83 626 Q84 603 84.5 572 Q85 541 85.5 505 Q86 469 86 433 Q86 401 85.5 370 Q85 339 83 313 Q81 268 80 238 Q79 208 79 190 Q79 174 79.5 166 Q80 158 81 156 Q83 152 87 149 Q91 146 105 146 Q110 146 116.5 146 Q123 146 132 148 Q148 151 165 154 Q182 157 196.5 160 Q211 163 221 166 Q231 169 233 171 Q236 172 236 179 Q236 186 234 196.5 Q232 207 230 222 Q228 232 226.5 258 Q225 284 223 313.5 Q221 343 219.5 370.5 Q218 398 217 412 Q215 426 215 440.5 Q215 455 215 469 Q215 485 215 497.5 Q215 510 216 516 L216 521 Q216 534 212 534 Q210 534 205 527 Q201 521 196 514.5 Q191 508 187 508 Q185 508 185 514 Q185 516 185 518.5 Q185 521 186 524 Q190 548 195.5 572 Q201 596 210 600 Q218 604 221 604 Q231 604 235 585 Q236 577 239 558 Q242 539 245 513.5 Q248 488 251 457.5 Q254 427 255 395 Q256 363 259 326.5 Q262 290 265 259 Q268 228 270.5 206.5 Q273 185 275 183 Q278 177 284 177 Q291 177 306 181 Q320 184 339.5 189 Q359 194 373 194 Q380 194 383 193 Q391 190 391 181 Z " />
<glyph glyph-name="I" unicode="I" horiz-adv-x="169" d="M134 -52 Q134 -54 130 -60 Q122 -68 105 -71 Q102 -72 97 -72 Q80 -72 62.5 -57.5 Q45 -43 43 -8 L43 7 Q43 45 48 95 Q53 145 53 187 L53 224 Q53 258 54 290 Q55 322 55 357 Q55 362 54.5 366 Q54 370 54 375 Q54 425 52.5 458.5 Q51 492 49.5 514 Q48 536 46.5 550.5 Q45 565 44 577 Q43 590 41.5 601.5 Q40 613 39 623 L39 628 Q39 637 41 644 Q43 651 49 654 Q55 656 58 656 Q73 656 80.5 641 Q88 626 88 612 L88 606 Q88 593 89 568.5 Q90 544 91.5 513.5 Q93 483 94.5 449.5 Q96 416 96 386 L96 376 Q96 343 95 309 Q94 275 93.5 242.5 Q93 210 92 181 Q91 152 90 131 Q89 91 86.5 70 Q84 49 82 34 Q81 29 81 23.5 Q81 18 81 12 Q81 -5 84.5 -21 Q88 -37 99 -42 Q112 -47 116 -47 Q118 -47 121 -45 L125 -45 Q129 -45 130 -47 Q134 -48 134 -52 Z " />
<glyph glyph-name="J" unicode="J" horiz-adv-x="331" d="M250 12 Q248 -22 238 -54 Q228 -86 215.5 -112.5 Q203 -139 190.5 -157.5 Q178 -176 170 -183 Q156 -195 124.5 -202 Q93 -209 61 -209 Q56 -209 52.5 -208.5 Q49 -208 45 -208 Q27 -207 5.5 -202.5 Q-16 -198 -36.5 -191.5 Q-57 -185 -74 -177 Q-91 -169 -100 -160 Q-110 -151 -113.5 -143.5 Q-117 -136 -117 -129 Q-117 -123 -114.5 -118.5 Q-112 -114 -108 -109 Q-100 -101 -95 -97.5 Q-90 -94 -78 -87 Q-69 -82 -57 -75 Q-45 -68 -34 -61.5 Q-23 -55 -14.5 -50.5 Q-6 -46 -2 -44 Q2 -42 3 -42 Q8 -42 8 -47 Q8 -54 -5 -60 Q-12 -64 -21.5 -71 Q-31 -78 -40.5 -85.5 Q-50 -93 -57 -101 Q-64 -109 -67 -114 Q-69 -116 -69 -121 Q-69 -129 -58 -137.5 Q-47 -146 -24 -151 Q-4 -156 19.5 -162 Q43 -168 68 -168 Q78 -168 87 -167 Q96 -166 105 -163 Q137 -153 155 -137.5 Q173 -122 181 -90 Q184 -79 187.5 -68.5 Q191 -58 194.5 -44.5 Q198 -31 200.5 -14 Q203 3 203 26 Q203 49 200.5 78.5 Q198 108 190 148 Q179 208 163.5 269 Q148 330 133 384.5 Q118 439 105 483.5 Q92 528 86 555 Q78 589 73 612.5 Q68 636 68 650 Q68 667 78 673 Q83 677 90 677 Q98 677 103.5 670.5 Q109 664 111 656 Q112 653 117.5 630.5 Q123 608 131.5 575 Q140 542 150.5 502.5 Q161 463 170.5 425.5 Q180 388 188 356.5 Q196 325 200 308 Q206 284 214.5 250.5 Q223 217 231 179.5 Q239 142 244.5 103.5 Q250 65 250 31 L250 12 Z " />
<glyph glyph-name="K" unicode="K" horiz-adv-x="499" d="M553 81 Q553 76 540.5 72.5 Q528 69 517 67 Q503 65 477 61.5 Q451 58 420 54.5 Q389 51 357 48.5 Q325 46 300 46 L294 46 Q269 46 243.5 48.5 Q218 51 194.5 55 Q171 59 150.5 64 Q130 69 117 74 Q103 80 98 80 Q91 80 90 70 Q89 65 89 57.5 Q89 50 89 41 Q89 32 89 22.5 Q89 13 88 5 Q87 -6 86.5 -20.5 Q86 -35 86 -46 Q86 -48 85.5 -51.5 Q85 -55 85 -58 Q85 -64 89 -64 Q93 -64 98.5 -58.5 Q104 -53 107 -45 Q109 -37 112 -28.5 Q115 -20 119 -20 Q122 -20 123 -22 Q127 -26 127 -34 Q127 -48 116 -67 Q109 -79 98.5 -91 Q88 -103 75 -103 Q69 -103 66 -101 Q54 -96 51 -85.5 Q48 -75 48 -62 L48 -46 Q48 -35 48.5 -21.5 Q49 -8 49 6 Q49 17 48.5 25 Q48 33 47 38 Q46 43 46 54 Q46 64 47 73.5 Q48 83 50 91 Q51 94 51 98 Q51 105 48.5 109.5 Q46 114 41 120 Q36 125 28.5 137 Q21 149 21 167 Q21 176 26 189 Q36 216 40 228.5 Q44 241 44 252 L44 265 Q44 279 43.5 297 Q43 315 38 326 Q33 341 30 372.5 Q27 404 23 440 Q18 476 16 502.5 Q14 529 12 548 Q10 575 6.5 602 Q3 629 3 643 L3 649 Q6 669 26 674 Q28 675 32 675 Q43 675 45 661 L51 578 Q53 549 56 517.5 Q59 486 64 469 Q69 452 70.5 429 Q72 406 76 386 Q84 343 89 316.5 Q94 290 96 290 Q100 290 107 296.5 Q114 303 127 311 Q141 319 171 339.5 Q201 360 242 373 Q279 385 302.5 395 Q326 405 345 405 Q351 405 353 404 Q373 401 388.5 399 Q404 397 407 383 Q408 378 408.5 375 Q409 372 409 369 Q409 359 394 348 Q383 339 371.5 332 Q360 325 354 325 Q348 325 348 332 Q348 340 355 347 Q367 357 367 366 Q367 369 366 370 Q363 373 357 373 Q345 373 322 363 Q315 360 302 355 Q289 350 273 344 Q257 338 239.5 330 Q222 322 206 312 Q190 303 172 292 Q154 281 138.5 271 Q123 261 112 252.5 Q101 244 100 240 Q98 236 98 230 Q98 226 99 222 Q100 218 102 210 Q102 208 102.5 205.5 Q103 203 103 201 Q103 193 101 186.5 Q99 180 98 169 Q97 164 96.5 160 Q96 156 96 153 Q96 139 106 135 Q114 131 133.5 119.5 Q153 108 197 100 Q222 95 256 92.5 Q290 90 322 90 Q345 90 365 91 Q385 92 398 94 Q420 97 445 99.5 Q470 102 489 102 Q505 102 513 99 Q525 95 530.5 94 Q536 93 541 91 Q553 85 553 81 Z " />
<glyph glyph-name="L" unicode="L" horiz-adv-x="447" d="M543 -59 Q543 -60 538 -65 Q527 -72 511.5 -72 Q496 -72 472 -73 Q456 -74 434 -77.5 Q412 -81 375 -81 Q356 -81 332 -79.5 Q308 -78 278 -73 Q190 -59 123.5 -19.5 Q57 20 31 93 Q19 126 14.5 166 Q10 206 10 244 Q10 289 14 325 Q18 361 21 377 Q32 431 43 471 Q54 511 63.5 538.5 Q73 566 79.5 582.5 Q86 599 89 608 Q94 627 107 627 Q111 627 116 624 Q121 622 123 619.5 Q125 617 125 611 Q125 602 116 574 Q111 559 104 534.5 Q97 510 89.5 479.5 Q82 449 76 413 Q70 377 67 339 Q65 314 63.5 290 Q62 266 62 242 Q62 192 71.5 146.5 Q81 101 108 59 Q128 29 162.5 11.5 Q197 -6 233.5 -15 Q270 -24 302 -27 Q334 -30 351 -33 Q370 -36 395.5 -40 Q421 -44 445 -47 Q469 -50 488.5 -52 Q508 -54 515 -54 Q517 -53 523 -53 Q531 -53 537 -54.5 Q543 -56 543 -59 Z " />
<glyph glyph-name="M" unicode="M" horiz-adv-x="583" d="M666 -228 Q666 -231 655 -234 Q653 -234 648.5 -234.5 Q644 -235 638 -235 Q628 -235 615 -233.5 Q602 -232 588 -227 Q574 -222 560 -213 Q546 -204 535 -189 Q520 -170 507 -145 Q494 -120 483.5 -85.5 Q473 -51 466 -6 Q459 39 458 97 Q456 212 451.5 273.5 Q447 335 442 335 Q439 335 434.5 322.5 Q430 310 423 281 Q419 264 411.5 237.5 Q404 211 394.5 184 Q385 157 374 133 Q363 109 353 99 Q329 75 308 75 Q289 75 280 97 Q270 122 259 181 Q248 240 234 331 Q220 422 216 475 Q212 528 210 550 Q209 561 208.5 575.5 Q208 590 207 603.5 Q206 617 205 627.5 Q204 638 203 641 Q201 645 199 645 Q195 645 191 627 Q189 620 185.5 597 Q182 574 177 538.5 Q172 503 167 457 Q162 411 158 359 Q154 306 150 255 Q146 204 142 158.5 Q138 113 134.5 76 Q131 39 128 15 Q123 -35 116.5 -65 Q110 -95 89 -105 Q87 -106 82 -106 Q73 -106 66 -94.5 Q59 -83 53.5 -65 Q48 -47 43.5 -25 Q39 -3 36 19 Q33 40 30 73 Q27 106 24 145.5 Q21 185 19.5 228.5 Q18 272 18 316 L18 347 Q19 393 20 420.5 Q21 448 22.5 464 Q24 480 26.5 487.5 Q29 495 32 502 Q40 518 46.5 524 Q53 530 61 530 Q67 530 74.5 527.5 Q82 525 82 517 Q82 513 81 511 Q78 505 75.5 502 Q73 499 70.5 495.5 Q68 492 66 485.5 Q64 479 62 466 Q60 450 59 411 Q58 372 58 331 Q58 305 58 282.5 Q58 260 59 245 Q60 227 60.5 212 Q61 197 62 183 Q63 169 64 155 Q65 141 67 123 Q71 88 76.5 65 Q82 42 82 40 Q85 40 87 57 Q89 74 91 97 L108 288 Q110 315 114 357.5 Q118 400 123 447 Q128 494 134 539.5 Q140 585 148 620 Q156 654 161.5 675 Q167 696 172.5 707.5 Q178 719 183.5 722.5 Q189 726 196 726 Q210 726 219.5 712 Q229 698 231 681 Q232 672 237 639.5 Q242 607 248 563 Q254 519 260.5 470 Q267 421 272 379 Q277 338 282 299.5 Q287 261 292 230 Q297 199 301.5 176.5 Q306 154 309 145 Q316 128 320 128 Q324 128 331 142 Q334 148 342 164.5 Q350 181 359 203.5 Q368 226 377 252.5 Q386 279 391 304 Q396 328 400.5 354.5 Q405 381 409 404.5 Q413 428 415 446 Q417 464 417 471 L417 476 Q417 486 422 495 Q427 504 441 504 Q455 502 462.5 485 Q470 468 473 448 Q474 438 477 413.5 Q480 389 483.5 355 Q487 321 490 280 Q493 239 495 195 Q497 151 498 114.5 Q499 78 501 47 Q503 16 506.5 -10 Q510 -36 516 -59 Q529 -105 543 -138.5 Q557 -172 586 -198 Q605 -215 619.5 -219 Q634 -223 644 -223 L658 -223 Q666 -223 666 -228 Z " />
<glyph glyph-name="N" unicode="N" horiz-adv-x="476" d="M467 582 Q467 574 464 574 Q461 574 457.5 580 Q454 586 452 590 Q450 596 449.5 600 Q449 604 444 606 Q441 606 437.5 589.5 Q434 573 429.5 547 Q425 521 420.5 488.5 Q416 456 411 424 Q406 391 396 346 Q386 301 374 255 Q362 209 350 168.5 Q338 128 329 105 Q326 97 321 80 Q316 63 309 45.5 Q302 28 292 14.5 Q282 1 270 0 Q259 1 251.5 5.5 Q244 10 237.5 19.5 Q231 29 224 45 Q217 61 208 85 Q199 110 194.5 142 Q190 174 187 209.5 Q184 245 182 280.5 Q180 316 176 348 Q172 379 169 413.5 Q166 448 163 478.5 Q160 509 158 531.5 Q156 554 155 562 Q155 565 154 570 Q153 575 151.5 580 Q150 585 147.5 588.5 Q145 592 140 592 Q138 589 132.5 577 Q127 565 120.5 549 Q114 533 108 515.5 Q102 498 99 485 Q97 479 94.5 470 Q92 461 90 451.5 Q88 442 86 433.5 Q84 425 84 421 Q84 417 86 417 Q92 420 94.5 433.5 Q97 447 104 454 Q107 457 110 457 Q114 457 114 446 Q114 443 114 439 Q114 435 112 430 Q110 423 109 414 Q108 405 107 390 Q106 375 104 352 Q102 329 98 295 Q90 229 83.5 182 Q77 135 77 101 L77 94 Q77 79 78.5 55 Q80 31 81.5 4.5 Q83 -22 84 -48.5 Q85 -75 85 -95 L85 -108 Q84 -127 82 -137.5 Q80 -148 77 -153 Q74 -158 70 -159 Q66 -160 62 -160 Q53 -160 47.5 -147 Q42 -134 37 -97 Q34 -72 31.5 -50.5 Q29 -29 29 2 Q29 30 32 75 Q34 93 34 106.5 Q34 120 34 132 Q34 151 33.5 167.5 Q33 184 33 207 Q33 224 33.5 245.5 Q34 267 36 296 Q39 345 42 376 Q45 407 49 429 Q53 451 58 469.5 Q63 488 69 513 Q75 538 84.5 561 Q94 584 103.5 602.5 Q113 621 121.5 633.5 Q130 646 136 651 Q143 657 151 657 Q158 657 165 651 Q172 645 179 631 Q184 620 189.5 583 Q195 546 200.5 493.5 Q206 441 211 377 Q216 313 221 248 Q225 183 231 146.5 Q237 110 243 90.5 Q249 71 254 63 Q259 55 262 48 Q263 44 266 44 Q269 44 273 50.5 Q277 57 281.5 68 Q286 79 290.5 93 Q295 107 300 122 Q305 139 306.5 145.5 Q308 152 310 162 Q312 172 317 192.5 Q322 213 334 258 Q347 306 356.5 348 Q366 390 373.5 428 Q381 466 387.5 503.5 Q394 541 401 580 Q408 619 411.5 639 Q415 659 416.5 667 Q418 675 419.5 676.5 Q421 678 423 680 Q429 684 434 684 Q445 684 450.5 675.5 Q456 667 456 656 L456 651 Q456 632 460.5 617.5 Q465 603 466 585 Q467 584 467 582 Z " />
<glyph glyph-name="O" unicode="O" horiz-adv-x="482" d="M408 204 Q408 232 396.5 261 Q385 290 358 325 Q347 339 328.5 359.5 Q310 380 288 398.5 Q266 417 242.5 431 Q219 445 198 446 Q193 445 186 445 Q176 445 171 448.5 Q166 452 159 460 Q157 462 156.5 465 Q156 468 154 470 Q153 470 149.5 460.5 Q146 451 141 443 Q133 431 123 405.5 Q113 380 103.5 346 Q94 312 85 272 Q76 232 70 191 Q68 182 68 173 Q68 164 68 155 Q68 120 77.5 90.5 Q87 61 102.5 38.5 Q118 16 138 3.5 Q158 -9 180 -9 L183 -9 Q208 -9 240.5 2.5 Q273 14 303 33 Q333 52 357.5 76 Q382 100 391 125 Q399 146 403.5 165 Q408 184 408 204 Z M455 206 Q455 172 442 128 Q429 84 399 48 Q383 29 356 11.5 Q329 -6 297.5 -19.5 Q266 -33 232.5 -41 Q199 -49 170 -49 Q136 -49 114 -37 Q78 -17 60.5 6 Q43 29 35 55 Q27 78 25 101.5 Q23 125 23 149 L23 155 Q23 185 29 225 Q35 265 45.5 307 Q56 349 70 390.5 Q84 432 102 465 Q107 475 112 484.5 Q117 494 123 503 Q134 521 150.5 531.5 Q167 542 184 542 Q198 542 210 535 Q222 528 232 511 Q235 505 235 504 Q235 505 233 499 Q231 493 227 493 Q225 493 224 493.5 Q223 494 221 495 Q212 503 207.5 505.5 Q203 508 198 508 Q190 508 181 503 Q178 502 174 496.5 Q170 491 170 487 Q170 485 173 485 L176 485 Q184 487 191 487 Q208 487 238 476 Q268 465 319 431 Q352 409 374 383 Q396 357 410 331 Q424 305 433 283 Q442 261 448 247 Q455 234 455 206 Z " />
<glyph glyph-name="P" unicode="P" horiz-adv-x="312" d="M226 555 Q226 573 218.5 583.5 Q211 594 199 594 Q196 594 190 592 Q181 589 168.5 578 Q156 567 143.5 553.5 Q131 540 120.5 526 Q110 512 104 503 Q93 486 90.5 474 Q88 462 82 448 Q76 433 74.5 416.5 Q73 400 71 378 Q70 364 69.5 345 Q69 326 69 307 Q69 287 69.5 271 Q70 255 70 248 L70 241 Q70 233 70.5 224.5 Q71 216 75 216 Q76 216 83.5 228.5 Q91 241 102 261 Q113 281 126.5 307 Q140 333 154 360 Q183 415 201 464.5 Q219 514 224 536 Q225 541 225.5 545.5 Q226 550 226 555 Z M267 557 Q267 534 258.5 500.5 Q250 467 225 416 Q202 369 180 327.5 Q158 286 140 253.5 Q122 221 108.5 200 Q95 179 89 175 Q79 167 76.5 160.5 Q74 154 74 148 Q74 146 74.5 145 Q75 144 75 142 Q75 139 76 128.5 Q77 118 78.5 103.5 Q80 89 81 71.5 Q82 54 82 38 L82 34 Q82 6 87 -22.5 Q92 -51 92 -69 Q92 -86 86 -90 Q81 -94 74 -94 Q66 -94 61 -84 Q56 -74 51 -57 Q48 -47 44.5 -28 Q41 -9 37.5 14.5 Q34 38 31.5 63 Q29 88 27 112 Q25 129 23.5 158 Q22 187 20 220 Q18 253 17 286 Q16 319 16 346 Q16 366 17 381 Q18 396 20 401 Q24 413 25.5 423.5 Q27 434 27 451 L27 503 Q27 508 27 515.5 Q27 523 26 534 L26 559 Q26 591 29 611.5 Q32 632 43 639 Q54 646 60 646 Q63 646 66.5 644.5 Q70 643 75 641 Q87 636 87 620 Q87 613 85 610 Q80 601 75 589.5 Q70 578 69 564 Q69 556 68 547 Q67 538 67 527 Q67 522 70 522 Q72 522 77 532 Q82 542 95 557 Q102 565 112 577.5 Q122 590 134 602 Q146 614 159 623 Q172 632 186 633 L200 633 Q223 633 237.5 628 Q252 623 257 609 Q259 601 263 589 Q267 577 267 557 Z " />
<glyph glyph-name="Q" unicode="Q" horiz-adv-x="495" d="M407 265 Q407 269 407 273 Q407 277 406 281 Q404 314 390 356.5 Q376 399 358 438.5 Q340 478 323.5 508.5 Q307 539 301 549 Q298 554 291.5 564 Q285 574 277.5 583.5 Q270 593 262 600.5 Q254 608 247 609 Q235 601 226 501 Q221 457 220 427 Q219 397 219 380 L219 369 Q219 364 218.5 354 Q218 344 214 344 Q212 344 209 347 Q206 352 205.5 363 Q205 374 204 389 Q202 404 202.5 422.5 Q203 441 202 459 Q201 471 200.5 482.5 Q200 494 200 505 Q200 528 201 547.5 Q202 567 202 580 Q202 586 202.5 592.5 Q203 599 203 607 Q202 611 200 614 Q198 617 192 620 Q184 624 179 624 Q168 624 157 618 Q146 612 138 603 Q133 597 124 579.5 Q115 562 105 539.5 Q95 517 86.5 492 Q78 467 74 447 Q71 431 66 408 Q61 385 57 350.5 Q53 316 50 269 Q47 222 47 159 L47 132 Q47 102 51 64 Q55 26 68 -7 Q81 -40 105 -63 Q129 -86 170 -86 Q188 -86 210 -74.5 Q232 -63 251 -49 Q270 -35 283 -22 Q296 -9 296 -6 Q296 -1 286 19 Q272 45 263 69 Q257 88 248.5 109.5 Q240 131 240 154 Q239 159 239 160 L239 166 Q239 170 242 170 Q244 170 245 169 Q249 166 251.5 158.5 Q254 151 256 148 Q260 138 265 125.5 Q270 113 281 91 Q286 81 292 69.5 Q298 58 304 48 Q310 38 315 31.5 Q320 25 322 25 Q324 25 334 42 L355 84 Q361 95 370.5 115 Q380 135 389 161 Q397 184 402 210 Q407 236 407 265 Z M456 39 Q456 26 449 16 Q443 8 435 -1.5 Q427 -11 418 -22 Q410 -33 399.5 -39 Q389 -45 372 -45 L362 -45 Q351 -43 344.5 -41 Q338 -39 333 -37 L330 -36 Q329 -35 324 -35 Q322 -37 311.5 -48 Q301 -59 284 -73 Q267 -87 246.5 -100.5 Q226 -114 204 -121 Q177 -130 154 -130 Q107 -130 68 -90 Q36 -57 17.5 8 Q-1 73 -1 167 Q-1 175 -1 183 Q-1 191 0 199 Q5 356 32 456 Q59 556 95 612 Q112 638 133 654 Q154 670 172 674 Q176 675 180 675 Q184 675 188 675 Q217 675 233 656 Q236 653 240.5 649 Q245 645 251 645 Q255 645 261 647 Q269 647 299 615 Q329 583 364 523 Q381 493 394 466 Q407 439 416 411.5 Q425 384 431.5 354.5 Q438 325 442 289 Q443 283 443.5 277 Q444 271 444 265 Q444 231 435.5 195.5 Q427 160 415.5 129 Q404 98 392.5 75.5 Q381 53 376 44 L357 14 Q353 8 351 4.5 Q349 1 348 -1 Q348 -3 350.5 -5 Q353 -7 358 -7 L372 -7 Q382 -7 390.5 -4 Q399 -1 406 8 Q411 16 415.5 20.5 Q420 25 425 28 Q430 32 434 35.5 Q438 39 443 44 Q447 50 451 50 Q456 50 456 39 Z " />
<glyph glyph-name="R" unicode="R" horiz-adv-x="525" d="M540 173 Q540 171 539 170 Q536 164 515 153 Q492 142 457.5 137 Q423 132 358 127 Q344 126 330.5 125.5 Q317 125 304 125 Q258 125 223.5 133.5 Q189 142 173 163 Q163 177 163 198 Q163 256 236 344 Q278 395 305.5 444 Q333 493 333 525 Q333 534 330 542 Q324 556 310 562.5 Q296 569 279 569 Q262 569 244 564.5 Q226 560 208 554 Q190 547 170 536.5 Q150 526 133.5 515 Q117 504 105 494.5 Q93 485 90 482 Q82 474 82 463 Q82 458 83 455 Q83 451 84 433.5 Q85 416 85.5 394 Q86 372 86.5 351 Q87 330 87 318 Q87 306 88.5 281.5 Q90 257 92 225.5 Q94 194 95.5 157.5 Q97 121 97 85 Q97 50 97.5 25.5 Q98 1 99 -15.5 Q100 -32 102 -42.5 Q104 -53 106 -61 Q110 -75 114 -79 Q116 -81 117 -81 Q119 -81 122 -77 Q127 -72 129 -72 Q132 -72 132 -82 L132 -94 Q132 -99 132 -104.5 Q132 -110 131 -116 Q129 -127 126.5 -137 Q124 -147 117 -153 Q113 -157 107.5 -160 Q102 -163 96 -163 Q90 -163 85 -159 Q77 -152 69.5 -131.5 Q62 -111 60 -67 Q57 -23 55.5 32.5 Q54 88 52.5 141 Q51 194 49.5 239.5 Q48 285 46 310 Q44 335 43 357 Q42 379 42 396 Q42 413 41 425 Q40 437 38 440 Q35 445 31.5 450.5 Q28 456 26 462 Q23 471 23 480 Q23 483 23 486.5 Q23 490 25 493 Q28 500 30 506.5 Q32 513 32 521 L32 530 Q32 566 28.5 600 Q25 634 24 648 L24 654 Q24 667 29 677 Q34 687 51 687 Q60 687 64 680.5 Q68 674 70 664 Q72 654 72 644.5 Q72 635 73 624 Q74 616 74 601.5 Q74 587 75 572 Q76 558 77 546 Q78 534 80 532 Q81 532 81.5 531.5 Q82 531 84 531 Q91 531 103 539.5 Q115 548 123 554 Q127 557 139 565.5 Q151 574 167.5 583.5 Q184 593 205.5 601.5 Q227 610 251 614 Q259 615 266.5 615.5 Q274 616 282 616 Q319 616 342.5 603.5 Q366 591 371 574 Q373 568 374 560.5 Q375 553 375 543 Q375 520 366 487 Q357 454 331 408 Q313 375 292.5 346.5 Q272 318 255 295 Q238 271 225.5 252 Q213 233 210 219 Q209 214 208.5 209.5 Q208 205 208 202 Q208 190 217 186 Q222 184 228 183 Q234 182 243 181 Q253 179 265 179 Q277 179 293 177 Q320 175 344.5 175 Q369 175 390 175 Q419 175 441 175 Q463 175 477 177 L516 181 Q519 182 526 182 Q530 182 536 180 Q540 176 540 173 Z " />
<glyph glyph-name="S" unicode="S" horiz-adv-x="337" d="M147 -132 Q147 -114 144 -97 Q142 -86 140.5 -74 Q139 -62 137 -52.5 Q135 -43 132.5 -37.5 Q130 -32 127 -32 Q125 -32 119 -37.5 Q113 -43 105 -51 L71 -88 Q50 -108 32 -132.5 Q14 -157 14 -177 Q14 -183 18 -191 Q22 -199 25 -206 Q28 -213 32 -218 Q40 -230 50 -231 Q55 -232 59.5 -232 Q64 -232 68 -232 Q81 -232 88.5 -229.5 Q96 -227 102 -223 Q107 -218 111.5 -212 Q116 -206 121 -201 L128 -193 Q139 -182 143 -166 Q147 -150 147 -132 Z M394 226 Q393 218 383.5 205.5 Q374 193 351 172 L239 72 Q210 47 190 29 Q170 11 167 8 Q167 7 166.5 6.5 Q166 6 166 4 Q166 3 166.5 1.5 Q167 0 167 -2 L173 -22 Q177 -34 181.5 -51 Q186 -68 188 -89 Q191 -112 191 -131 Q191 -157 184 -180 Q177 -203 157 -226 Q143 -243 116.5 -253.5 Q90 -264 63 -264 Q45 -264 28.5 -258 Q12 -252 1 -237 Q-15 -216 -21.5 -202 Q-28 -188 -28 -177 Q-28 -167 -24 -160 Q-20 -153 -13 -145 Q0 -129 30 -93.5 Q60 -58 114 -6 Q118 -3 118 4 Q118 8 116.5 13.5 Q115 19 113 28 Q108 45 98 75.5 Q88 106 74 159 Q61 205 53 241 Q45 277 40.5 304 Q36 331 34.5 351.5 Q33 372 33 388 Q33 396 33.5 403 Q34 410 34 417 Q35 434 39.5 456.5 Q44 479 50 500.5 Q56 522 63 540.5 Q70 559 76 568 Q90 591 103 614 Q116 637 133 658 Q150 679 173.5 696.5 Q197 714 229 724 Q232 725 238 725 Q245 725 253.5 721.5 Q262 718 269.5 712.5 Q277 707 282 699.5 Q287 692 287 683 Q286 678 277 646 Q268 614 257 572.5 Q246 531 235 490 Q224 449 220 426 Q211 380 205 357.5 Q199 335 194 327 Q193 326 191.5 323.5 Q190 321 188 321 Q187 321 187 327 Q187 335 190 359 Q190 365 193 379 Q196 393 200.5 413 Q205 433 210.5 457 Q216 481 222 505 Q227 529 232.5 552 Q238 575 242 594 Q247 614 249.5 626.5 Q252 639 252 643 L252 655 Q252 685 239 685 Q230 685 218 677 Q205 669 188.5 654.5 Q172 640 154 614.5 Q136 589 118.5 551.5 Q101 514 86 459 Q81 439 78.5 418.5 Q76 398 76 378 Q76 327 87 275 Q97 230 109.5 191.5 Q122 153 131 127 Q140 100 144.5 83 Q149 66 151 55 L155 41 Q156 38 158 36 Q161 36 197 68 Q215 85 243 110 Q271 135 310 169 Q324 182 335 193 Q346 204 355 213 Q363 221 368.5 226.5 Q374 232 379 234 L384 234 Q394 234 394 226 Z " />
<glyph glyph-name="T" unicode="T" horiz-adv-x="466" d="M504 645 Q504 635 495 627 Q489 622 477 615.5 Q465 609 451 603 Q437 597 423 592.5 Q409 588 399 585 Q389 582 370 577 Q351 572 331.5 566.5 Q312 561 297 555.5 Q282 550 281 547 Q279 541 276 520 Q273 499 271 470 Q270 456 265 429 Q260 402 254 369 Q248 336 241.5 299.5 Q235 263 231 229 Q222 160 222 101 Q222 75 223.5 53.5 Q225 32 229 18 Q232 3 239 -14 Q246 -31 253.5 -46 Q261 -61 268 -71 Q275 -81 278 -82 Q280 -83 283 -83 Q290 -83 297 -81 Q304 -79 312 -79 Q316 -80 319.5 -83 Q323 -86 323 -90 Q323 -96 313 -102 Q305 -106 298.5 -110 Q292 -114 284 -114 Q278 -114 271 -110.5 Q264 -107 254 -98 Q242 -87 230 -64.5 Q218 -42 207.5 -15 Q197 12 190 42 Q183 72 181 98 Q181 105 180.5 112 Q180 119 180 127 Q180 159 183 195 Q186 231 191 268 Q196 305 202 341 Q208 377 213 409 Q221 464 227 490.5 Q233 517 233 528 Q233 534 230 537 Q225 542 217 542 Q211 542 199 540 Q187 538 165 535 Q142 531 123.5 528 Q105 525 81 525 Q77 525 73 525 Q69 525 64 526 Q23 527 -4.5 528.5 Q-32 530 -50 532 Q-68 534 -77.5 538 Q-87 542 -93 549 Q-99 556 -99 562 Q-99 576 -68 579 L-60 579 Q-44 579 -36 575.5 Q-28 572 -11 570 Q-6 569 -3 568.5 Q0 568 2 568 Q6 568 10 568.5 Q14 569 20 570 Q26 571 35.5 572 Q45 573 60 574 Q80 575 94 576.5 Q108 578 120 579.5 Q132 581 143 583 Q154 585 168 587 Q211 593 251.5 601.5 Q292 610 325.5 618.5 Q359 627 382.5 634.5 Q406 642 417 645 Q435 651 454 658.5 Q473 666 484 666 Q486 666 487.5 665.5 Q489 665 491 665 Q504 658 504 645 Z " />
<glyph glyph-name="U" unicode="U" horiz-adv-x="475" d="M460 -43 Q460 -49 456 -57.5 Q452 -66 447 -74 Q439 -85 426.5 -100 Q414 -115 398 -115 Q393 -115 391 -114 Q382 -111 374 -105 Q366 -99 359.5 -81 Q353 -63 348 -30 Q343 3 341 59 Q340 82 339.5 102.5 Q339 123 339 141 Q339 212 343.5 255 Q348 298 351 327 Q353 345 355.5 363.5 Q358 382 360 397 Q363 418 363 428 Q363 433 362 434 Q360 432 358 425 Q356 418 355 416 Q352 406 346 391 Q340 376 335 364 L295 268 Q278 227 258 183 Q238 139 216 101 Q177 33 142 5 Q107 -23 87 -23 Q81 -23 79 -22 Q62 -15 45.5 32 Q29 79 22 153 Q20 179 19 208.5 Q18 238 18 267 Q18 318 19.5 361 Q21 404 21 422 Q21 450 19 461 Q17 472 16 483 Q15 490 15 495.5 Q15 501 15 506 Q15 523 19 531.5 Q23 540 33 545 Q40 549 45 549 Q55 549 58 533 Q59 528 60 523 Q61 518 62 512 L62 503 Q62 497 61.5 490 Q61 483 60 475 Q59 467 58.5 455.5 Q58 444 58 431 Q58 404 59 373 Q60 342 60 314 Q60 273 61.5 238 Q63 203 67 172 Q69 157 72.5 135.5 Q76 114 78 94 Q80 74 82.5 58.5 Q85 43 87 37 Q90 27 96 27 Q103 27 114 35 Q126 44 149 71.5 Q172 99 202 157 Q217 186 234.5 224.5 Q252 263 269 302.5 Q286 342 300.5 380 Q315 418 325 445 Q335 473 342.5 497.5 Q350 522 356 541 Q361 560 366.5 572.5 Q372 585 378 588 Q380 589 385 589 Q393 589 398 582 Q403 575 403 568 Q403 565 402 550 Q401 535 400 512.5 Q399 490 397 462.5 Q395 435 394 408.5 Q393 382 392 359 Q391 336 391 322 Q391 301 389.5 264 Q388 227 386 187.5 Q384 148 382.5 113.5 Q381 79 380 64 Q380 59 379.5 54 Q379 49 379 44 Q379 27 380 8.5 Q381 -10 384 -26 Q387 -42 391.5 -53.5 Q396 -65 403 -67 Q406 -68 411 -68 Q422 -68 427.5 -60 Q433 -52 438 -44 Q445 -33 451 -33 Q455 -33 459 -37 Q460 -39 460 -43 Z " />
<glyph glyph-name="V" unicode="V" horiz-adv-x="393" d="M344 501 Q344 497 342 489 Q341 486 340 482 Q339 478 339 473 Q338 465 337.5 447 Q337 429 337 413 L337 399 Q337 397 337.5 392.5 Q338 388 338 383 Q338 381 337.5 373 Q337 365 333 365 Q331 365 330 368 Q327 372 326.5 379.5 Q326 387 325 392 Q325 394 324.5 395.5 Q324 397 324 399 Q322 405 322 405 L321 406 Q321 406 319 400 Q317 395 310.5 369.5 Q304 344 296.5 313 Q289 282 282 252 Q275 222 272 207 Q269 192 264.5 172 Q260 152 254.5 131 Q249 110 243.5 89.5 Q238 69 234 54 Q226 24 218 0 Q210 -24 203 -41 Q199 -49 193 -62.5 Q187 -76 179.5 -89 Q172 -102 164 -112 Q156 -122 149 -125 Q141 -129 133 -129 Q114 -129 106 -107 Q103 -99 100 -78.5 Q97 -58 93.5 -27.5 Q90 3 85 41 Q80 79 74 123 Q67 166 60.5 217 Q54 268 48 318.5 Q42 369 36.5 416 Q31 463 27 499 Q22 535 17.5 565 Q13 595 10 618 Q7 634 4.5 650.5 Q2 667 2 684 Q3 707 7 716.5 Q11 726 19 726 Q21 726 22 725.5 Q23 725 25 725 Q30 723 33 722.5 Q36 722 39 716 Q41 710 43 696 Q45 682 48 653 Q51 624 55.5 585.5 Q60 547 65 509.5 Q70 472 74 441 Q78 410 80 396 L106 192 Q117 109 126.5 49 Q136 -11 137 -28 Q138 -43 145 -43 Q149 -43 154 -38 Q159 -32 167 -16.5 Q175 -1 189 44 Q203 89 217 143.5 Q231 198 247 271 Q255 307 263.5 344.5 Q272 382 279.5 413.5 Q287 445 292.5 468 Q298 491 301 497 Q304 505 309.5 510.5 Q315 516 326 516 Q334 515 339 510.5 Q344 506 344 501 Z " />
<glyph glyph-name="W" unicode="W" horiz-adv-x="491" d="M478 479 Q478 475 475 475 Q471 476 467.5 480.5 Q464 485 462 488 L457 498 Q454 501 450 507 L446 513 Q445 513 443 507 Q442 503 442 498.5 Q442 494 442 490 Q442 485 440.5 459.5 Q439 434 436.5 398.5 Q434 363 431 323.5 Q428 284 425 253 Q421 214 414 175.5 Q407 137 397.5 103.5 Q388 70 375.5 42.5 Q363 15 348 -2 Q340 -13 328 -13 Q316 -13 306 -3 Q296 7 291 18 Q288 24 282.5 43 Q277 62 270.5 86.5 Q264 111 258 138.5 Q252 166 249 189 Q245 212 243 230.5 Q241 249 239 263 L236 285 Q236 288 235.5 290 Q235 292 235 293 Q234 291 234 289 Q234 287 233 284 L230 247 Q229 236 226.5 218 Q224 200 221 180 Q218 160 214 138.5 Q210 117 206 98 Q198 60 183 12 Q168 -36 148 -76 Q129 -113 116 -113 Q109 -113 103 -105.5 Q97 -98 90 -85 Q82 -69 75.5 -47.5 Q69 -26 63.5 4 Q58 34 53 73.5 Q48 113 43 163 Q32 264 24 350.5 Q16 437 14 495 Q11 570 11 605 Q11 615 11 623 Q11 631 12 637 Q14 660 17 668.5 Q20 677 32 680 Q36 682 39 682 Q47 682 49.5 676 Q52 670 52 662 Q52 657 51.5 639 Q51 621 51 596 Q51 571 52 544 Q53 517 55 497 Q60 456 63.5 403 Q67 350 74 271 Q77 232 81.5 192.5 Q86 153 90.5 118.5 Q95 84 98.5 56.5 Q102 29 104 15 Q106 1 109 -9.5 Q112 -20 114 -25 Q117 -31 119 -31 Q120 -31 122 -27 Q127 -17 139 4.5 Q151 26 159 66 Q163 86 169.5 118.5 Q176 151 182 185 Q188 219 192.5 250 Q197 281 198 299 Q199 317 201 338.5 Q203 360 205.5 380.5 Q208 401 211 417.5 Q214 434 219 442 Q225 452 232 452 Q238 452 242.5 445.5 Q247 439 249 430 Q250 424 253 398.5 Q256 373 260.5 340.5 Q265 308 270.5 273.5 Q276 239 281 214 Q287 189 294 160 Q301 131 308 105.5 Q315 80 321 62 Q327 44 329 42 Q331 42 336 50 Q339 55 342 61.5 Q345 68 349 74 Q352 80 356.5 95.5 Q361 111 366 132 Q371 153 375.5 177 Q380 201 384 224 Q387 246 390.5 275 Q394 304 397 334.5 Q400 365 402 393 Q404 421 404 441 L404 447 Q403 455 403 461.5 Q403 468 403 475 Q403 502 405 523 Q407 544 412 562 Q414 570 418 580 Q422 590 432 592 Q433 592 434 592.5 Q435 593 439 593 Q442 593 445 587.5 Q448 582 451 574.5 Q454 567 456 559 Q458 551 459 546 Q460 536 463.5 521 Q467 506 473 495 Q478 483 478 479 Z " />
<glyph glyph-name="X" unicode="X" horiz-adv-x="389" d="M365 -178 Q365 -189 359 -189 Q354 -189 349.5 -185.5 Q345 -182 341 -178 Q338 -175 334.5 -168.5 Q331 -162 326 -151 Q321 -140 314 -122 Q307 -104 297 -77 Q287 -50 274.5 -13.5 Q262 23 249.5 58.5 Q237 94 226.5 123 Q216 152 212 164 Q203 188 198.5 199.5 Q194 211 190 212 Q187 212 185 204.5 Q183 197 179 183 Q177 175 171 154.5 Q165 134 157.5 108.5 Q150 83 142 57 Q134 31 127 13 Q124 4 120 -9.5 Q116 -23 109.5 -36 Q103 -49 93.5 -58.5 Q84 -68 71 -69 Q62 -68 56.5 -62 Q51 -56 48.5 -47 Q46 -38 45.5 -27.5 Q45 -17 45 -7 Q45 3 46 23 Q47 43 48.5 65.5 Q50 88 51.5 109 Q53 130 54 143 Q56 167 57.5 184 Q59 201 64 201 Q66 201 66.5 194.5 Q67 188 67 180 L67 158 Q67 150 67 137.5 Q67 125 66.5 110.5 Q66 96 66 82 Q66 68 66 57 L66 38 Q68 27 69.5 18.5 Q71 10 74 10 Q76 10 78 13 Q83 21 92.5 42 Q102 63 111 94 Q115 109 124 138 Q133 167 141.5 196.5 Q150 226 157 250 Q164 274 165 280 Q165 282 165.5 284.5 Q166 287 166 289 Q166 297 163.5 303 Q161 309 158 317 Q156 323 151.5 335 Q147 347 142 362 Q137 377 131.5 392.5 Q126 408 123 419 Q120 430 115 443.5 Q110 457 105.5 470 Q101 483 97 492.5 Q93 502 92 506 Q89 515 87 515 Q85 515 85 508 L85 504 Q85 495 83 481.5 Q81 468 78 448 Q76 438 75.5 412.5 Q75 387 74 360 Q73 333 71 312.5 Q69 292 65 292 Q65 292 64 302 Q63 312 61.5 325.5 Q60 339 59 352.5 Q58 366 58 374 Q57 390 55.5 403.5 Q54 417 52 432 Q50 447 48.5 465 Q47 483 46 509 Q45 537 44 554.5 Q43 572 42 583 Q41 594 40 601 Q39 608 38 616 Q37 620 37 627 Q37 644 52 652 Q58 654 61 654 Q69 654 76.5 646.5 Q84 639 92 617 Q102 588 115.5 552 Q129 516 140 489 Q145 476 152 457.5 Q159 439 165.5 421.5 Q172 404 177 390.5 Q182 377 183 374 Q185 369 186 365.5 Q187 362 189 362 Q191 362 195 369 L257 526 Q263 541 272 555.5 Q281 570 291 582.5 Q301 595 310.5 604.5 Q320 614 326 618 Q333 622 341 622 Q349 622 354 618 Q359 614 361 610 Q362 608 362 602 Q362 596 361 589 Q360 582 360 577 Q360 563 355 563 Q353 563 351 565 Q348 567 345 572 Q342 577 337 577 Q332 575 318 555.5 Q304 536 293 509 Q290 501 283.5 485.5 Q277 470 270.5 452 Q264 434 257.5 416.5 Q251 399 247 389 Q243 378 237 364 Q231 350 226 337 Q221 324 217 314 Q213 304 213 302 Q213 300 217 287 Q221 274 226.5 256 Q232 238 238.5 218.5 Q245 199 251 184 Q257 169 264.5 149.5 Q272 130 279.5 108.5 Q287 87 293.5 66.5 Q300 46 304 30 Q312 -2 325 -33.5 Q338 -65 342 -82 Q344 -91 348 -104 Q352 -117 355.5 -131.5 Q359 -146 362 -158.5 Q365 -171 365 -178 Z " />
<glyph glyph-name="Y" unicode="Y" horiz-adv-x="298" d="M267 529 Q267 523 265 512.5 Q263 502 260 490 Q256 477 253 464.5 Q250 452 249 443 Q247 434 243.5 407.5 Q240 381 236.5 349.5 Q233 318 229 287.5 Q225 257 224 241 Q219 185 211 142.5 Q203 100 196 52 Q193 28 191.5 10.5 Q190 -7 189 -23 Q188 -39 187.5 -55.5 Q187 -72 186 -93 Q185 -115 184 -130.5 Q183 -146 183 -158 Q182 -163 182 -172 Q182 -185 185 -198 Q187 -208 191 -219 Q195 -230 197 -241 Q198 -246 198.5 -250 Q199 -254 199 -258 Q199 -270 191 -273 Q189 -274 186 -274 Q177 -274 170 -261 Q166 -253 163.5 -244 Q161 -235 158 -227 L152 -209 Q150 -202 148 -186 Q146 -178 146 -168 Q146 -158 146 -144 Q146 -133 146 -121 Q146 -109 147 -94 Q148 -59 149.5 -35.5 Q151 -12 152.5 7 Q154 26 156 43 Q158 60 161 83 L197 362 Q199 370 199 375 Q199 380 199 382 L173 337 Q167 327 157 310 Q147 293 134.5 276.5 Q122 260 109 248 Q96 236 86 236 Q83 236 82 237 Q72 240 65.5 245 Q59 250 54.5 259.5 Q50 269 46.5 284.5 Q43 300 40 324 Q34 372 28 424.5 Q22 477 18 537 Q17 551 16.5 562.5 Q16 574 16 585 Q16 596 16.5 605 Q17 614 18 622 Q20 636 21.5 644 Q23 652 25 657 Q32 687 46 687 Q48 687 54 683 Q57 680 62 678 Q67 676 69 672 Q71 668 71 658 Q71 655 71 651.5 Q71 648 70 644 Q69 633 68 616.5 Q67 600 67 577 Q67 557 68 531.5 Q69 506 71 476 Q74 444 76 413 Q78 382 80 356 Q82 330 83.5 312.5 Q85 295 87 291 Q87 289 89 289 Q92 289 96 293 Q101 298 106 305.5 Q111 313 116 323 Q121 333 131 350.5 Q141 368 152 388.5 Q163 409 173.5 430.5 Q184 452 191 469 Q209 514 217 530 Q226 549 234 550 Q236 551 240 551 Q249 551 257.5 545.5 Q266 540 267 529 Z " />
<glyph glyph-name="Z" unicode="Z" horiz-adv-x="550" d="M173 261 Q173 265 163 265 L158 265 Q152 265 136.5 265.5 Q121 266 106 266 Q95 266 87 266 Q79 266 76 264 Q72 264 72 262 Q72 259 78.5 256 Q85 253 93 251 Q104 248 117 239 Q130 230 135 227 Q139 223 143 223 Q145 223 151 231 Q156 236 160 241.5 Q164 247 171 256 Q173 260 173 261 Z M601 268 Q601 264 594 261 Q583 258 577 258 Q568 258 558 261 Q548 264 528 264 Q511 264 492.5 264.5 Q474 265 451 265 Q437 265 419.5 265 Q402 265 380 263 Q366 262 352.5 262 Q339 262 327 262 Q306 262 290 262.5 Q274 263 263 263 Q248 263 245 261 Q240 257 229 246.5 Q218 236 210 226 Q202 217 192.5 207.5 Q183 198 181 193 Q181 189 188.5 184.5 Q196 180 201 177 Q210 174 210 169 Q210 166 206 166 Q200 167 190 171 Q180 175 170 180 Q165 180 157.5 169.5 Q150 159 142 151 Q138 147 131.5 137 Q125 127 118.5 115 Q112 103 106 91 Q100 79 97 72 Q92 62 92 56 Q92 48 104 39.5 Q116 31 154 17 Q186 6 224 2 Q262 -2 297 -2 Q322 -2 343.5 -1 Q365 0 381 1 Q420 4 432 8.5 Q444 13 446 18 Q446 20 442.5 21.5 Q439 23 434.5 25 Q430 27 426.5 29 Q423 31 423 33 Q425 35 432 35 Q440 35 449.5 32.5 Q459 30 466 28 Q476 25 484.5 25 Q493 25 497 15 Q500 6 500 -2 Q500 -15 494 -21 Q491 -23 478 -28 Q465 -33 443 -38 Q421 -43 391.5 -46.5 Q362 -50 327 -50 L292 -50 Q239 -50 208.5 -44 Q178 -38 157 -31 Q145 -27 128.5 -20 Q112 -13 96 -5 Q80 3 67 12.5 Q54 22 48 31 Q42 40 42 52 Q42 69 50 87 Q58 105 68 120 Q80 140 90 155 Q100 170 106 178 Q111 185 119.5 193 Q128 201 128 207 Q128 209 127 210 Q124 217 113.5 222.5 Q103 228 94 233 Q89 235 78 237 Q67 239 54.5 241 Q42 243 29.5 245 Q17 247 10 248 Q-5 250 -19 258 Q-33 266 -33 279 Q-33 284 -31 287 Q-28 295 -20.5 298.5 Q-13 302 -3 303 Q7 304 19.5 304 Q32 304 46 306 Q51 306 55.5 306.5 Q60 307 64 307 Q73 307 81.5 306 Q90 305 101 305 Q106 305 113 305.5 Q120 306 128 307 Q158 309 183 308.5 Q208 308 219 310 Q224 311 227 311 Q230 311 234 313 Q238 315 243.5 319 Q249 323 259 332 Q278 349 295 364.5 Q312 380 329 397 Q340 407 347 415 Q354 423 354 431 Q354 440 339 450 Q328 456 310.5 461 Q293 466 271.5 470 Q250 474 226 477.5 Q202 481 178 484 Q143 488 107 492.5 Q71 497 33 497 L25 497 Q5 497 -9.5 499 Q-24 501 -33 506 Q-42 513 -42 526 Q-42 531 -39.5 535.5 Q-37 540 -32 541 Q-24 542 -12 544 Q0 546 17 546 Q27 546 32 545 Q53 544 85.5 539 Q118 534 164 530 Q186 528 213.5 524 Q241 520 267 515 Q293 510 315 504.5 Q337 499 349 494 Q369 486 382.5 471.5 Q396 457 396 439 Q396 427 391 418 Q378 393 365.5 378 Q353 363 335 349 Q326 343 313.5 331.5 Q301 320 299 307 Q300 306 316 306 Q332 306 352.5 306.5 Q373 307 387 307 Q398 308 407.5 308 Q417 308 426 308 Q458 308 487 305.5 Q516 303 551 297 Q566 295 583.5 285.5 Q601 276 601 268 Z " />
<glyph glyph-name="bracketleft" unicode="&#x5b;" horiz-adv-x="329" d="M320 587 Q320 585 319 584 Q317 581 306 581 Q297 581 286.5 583 Q276 585 269 590 Q264 593 256 601 Q248 609 238 620 L198 663 Q192 669 182.5 678 Q173 687 162.5 696 Q152 705 141 711.5 Q130 718 121 719 Q117 718 114 705 Q112 698 111.5 690 Q111 682 109 674 Q108 668 107.5 650 Q107 632 106 606.5 Q105 581 103.5 551 Q102 521 101 491 Q100 461 99 433.5 Q98 406 97 387 Q96 371 95.5 348.5 Q95 326 95 300 Q95 267 95.5 231.5 Q96 196 97 161.5 Q98 127 99 97.5 Q100 68 101 47 L109 -118 Q111 -164 114 -195 Q117 -226 119 -227 L130 -229 Q137 -229 138 -234 Q139 -235 139 -237 Q139 -244 131.5 -256 Q124 -268 117 -273 Q112 -276 108 -276 Q100 -276 93 -267 Q86 -258 82 -241 Q80 -230 78.5 -212.5 Q77 -195 75 -166 Q73 -137 69 -94 Q65 -51 57 13 Q54 42 53 82.5 Q52 123 52 169 Q52 229 53.5 292.5 Q55 356 57 414 Q58 465 62 512.5 Q66 560 70.5 599.5 Q75 639 79 667.5 Q83 696 85 709 L85 715 Q85 723 83.5 730 Q82 737 80 745 Q79 750 78 753.5 Q77 757 77 761 Q77 768 82 775 Q89 787 101 787 Q113 787 122 776 Q130 767 144 757.5 Q158 748 184 725 Q198 714 211 702.5 Q224 691 235 680 Q246 669 255.5 659.5 Q265 650 271 642 Q282 626 291.5 614.5 Q301 603 306 601 Q310 599 315 595.5 Q320 592 320 587 Z " />
<glyph glyph-name="backslash" unicode="&#x5c;" horiz-adv-x="581" d="M555 -247 Q553 -262 544 -262 Q536 -262 528 -248 Q524 -241 523 -233 Q522 -225 522 -217 Q522 -208 522.5 -198 Q523 -188 523 -177 Q523 -157 515 -134.5 Q507 -112 502 -82 Q500 -67 493 -43.5 Q486 -20 471 12.5 Q456 45 431 86.5 Q406 128 368 179 Q330 230 293.5 276.5 Q257 323 225 362.5 Q193 402 167.5 433 Q142 464 126 484 Q94 525 70.5 554.5 Q47 584 26 597 Q8 608 -2 622 Q-12 636 -12 648 Q-12 652 -11 654 Q-6 674 10 693 Q26 712 51 712 Q66 710 77.5 708.5 Q89 707 94 702 Q95 701 95 699 Q95 693 86.5 685 Q78 677 70 672 Q67 669 61 666.5 Q55 664 49.5 660.5 Q44 657 39.5 652 Q35 647 35 641 Q35 633 42.5 628.5 Q50 624 69 612 Q89 598 118.5 564.5 Q148 531 191 472 Q212 443 241.5 411 Q271 379 305 339.5 Q339 300 376.5 250 Q414 200 450 136 Q484 76 504.5 15 Q525 -46 536.5 -97.5 Q548 -149 551.5 -187 Q555 -225 555 -240 L555 -247 Z " />
<glyph glyph-name="bracketright" unicode="&#x5d;" horiz-adv-x="329" d="M270 624 Q270 593 268.5 567 Q267 541 266 527 Q263 492 258 446 Q253 400 248 336 Q240 237 238.5 166.5 Q237 96 237 44 L237 -10 Q236 -15 236 -20 Q236 -25 236 -30 Q236 -56 237.5 -86 Q239 -116 244 -143 Q246 -160 247 -177.5 Q248 -195 250 -207 Q251 -215 252 -223 Q253 -231 253 -241 Q251 -258 240 -271 Q229 -284 221 -284 Q215 -284 215 -273 L215 -256 Q215 -250 215 -244 Q215 -238 213 -230 Q210 -216 205.5 -193.5 Q201 -171 196 -139 Q193 -116 191 -90 Q189 -64 189 -35 Q189 -23 189.5 -10.5 Q190 2 191 16 Q194 61 195.5 108 Q197 155 200 209 Q203 263 208.5 328 Q214 393 225 474 Q231 523 231 576 Q231 615 226 649.5 Q221 684 209 708 Q200 727 181.5 733.5 Q163 740 143 740 Q120 740 99 735 Q78 730 69 725 Q64 723 62 720.5 Q60 718 58 716 L56 705 Q55 703 55 700 Q55 693 59 683 Q60 678 61.5 673.5 Q63 669 63 664 Q63 658 60 654 Q56 644 52 644 Q49 644 44 652 Q42 656 39.5 659.5 Q37 663 34 666 L18 685 Q11 693 6 700.5 Q1 708 1 716 Q1 726 16 733 Q36 743 71.5 755 Q107 767 142 774 Q154 776 165 777 Q176 778 186 778 Q203 778 216.5 775 Q230 772 237 765 Q257 746 263.5 706 Q270 666 270 624 Z " />
<glyph glyph-name="asciicircum" unicode="&#x5e;" horiz-adv-x="269" d="M238 397 Q238 391 233 386 Q228 381 222 381 Q206 381 197 403 Q187 427 179.5 445 Q172 463 166.5 477.5 Q161 492 157 504 Q153 516 150 528 Q149 531 147 540 Q145 549 142 559.5 Q139 570 135 578 Q131 586 127 586 Q125 586 118 569 Q113 557 103 534 Q93 511 87 494 Q84 486 79.5 476 Q75 466 71 456 Q67 446 64 438 Q61 430 60 426 Q58 418 49 408.5 Q40 399 32 399 Q31 399 30.5 399.5 Q30 400 29 400 Q14 403 14 413 Q14 415 16 417 Q18 418 22.5 424.5 Q27 431 31.5 439 Q36 447 39.5 455 Q43 463 44 468 Q45 472 47.5 479.5 Q50 487 53.5 496 Q57 505 60.5 514 Q64 523 66 529 Q73 551 78 564 Q83 577 86.5 585 Q90 593 93 600 Q96 607 99 618 Q102 629 105 642 Q108 655 112 666 Q116 677 120.5 685.5 Q125 694 133 696 Q137 698 139 698 Q149 698 153 689.5 Q157 681 157 675 Q157 674 156.5 673.5 Q156 673 156 672 L156 668 Q156 663 159.5 650 Q163 637 173 603 Q178 585 181 574.5 Q184 564 186 556 Q188 548 190 540.5 Q192 533 195 522 Q199 504 203 492.5 Q207 481 211.5 470.5 Q216 460 221.5 447.5 Q227 435 233 415 Q235 410 236.5 405.5 Q238 401 238 397 Z " />
<glyph glyph-name="underscore" unicode="&#x5f;" horiz-adv-x="523" d="M523 -152 L462 -152 Q388 -152 320.5 -151 Q253 -150 174 -150 Q130 -150 87 -150 Q44 -150 0 -152 L0 -117 L89 -117 Q134 -117 177.5 -116 Q221 -115 266 -115 Q302 -115 333 -115.5 Q364 -116 394 -116 Q424 -116 455.5 -116.5 Q487 -117 523 -117 L523 -152 Z " />
<glyph glyph-name="grave" unicode="&#x60;" horiz-adv-x="233" d="M214 444 Q214 440 210 440 Q207 440 201 441.5 Q195 443 189 445.5 Q183 448 177.5 449.5 Q172 451 170 451 Q165 451 156.5 454 Q148 457 137.5 461.5 Q127 466 117 470.5 Q107 475 100 477 Q78 485 51.5 499 Q25 513 14 524 Q8 529 -1 536 Q-10 543 -10 550 Q-10 566 5 574 Q12 578 19 578 Q41 578 54 556 Q63 541 78 530.5 Q93 520 112 512 Q128 505 146 495 Q164 485 179 475.5 Q194 466 204 457.5 Q214 449 214 444 Z " />
<glyph glyph-name="a" unicode="a" horiz-adv-x="312" d="M167 -7 Q167 -4 166 -2 Q162 4 148.5 15.5 Q135 27 117 41 Q102 53 87 59 Q72 65 63 65 Q59 65 57 63 Q49 60 49 48 Q49 35 57.5 18.5 Q66 2 81 -10 Q103 -28 123 -28 Q128 -28 133 -27 Q138 -26 143 -24 Q153 -20 160 -16 Q167 -12 167 -7 Z M293 89 Q293 76 287 67 L281 58 Q279 56 277.5 53 Q276 50 272 45 L249 13 Q245 8 244 4.5 Q243 1 241 -4 L241 -16 Q241 -20 241.5 -24.5 Q242 -29 242 -34 Q242 -44 239 -49 Q236 -54 231 -58 Q223 -65 215 -65 Q210 -65 206.5 -62 Q203 -59 201 -55 Q199 -50 198.5 -46 Q198 -42 196 -39 Q194 -37 192 -35.5 Q190 -34 188 -34 Q186 -34 184 -36 Q180 -41 160 -52 Q140 -63 115 -63 Q112 -63 108.5 -63 Q105 -63 102 -62 Q73 -57 55.5 -39.5 Q38 -22 24 7 Q16 21 13 35 Q10 49 10 61 Q10 86 23 97 Q36 108 52 108 Q74 108 106 89 Q125 79 137 70 Q149 61 164 48 L180 34 Q189 27 192 27 Q197 28 197 32 L197 40 Q197 45 196 48 Q194 57 190 95 Q186 133 169 187 Q152 241 141.5 266.5 Q131 292 121 298 Q110 306 97 306 Q89 306 83 303 Q81 302 77.5 300.5 Q74 299 71 299 Q68 299 68 302 Q68 304 69 305 Q69 306 73 316 Q78 328 85.5 332.5 Q93 337 102 337 Q107 337 113 336 Q119 335 124 333 Q140 327 156 308.5 Q172 290 186 255 Q197 226 209 189.5 Q221 153 226 124 Q228 110 230.5 97 Q233 84 233 76 L235 64 Q235 62 237.5 60 Q240 58 241 58 Q246 61 256 73.5 Q266 86 271 91 Q280 101 286 101 Q290 101 292 95 Q293 93 293 89 Z " />
<glyph glyph-name="b" unicode="b" horiz-adv-x="270" d="M231 148 Q231 103 211 60 Q191 17 168 -21 Q162 -30 154.5 -42.5 Q147 -55 137 -66 Q127 -77 115 -84.5 Q103 -92 89 -92 Q81 -91 78.5 -86.5 Q76 -82 76 -76 Q76 -67 79.5 -58 Q83 -49 85 -44 Q87 -40 89 -36.5 Q91 -33 93 -30 Q97 -26 98 -26 Q99 -27 101 -27 Q111 -27 124 -15 Q137 -3 145 11 Q152 24 161 38.5 Q170 53 177.5 68.5 Q185 84 190.5 99.5 Q196 115 197 130 Q196 140 192 150 Q188 160 173 160 Q165 159 160 150 Q155 141 151 133 Q146 123 141.5 111.5 Q137 100 130 89 Q124 77 116.5 63 Q109 49 101 35 Q92 22 83 13 Q74 4 66 2 Q64 1 60 1 Q49 1 44.5 14.5 Q40 28 40 45 Q40 53 40.5 61 Q41 69 42 76 Q44 88 46.5 111.5 Q49 135 50.5 161.5 Q52 188 53.5 212 Q55 236 55 250 Q56 282 57 307 Q58 332 58 359 Q58 380 57 404.5 Q56 429 54 461 Q52 483 50.5 501 Q49 519 48 536 Q47 544 47 551.5 Q47 559 47 567 Q47 574 47 580 Q47 586 48 593 Q51 619 55.5 626.5 Q60 634 68 636 Q69 637 71 637 Q79 637 89.5 630.5 Q100 624 100 613 Q98 606 96 596.5 Q94 587 93 573 Q92 568 92 557 Q92 545 93 530.5 Q94 516 96 498 Q98 473 99.5 443 Q101 413 101 380 Q101 344 99.5 306.5 Q98 269 94 234 Q89 197 86.5 172.5 Q84 148 84 134 Q84 114 92 111 Q97 111 101.5 115.5 Q106 120 109 125 L128 156 Q139 176 152 192 Q165 208 182 211 Q184 212 190 212 Q205 212 218 199 Q231 186 231 148 Z " />
<glyph glyph-name="c" unicode="c" horiz-adv-x="272" d="M242 76 Q242 72 241 70 Q230 39 207 10 Q193 -7 171 -28.5 Q149 -50 126 -61 Q114 -67 103 -67 Q71 -67 43 -30 Q37 -21 33 -8 Q29 5 27 20 Q25 35 24 50.5 Q23 66 23 79 Q23 90 23 98.5 Q23 107 24 112 Q26 129 29.5 149 Q33 169 35 177 Q42 203 48 225 Q54 247 60 265 Q73 303 89 315 Q98 323 108.5 326 Q119 329 128 329 Q136 329 142.5 327.5 Q149 326 151 324 Q156 320 161.5 311 Q167 302 167 294 Q167 287 154 287 L150 287 Q148 287 146 287.5 Q144 288 141 288 Q131 290 124 290 Q112 290 107 283 Q98 269 91 246 Q84 223 78 181 Q73 146 71 123.5 Q69 101 69 88 Q69 82 70 80 L70 63 Q70 58 70 51.5 Q70 45 71 39 Q72 26 75 13 Q78 0 86 -9 Q91 -16 97.5 -18.5 Q104 -21 110 -21 Q124 -21 136.5 -13.5 Q149 -6 157 1 Q164 7 172 15 Q180 23 188 31 Q196 39 202.5 46 Q209 53 212 57 L230 81 Q231 82 232.5 84 Q234 86 236 86 Q240 86 240 84 Q242 80 242 76 Z " />
<glyph glyph-name="d" unicode="d" horiz-adv-x="296" d="M123 119 Q123 133 120.5 145 Q118 157 115 159 Q108 164 96 164 Q89 164 86 162 Q68 154 63.5 130 Q59 106 56 77 Q55 65 54.5 52.5 Q54 40 54 29 Q54 15 55.5 4.5 Q57 -6 61 -9 Q63 -11 66 -11 Q73 -11 81.5 -1.5 Q90 8 97 22 Q105 39 111 59 Q117 79 122 98 Q123 103 123 108.5 Q123 114 123 119 Z M171 368 Q171 384 168.5 403 Q166 422 164 439 Q162 456 159.5 469 Q157 482 157 487 Q155 497 152.5 507 Q150 517 146 517 Q143 515 143 507.5 Q143 500 141 488 Q140 482 140 468 Q140 454 140 434 Q140 412 140.5 386 Q141 360 142 336 Q143 322 143.5 301.5 Q144 281 145 262.5 Q146 244 147.5 230.5 Q149 217 151 217 Q154 219 157.5 233.5 Q161 248 164 263 Q167 277 169 301.5 Q171 326 171 355 L171 368 Z M296 9 Q296 4 293 1 Q289 -5 284 -16.5 Q279 -28 258 -36 Q245 -41 235 -41 Q221 -41 208.5 -35.5 Q196 -30 185 -22 Q176 -15 168.5 -6 Q161 3 156 11.5 Q151 20 146.5 25.5 Q142 31 139 31 Q134 26 129 17 Q124 8 118 -4 Q116 -9 111 -16.5 Q106 -24 98.5 -31.5 Q91 -39 82.5 -44.5 Q74 -50 64 -50 Q53 -50 45 -43 Q30 -32 25 -7.5 Q20 17 20 44 Q20 64 21.5 82 Q23 100 25 114 Q29 146 43 168.5 Q57 191 72 196 Q81 200 91 200 Q99 200 104 198.5 Q109 197 113 196 Q116 196 116 201 Q116 203 115.5 207 Q115 211 114 216 Q113 220 111.5 240 Q110 260 108.5 287.5 Q107 315 105.5 345.5 Q104 376 104 402 Q104 463 109 509.5 Q114 556 123 576 Q138 608 149 608 Q154 608 157 606 Q168 600 175 581 Q182 562 185 536 Q186 523 189.5 499 Q193 475 196 448 Q199 421 201.5 396 Q204 371 204 356 Q204 341 203 321 Q202 301 199.5 279 Q197 257 193 235 Q189 213 183 194 Q177 174 168.5 152 Q160 130 160 109 Q160 106 161.5 95 Q163 84 166.5 69.5 Q170 55 176.5 39 Q183 23 195 10 Q208 -4 220 -9 Q232 -14 241 -14 Q248 -14 253 -12.5 Q258 -11 260 -9 Q262 -8 266 -3.5 Q270 1 275 5.5 Q280 10 284.5 13.5 Q289 17 291 17 Q296 17 296 9 Z " />
<glyph glyph-name="e" unicode="e" horiz-adv-x="218" d="M130 149 Q130 153 129 156 Q128 161 125 167 Q122 173 114 173 Q109 172 104 163.5 Q99 155 95 144 Q89 130 89 120 Q89 118 89.5 115 Q90 112 92 112 Q100 112 117 124 Q125 129 127.5 136 Q130 143 130 149 Z M180 -4 Q180 -10 173 -13 Q165 -17 155 -25.5 Q145 -34 137 -42 Q133 -47 124.5 -50.5 Q116 -54 106 -54 Q98 -54 89.5 -50.5 Q81 -47 74 -37 Q60 -17 51.5 2 Q43 21 42 32 Q41 43 40 49 Q39 55 33 57 Q27 59 19.5 64.5 Q12 70 10 76 Q10 82 16 82 Q17 82 17.5 81.5 Q18 81 19 81 L26 81 Q35 81 40 85 Q45 89 47 111 Q49 133 59 155 Q63 163 67.5 174 Q72 185 79 195 Q86 205 95 212 Q104 219 116 219 Q136 219 145.5 209 Q155 199 158 191 Q160 187 164 175 Q168 163 168 148 Q168 137 163.5 125 Q159 113 147 103 Q133 91 123.5 86 Q114 81 107 78 Q100 75 96 73 Q92 71 90 66 Q85 58 85 42 Q85 34 86.5 24.5 Q88 15 93 6 Q100 -7 108.5 -12.5 Q117 -18 125 -18 Q128 -18 132 -16 Q139 -12 152.5 -4.5 Q166 3 173 3 Q180 2 180 -4 Z " />
<glyph glyph-name="f" unicode="f" horiz-adv-x="280" d="M92 245 Q92 252 87 252 Q85 252 81.5 233.5 Q78 215 75 196 Q74 190 69.5 166 Q65 142 59.5 113.5 Q54 85 49 59.5 Q44 34 42 25 Q39 11 39 3 L39 -3 Q40 -9 43 -9 Q45 -7 50.5 2 Q56 11 62 22 Q68 33 73.5 43 Q79 53 81 57 Q86 66 88 73.5 Q90 81 90 88 Q90 93 89.5 105.5 Q89 118 89 132 Q89 137 89 143 Q89 149 90 154 L90 197 Q90 209 90 219.5 Q90 230 91 236 Q91 238 91.5 240.5 Q92 243 92 245 Z M289 231 Q289 225 288 223 Q286 221 284 221 Q280 221 276 224 Q273 226 270 227.5 Q267 229 262 229 Q258 228 247 221.5 Q236 215 222.5 205.5 Q209 196 194.5 183 Q180 170 170 156 Q157 138 141 115 Q125 92 125 66 Q126 61 126 50 Q126 39 128 25 Q130 10 131.5 -5.5 Q133 -21 135 -34 Q136 -47 140.5 -77.5 Q145 -108 149.5 -141.5 Q154 -175 158 -204 Q162 -233 163 -244 Q165 -258 166.5 -272.5 Q168 -287 168 -302 Q168 -315 165.5 -324 Q163 -333 156 -333 Q155 -333 154.5 -332.5 Q154 -332 153 -332 Q131 -324 122.5 -315 Q114 -306 114 -287 Q114 -282 114.5 -276.5 Q115 -271 116 -265 Q116 -260 117.5 -257 Q119 -254 120 -250 Q121 -247 121.5 -243.5 Q122 -240 122 -235 Q122 -232 122 -228.5 Q122 -225 121 -220 Q120 -207 116.5 -177 Q113 -147 109.5 -115 Q106 -83 102.5 -55 Q99 -27 98 -17 L95 11 Q95 14 92 14 Q87 11 83 2.5 Q79 -6 77 -11 Q72 -20 66.5 -29 Q61 -38 52 -46 Q42 -53 34 -53 Q19 -53 11.5 -37.5 Q4 -22 4 -8 Q4 6 9 37 Q14 68 21 103 Q29 140 35.5 171.5 Q42 203 44 213 Q48 232 51.5 250 Q55 268 60.5 292.5 Q66 317 74.5 352.5 Q83 388 98 443 Q113 498 122 534.5 Q131 571 136.5 594 Q142 617 144.5 629.5 Q147 642 149 648 Q150 653 152.5 660 Q155 667 158 673 Q161 679 165.5 683 Q170 687 177 687 L181 687 Q189 685 192 678 Q195 671 195 661 Q195 650 192.5 638.5 Q190 627 187 616 L168 554 Q163 536 158.5 519 Q154 502 153 491 Q152 480 148 448 Q144 416 139 379 Q134 342 130 309 Q126 276 125 263 L122 193 Q121 183 121 174.5 Q121 166 121 159 Q121 146 122 146 Q123 146 124.5 149.5 Q126 153 128 155 Q133 160 141 171 Q144 175 152 184 Q160 193 169.5 202.5 Q179 212 188 220.5 Q197 229 202 233 Q222 248 239 256 Q256 264 267 264 L272 264 Q280 262 284.5 251 Q289 240 289 231 Z " />
<glyph glyph-name="g" unicode="g" horiz-adv-x="285" d="M254 -45 Q254 -80 251.5 -121.5 Q249 -163 243 -214 Q237 -261 225 -305 Q213 -349 200 -384.5 Q187 -420 177 -443.5 Q167 -467 166 -471 Q164 -477 158.5 -481.5 Q153 -486 147 -486 Q142 -486 137 -481 Q132 -477 130.5 -469 Q129 -461 129 -450 Q129 -428 136 -411 Q143 -392 158.5 -366 Q174 -340 185 -310 Q190 -295 195 -263 Q200 -231 203.5 -192 Q207 -153 209.5 -112 Q212 -71 212 -38 Q212 -5 210 23 Q208 51 205 71.5 Q202 92 199 103.5 Q196 115 194 115 Q189 115 182.5 105 Q176 95 169 84 Q166 78 159 68.5 Q152 59 141.5 49.5 Q131 40 117.5 33 Q104 26 88 26 Q73 26 63 33 Q53 40 45.5 52 Q38 64 32.5 79 Q27 94 23 109 Q21 120 19.5 130.5 Q18 141 18 152 Q18 171 21.5 186 Q25 201 30 209 Q35 218 39 224.5 Q43 231 48 236 Q53 241 61.5 244 Q70 247 84 248 L88 248 Q113 248 132 226 Q133 226 133 225 Q133 222 134 220 Q140 205 140 186 Q140 169 138 153.5 Q136 138 132 133 L124 120 Q121 120 118 128 Q112 141 109.5 154.5 Q107 168 106 179 Q106 187 105 193.5 Q104 200 103 203 Q101 206 100 206 Q98 206 96.5 209 Q95 212 93 212 Q60 212 57 180 L57 167 Q57 149 59.5 128 Q62 107 67 94 Q72 80 79.5 75.5 Q87 71 96 71 L102 71 Q113 73 125 85.5 Q137 98 145 115 Q153 132 164.5 150 Q176 168 187 170 Q188 170 188.5 170.5 Q189 171 190 171 Q202 171 218 154.5 Q234 138 242 92 Q247 64 250.5 31 Q254 -2 254 -45 Z " />
<glyph glyph-name="h" unicode="h" horiz-adv-x="342" d="M332 60 Q332 49 314 28 Q304 18 293 8.5 Q282 -1 271 -1 Q267 -1 261 2 Q255 5 250.5 9.5 Q246 14 242.5 21.5 Q239 29 235.5 40.5 Q232 52 227 71 Q222 89 219 103 Q216 117 213 126 Q210 136 206 145 Q202 154 196 156 Q191 159 186 159 Q178 159 172 153.5 Q166 148 158 137 Q148 123 130 93.5 Q112 64 102 31 Q96 10 92.5 -4 Q89 -18 87 -27 Q83 -45 76 -52 Q72 -57 68.5 -61 Q65 -65 60 -69 Q53 -76 47 -76 Q45 -76 44.5 -75.5 Q44 -75 43 -75 Q33 -72 30.5 -53.5 Q28 -35 24 0 Q21 22 21 68 Q21 113 23.5 169.5 Q26 226 31 276 Q35 312 37 334 Q39 356 40.5 369.5 Q42 383 43.5 393 Q45 403 47 415 Q57 477 68.5 516 Q80 555 90 563 Q98 569 112 573.5 Q126 578 138 578 Q140 578 142.5 577.5 Q145 577 147 577 Q153 575 156 571.5 Q159 568 159 565 Q159 558 152 555 Q148 553 142 551.5 Q136 550 130 547 Q124 545 118.5 541 Q113 537 111 531 Q109 526 104.5 502.5 Q100 479 95 446.5 Q90 414 85 376.5 Q80 339 77 305 Q74 271 72 236 Q70 201 69 171 Q68 141 67.5 119 Q67 97 66 89 Q65 84 65 77 Q65 69 66 67 Q67 65 67.5 63.5 Q68 62 73 62 Q74 63 78 70 L83 85 Q86 93 90.5 104 Q95 115 102 126 Q108 136 117 148.5 Q126 161 137 172 Q148 183 161 190.5 Q174 198 189 198 Q201 198 210.5 193 Q220 188 227 181 Q234 174 238.5 167 Q243 160 245 156 Q257 129 260 107 L264 73 Q266 62 270.5 49 Q275 36 283 36 Q285 36 287 38 Q289 39 294 44.5 Q299 50 305 55 Q311 60 317 64.5 Q323 69 327 69 Q329 69 330 68 Q332 64 332 60 Z " />
<glyph glyph-name="i" unicode="i" horiz-adv-x="168" d="M127 9 Q127 7 123 4 Q118 -2 111 -8.5 Q104 -15 101 -26 Q99 -37 96.5 -50 Q94 -63 87 -65 Q86 -66 83 -66 Q75 -66 66 -59 Q57 -52 53 -41 Q48 -28 44.5 -1.5 Q41 25 41 46 Q41 70 40 87.5 Q39 105 39 125 Q39 136 39.5 149 Q40 162 41 179 Q44 218 46 240.5 Q48 263 53 269 Q59 282 71 282 Q72 282 73 281.5 Q74 281 75 281 Q88 280 88 268 Q88 265 87.5 262.5 Q87 260 86 256 Q84 245 82 221 Q80 197 80 152 L80 89 Q80 67 81 45 Q82 23 86 2 Q86 -1 88 -1 Q96 -1 101 6.5 Q106 14 116 14 Q121 12 124 11.5 Q127 11 127 9 Z M106 531 Q106 529 104 527 Q100 523 93 523 Q84 523 68 530 Q57 535 46 541 Q35 547 29 552 Q20 559 13.5 566 Q7 573 7 581 Q7 588 13 594 Q21 602 29 602 Q36 602 41.5 598.5 Q47 595 51 593 Q56 589 68 577.5 Q80 566 88 553 Q95 543 100.5 539 Q106 535 106 531 Z " />
<glyph glyph-name="j" unicode="j" horiz-adv-x="275" d="M210 -100 Q210 -141 205 -179.5 Q200 -218 186 -251 Q165 -305 134.5 -343 Q104 -381 64 -386 Q59 -387 55 -387.5 Q51 -388 47 -388 Q26 -388 10.5 -380.5 Q-5 -373 -15 -362 Q-25 -351 -30 -338.5 Q-35 -326 -35 -316 Q-35 -311 -33 -305 Q-27 -289 -14.5 -272.5 Q-2 -256 18 -241 Q28 -233 41 -224 Q54 -215 69 -215 Q91 -217 91 -227 Q90 -232 88 -233 Q86 -234 73 -237 Q62 -241 52 -249 Q47 -254 42.5 -259 Q38 -264 31 -270 Q20 -280 12 -291 Q4 -302 4 -313 Q4 -321 8 -326 Q13 -337 25.5 -342.5 Q38 -348 52 -348 Q62 -348 71 -345 Q81 -342 94 -329.5 Q107 -317 119.5 -296 Q132 -275 143.5 -246.5 Q155 -218 161 -185 Q165 -163 167 -142.5 Q169 -122 169 -102 Q169 -59 160 -12.5 Q151 34 134 98 Q122 145 113.5 170 Q105 195 100 208 L91 225 L87 236 Q83 247 77.5 257 Q72 267 64 267 Q63 267 62.5 266.5 Q62 266 61 266 L55 266 Q50 266 42 268 Q38 272 38 274 Q38 276 43 281 L53 288 L61 292 Q65 294 68 297 Q71 300 75 305 Q80 310 88 310 Q105 310 119 278 Q125 264 129 250 Q133 236 138 224 Q143 212 151.5 186 Q160 160 168 139 Q170 136 174.5 122.5 Q179 109 185 88 Q191 67 197 39.5 Q203 12 206 -18 Q208 -38 209 -59 Q210 -80 210 -100 Z M101 478 Q101 474 99 472 Q96 470 89 468 Q82 466 71 466 Q59 466 49 471 Q33 479 21.5 491 Q10 503 10 517 Q10 521 11 524 Q13 532 19 538.5 Q25 545 32 550 L37 555 Q51 566 67 566 L74 566 Q80 564 84.5 560 Q89 556 89 548 Q87 539 83.5 535.5 Q80 532 72 528 Q70 527 61 522.5 Q52 518 52 513 Q52 511 53 510 Q55 506 64.5 498 Q74 490 80 488 Q84 487 86.5 486.5 Q89 486 91 486 Q95 486 97 487 Q99 487 100 484 Q101 481 101 478 Z " />
<glyph glyph-name="k" unicode="k" horiz-adv-x="405" d="M398 56 Q398 47 389 39 Q376 28 359 13.5 Q342 -1 314 -10 Q296 -15 283 -19 Q270 -23 254 -23 Q246 -23 236 -22 Q226 -21 214 -18 Q208 -17 201.5 -11.5 Q195 -6 188.5 -0.5 Q182 5 176.5 9.5 Q171 14 168 14 Q162 12 157.5 8 Q153 4 148 -2 Q143 -9 130 -21.5 Q117 -34 103 -44 Q98 -47 93.5 -49 Q89 -51 82 -51 Q75 -51 65 -48 Q57 -45 49.5 -37 Q42 -29 35 -13 Q28 3 23.5 28 Q19 53 19 88 L19 148 Q19 167 19 182 Q19 197 19.5 209 Q20 221 20.5 232 Q21 243 22 254 Q27 319 34 369.5 Q41 420 46 450 Q51 479 53.5 496.5 Q56 514 69 519 Q73 521 80 521 Q87 521 90.5 516.5 Q94 512 94 506 Q94 502 92.5 479.5 Q91 457 88.5 427 Q86 397 83 366.5 Q80 336 76 317 Q73 298 70 276.5 Q67 255 65 234.5 Q63 214 61.5 197 Q60 180 60 169 L60 144 Q60 127 60.5 106 Q61 85 61.5 64.5 Q62 44 63.5 26.5 Q65 9 68 0 Q71 -15 79 -15 Q86 -15 93.5 -7.5 Q101 0 107 5 Q116 13 128 30 Q140 47 146 57 Q153 68 158.5 77 Q164 86 168 98 Q169 104 176 118 Q183 132 192 149 Q201 166 210.5 182 Q220 198 228 209 Q244 230 268 246 Q292 262 311 262 Q322 262 325.5 256.5 Q329 251 329 244 Q329 232 324 225 Q319 220 303.5 200 Q288 180 272 160 Q264 150 253.5 137 Q243 124 233.5 112 Q224 100 217 90 Q210 80 208 76 Q206 71 203.5 66 Q201 61 201 56 Q201 43 220 32 Q236 24 249.5 21 Q263 18 274 18 Q285 18 289 19 Q304 20 320.5 23.5 Q337 27 356 43 Q367 52 376 59 Q385 66 390 68 Q398 68 398 56 Z " />
<glyph glyph-name="l" unicode="l" horiz-adv-x="188" d="M169 30 Q169 27 168 26 Q166 20 157 15 Q146 8 140 1.5 Q134 -5 126 -16 Q117 -29 105 -46.5 Q93 -64 79 -70 Q71 -74 63 -74 Q52 -74 46 -65.5 Q40 -57 34 -40 Q30 -29 28 -17 Q26 -5 26 10 Q26 26 28 45.5 Q30 65 32 91 Q37 140 41 176.5 Q45 213 47 254 Q49 299 51 347.5 Q53 396 53 438 Q53 460 52.5 478 Q52 496 51 508 Q47 545 42 580.5 Q37 616 33 629 Q26 649 26 663 Q26 674 30 680.5 Q34 687 41 694 Q51 705 59 705 Q65 705 70 694 Q75 684 75.5 675 Q76 666 76 655 Q76 649 77.5 637 Q79 625 81 610 Q83 595 85 579 Q87 563 89 549 Q92 527 94.5 487 Q97 447 97 396 Q97 383 96.5 370.5 Q96 358 96 344 Q96 312 93 279 Q90 246 88 216 Q86 187 83.5 156 Q81 125 79 97 Q77 69 75 47 Q73 25 72 15 L72 1 Q72 -5 72 -10 Q72 -15 73 -20 Q74 -22 75 -26.5 Q76 -31 81 -31 Q86 -30 88.5 -27.5 Q91 -25 94 -21 L98 -16 Q106 -5 117.5 7.5 Q129 20 139 25 Q144 27 149.5 29.5 Q155 32 160 33 L164 33 Q169 33 169 30 Z " />
<glyph glyph-name="m" unicode="m" horiz-adv-x="513" d="M500 37 Q500 34 496 27 Q488 14 482 7.5 Q476 1 468 -4 Q465 -6 456 -6 Q446 -6 433.5 -1 Q421 4 413 17 Q402 34 396 50.5 Q390 67 388 73 Q386 86 380 86 Q376 86 373 78 Q371 73 365 60.5 Q359 48 351.5 32.5 Q344 17 336 1.5 Q328 -14 322 -24 Q311 -43 298 -57 Q285 -71 267 -71 Q264 -71 262 -70 Q251 -69 244.5 -63.5 Q238 -58 233 -49 Q227 -39 223 -26 L213 5 Q202 39 199.5 61 Q197 83 195 98 Q193 112 190 128 Q187 144 182 146 Q177 146 168 131.5 Q159 117 150 100 Q145 91 137.5 75.5 Q130 60 121 44 Q112 28 102.5 14.5 Q93 1 85 -4 Q74 -10 67 -10 Q54 -10 44 10 Q41 16 37.5 28.5 Q34 41 30.5 57 Q27 73 25 89.5 Q23 106 23 119 L23 123 Q24 143 26.5 155 Q29 167 38 172 Q43 174 47.5 177 Q52 180 57 182 Q61 184 66 184 Q71 184 73 182 Q82 176 82 164 Q82 159 79 156 Q74 151 68.5 144.5 Q63 138 63 129 Q63 120 64.5 100.5 Q66 81 69 70 Q72 59 77 59 Q82 59 88 69 Q93 79 106 102 Q119 125 132 144 Q138 153 143.5 161.5 Q149 170 155 177 Q160 184 165.5 188.5 Q171 193 177 195 Q180 196 185 196 Q204 196 208 180 Q215 160 222 137.5 Q229 115 234 92 Q240 69 246.5 45 Q253 21 258 10 Q260 5 262.5 -0.5 Q265 -6 268 -10 Q271 -13 274 -13 Q280 -13 284 -6 Q293 7 306.5 32 Q320 57 329 78 Q334 89 338.5 100.5 Q343 112 348 122 Q360 145 370 148 Q378 150 382 150 Q401 150 407 133 L414 111 Q418 97 432 75 Q435 70 437.5 65.5 Q440 61 443 57 L452 43 Q460 33 468 33 Q472 33 474 34 Q479 36 485 37.5 Q491 39 498 39 Q500 39 500 37 Z " />
<glyph glyph-name="n" unicode="n" horiz-adv-x="303" d="M286 76 Q286 71 285 69 Q281 54 274 40 Q267 26 255 9 Q244 -5 235.5 -15 Q227 -25 217 -25 Q213 -25 211 -24 Q199 -20 189 -2.5 Q179 15 177 33 Q175 52 174.5 71 Q174 90 169 107 Q165 124 164 134.5 Q163 145 160 145 Q156 145 151 133 Q146 121 141 100 Q139 90 138 84 Q137 78 135 70.5 Q133 63 129.5 53 Q126 43 119 25 Q117 20 112.5 8.5 Q108 -3 102.5 -14.5 Q97 -26 89.5 -35 Q82 -44 74 -44 Q61 -42 54.5 -32.5 Q48 -23 45 -9 Q43 -2 40.5 15.5 Q38 33 35 54.5 Q32 76 30 98.5 Q28 121 27 138 L27 153 Q27 182 29.5 203 Q32 224 34 228 Q39 242 44 252 Q49 262 57 263 Q58 263 58.5 263.5 Q59 264 60 264 Q68 264 75 258.5 Q82 253 82 245 Q82 242 81 241 Q79 231 72.5 216 Q66 201 66 181 L66 176 Q68 154 71 133.5 Q74 113 76 103 L76 71 Q76 65 77 56.5 Q78 48 82 48 Q85 48 88 55 Q91 62 93.5 71 Q96 80 97.5 89.5 Q99 99 100 104 Q100 109 104 121.5 Q108 134 114 148 Q120 162 127 174.5 Q134 187 142 193 Q152 200 161 200 Q172 200 179 194.5 Q186 189 189 185 Q194 180 201.5 164 Q209 148 214 114 Q216 98 218 82.5 Q220 67 222 54.5 Q224 42 226.5 34 Q229 26 232 26 Q235 28 241.5 37 Q248 46 254.5 56 Q261 66 267 75 Q273 84 274 87 Q274 90 277 90 Q280 90 283 86.5 Q286 83 286 76 Z " />
<glyph glyph-name="o" unicode="o" horiz-adv-x="217" d="M152 90 Q152 107 144.5 119.5 Q137 132 120 143 Q109 149 103 152 Q97 155 92 165 Q90 169 88.5 172.5 Q87 176 85 176 Q84 176 81 173 Q79 171 76 163 Q73 155 69 144.5 Q65 134 61.5 123 Q58 112 56 105 Q54 93 52.5 82 Q51 71 51 60 Q51 41 53.5 27 Q56 13 58 7 Q61 -1 69 -10.5 Q77 -20 86 -20 Q89 -20 94 -17 Q107 -10 123.5 12 Q140 34 148 62 Q150 70 151 77 Q152 84 152 90 Z M190 79 Q190 67 187.5 54 Q185 41 179 29 Q159 -9 140 -29 Q121 -49 102 -55 Q98 -57 90 -57 Q73 -57 58.5 -45 Q44 -33 35 -19 Q28 -8 21 12 Q14 32 14 62 Q14 82 18.5 105.5 Q23 129 34 158 Q44 184 54.5 202.5 Q65 221 74 221 Q79 220 83 218.5 Q87 217 89 211 Q92 208 93 208 Q96 208 98 209 Q107 213 114 213 Q125 213 138 199 Q145 191 151 182 Q157 173 163 165 Q173 150 181.5 127.5 Q190 105 190 79 Z " />
<glyph glyph-name="p" unicode="p" horiz-adv-x="229" d="M61 -233 Q61 -223 61 -212.5 Q61 -202 60 -191 Q59 -179 58.5 -163.5 Q58 -148 57.5 -133.5 Q57 -119 56.5 -108 Q56 -97 56 -93 Q55 -89 54 -81 Q53 -73 51 -71 Q49 -69 48 -69 Q46 -69 46 -71 Q45 -73 45 -79 Q45 -85 45 -89 L45 -117 Q45 -129 45.5 -145 Q46 -161 46.5 -177 Q47 -193 48 -206.5 Q49 -220 50 -227 Q51 -234 51 -240 Q51 -246 51 -251 Q52 -253 52 -261.5 Q52 -270 57 -270 Q59 -269 60 -256.5 Q61 -244 61 -233 Z M179 241 Q179 246 176 246 Q175 246 171.5 244.5 Q168 243 167 243 Q163 240 152 226.5 Q141 213 126 192 Q115 177 103.5 156.5 Q92 136 84 117 Q83 116 80 110 Q77 104 77 100 Q77 99 78 98 Q78 97 79 97 Q82 97 85 101 Q88 105 91 107 Q102 118 110.5 129.5 Q119 141 128 152 Q153 182 170 214 Q175 221 176.5 226.5 Q178 232 179 236 L179 241 Z M211 249 Q211 241 210 232 Q209 223 206 215 Q200 197 186 175 Q172 153 150 123 Q139 107 127.5 92.5 Q116 78 106 65 Q96 53 89 43.5 Q82 34 80 30 Q76 22 74.5 16 Q73 10 73 -1 Q73 -7 74 -11 Q75 -28 79 -60.5 Q83 -93 86 -131 Q88 -159 90 -190 Q92 -221 92 -255 Q92 -268 91.5 -280 Q91 -292 90 -306 Q89 -320 89 -331 Q89 -342 89 -350 L89 -369 Q89 -374 89.5 -377 Q90 -380 90 -383 Q90 -385 89.5 -386 Q89 -387 89 -389 Q87 -392 85.5 -394 Q84 -396 79 -396 Q73 -396 66 -391 Q55 -385 44.5 -359 Q34 -333 26 -303 Q22 -289 18.5 -264.5 Q15 -240 12.5 -211.5 Q10 -183 8.5 -154 Q7 -125 7 -102 L7 -98 Q7 -75 9.5 -48.5 Q12 -22 16.5 3.5 Q21 29 26.5 52 Q32 75 38 92 Q46 118 56.5 144 Q67 170 80 193 Q104 236 130.5 261 Q157 286 168 291 Q170 293 176 294.5 Q182 296 185 296 Q197 296 205 280 Q211 268 211 249 Z " />
<glyph glyph-name="q" unicode="q" horiz-adv-x="348" d="M155 224 Q155 226 154 227 Q152 227 148 218 L133 188 Q122 168 111.5 137.5 Q101 107 85 72 Q69 36 61.5 16 Q54 -4 54 -12 L54 -16 Q55 -20 60 -20 Q64 -20 71 -16 Q78 -12 87 -7 Q93 -3 100.5 6 Q108 15 115.5 25.5 Q123 36 129.5 46 Q136 56 141 63 Q147 73 148.5 80 Q150 87 150 97 L154 186 Q155 197 155 204.5 Q155 212 155 217 L155 224 Z M326 -544 Q326 -546 323 -549 Q318 -553 308 -553 L290 -553 Q285 -553 277.5 -551.5 Q270 -550 263 -543.5 Q256 -537 251 -525 Q246 -513 246 -492 L246 -457 Q246 -431 246.5 -397 Q247 -363 247.5 -325 Q248 -287 249 -246 Q250 -205 251 -166 Q252 -137 252.5 -114 Q253 -91 253 -71 Q253 -41 252.5 -17 Q252 7 252 30 Q252 43 252 55.5 Q252 68 253 82 L258 142 Q259 153 259.5 162 Q260 171 260 176 L260 179 Q260 180 259.5 180.5 Q259 181 259 182 L255 176 L245 156 L213 106 Q202 89 194 76 Q186 63 185 61 L183 49 Q182 45 181 41.5 Q180 38 177 34 Q175 30 171.5 29 Q168 28 164 27 L161 26 Q155 24 153 21 L143 7 Q128 -13 106.5 -33 Q85 -53 61 -58 Q57 -59 49 -59 Q32 -59 25 -49 Q18 -39 18 -23 Q18 -15 20 -5 Q22 5 25 15 Q36 46 46 77 Q56 108 73 149 Q82 171 90.5 190 Q99 209 112 230 L131 263 Q138 275 146 284 Q158 299 175 303 Q178 304 183 304 Q194 304 198.5 295 Q203 286 203 277 Q203 271 202 268 Q199 259 197.5 242 Q196 225 195 209 L190 164 Q189 158 188.5 153 Q188 148 188 144 L188 138 Q191 140 198 148.5 Q205 157 212 172 L236 215 Q243 228 249 240 Q255 252 257 260 Q260 269 262.5 278 Q265 287 269 295 Q272 303 275.5 308 Q279 313 284 315 L288 315 Q296 315 302.5 310 Q309 305 309 297 Q309 294 308 293 Q305 284 304 274 Q303 264 302 247 Q302 239 300 209.5 Q298 180 296.5 144 Q295 108 293.5 71.5 Q292 35 292 13 Q292 -9 291.5 -44 Q291 -79 290 -117.5 Q289 -156 287.5 -191.5 Q286 -227 285 -250 Q283 -276 283 -314.5 Q283 -353 283 -389 Q283 -423 283 -449 Q283 -475 284 -483 Q285 -489 285 -497 Q285 -505 287 -511 Q290 -521 301 -525 Q314 -530 321 -536 Q326 -539 326 -544 Z " />
<glyph glyph-name="r" unicode="r" horiz-adv-x="253" d="M232 213 Q232 212 230 208 Q229 207 226 207 Q222 207 218.5 208.5 Q215 210 210 210 Q205 210 201 207 Q193 201 179 186.5 Q165 172 154 158 Q143 145 137 133 Q131 121 125 98 Q122 86 117.5 70.5 Q113 55 109 38.5 Q105 22 101 7 Q97 -8 94 -18 Q89 -37 85 -50.5 Q81 -64 73 -69 Q72 -70 69 -70 Q62 -70 55 -59.5 Q48 -49 43 -35 Q40 -28 38 -23 Q36 -18 34.5 -12.5 Q33 -7 31.5 2 Q30 11 29 26 Q26 63 26 99 Q26 137 29.5 168.5 Q33 200 39 223 Q49 257 58.5 269.5 Q68 282 78 285 Q84 287 85 287 Q91 287 94.5 283.5 Q98 280 99 276 Q102 270 102 261 Q102 252 98 247 Q93 242 88 238 Q83 234 78 226 Q74 218 67.5 196.5 Q61 175 61 143 L61 116 Q61 91 62 73 Q63 55 65 48 Q66 40 69 40 Q72 40 74 49 Q75 53 78 65.5 Q81 78 85 94 Q89 110 93.5 125.5 Q98 141 102 152 Q106 162 113.5 173 Q121 184 129 194 Q137 204 145 212 Q153 220 158 225 Q166 231 175 240.5 Q184 250 197 250 Q206 250 212 245.5 Q218 241 222 236 Q225 232 228.5 225 Q232 218 232 213 Z " />
<glyph glyph-name="s" unicode="s" horiz-adv-x="219" d="M104 48 Q102 46 99 40.5 Q96 35 93 30 Q84 16 76.5 3 Q69 -10 61 -25 L46 -56 Q43 -62 40 -69.5 Q37 -77 37 -87 Q38 -91 40 -93 Q42 -95 48 -95 Q57 -94 69.5 -81 Q82 -68 92 -42 Q100 -21 103 -6.5 Q106 8 107 18 L107 22 Q107 27 106.5 38 Q106 49 104 48 Z M187 191 Q187 189 185.5 186 Q184 183 182 181 Q179 176 176 172 Q173 168 171 163 Q168 157 163 148.5 Q158 140 153 132 Q150 127 145.5 119 Q141 111 141 105 Q141 100 143 89.5 Q145 79 146 62 L146 48 Q146 34 145 17 Q144 0 141 -18 Q133 -65 112 -94.5 Q91 -124 62 -128 L50 -128 Q30 -128 16 -119 Q2 -110 2 -93 Q2 -85 5 -76 Q14 -51 27 -29 L46 5 Q55 20 63 33.5 Q71 47 77 58 Q91 81 93 89 Q94 91 94 96 Q94 110 88 118 L54 176 Q43 195 33 214 Q23 233 19 247 Q15 260 15 274 Q15 292 25.5 305 Q36 318 63 330 Q74 334 89.5 340 Q105 346 116 346 Q118 346 119 345.5 Q120 345 122 345 Q124 345 130 344 Q136 343 142.5 341.5 Q149 340 154.5 336.5 Q160 333 163 329 Q170 320 170 314 Q170 307 164 306 Q163 305 159 305 Q155 305 150.5 306.5 Q146 308 142 309 Q140 309 138 309.5 Q136 310 131 310 Q122 310 112.5 307.5 Q103 305 88 296 Q81 291 74 287 L63 280 Q60 277 58 274.5 Q56 272 56 267 Q58 246 84 209 Q98 190 111 171 Q124 152 128 141 L129 141 Q130 141 131 142 L134 146 Q141 156 147.5 165.5 Q154 175 162 184 Q165 188 168.5 192 Q172 196 175 198 Q177 200 180 200 Q183 200 186 195 Q186 194 186.5 193.5 Q187 193 187 191 Z " />
<glyph glyph-name="t" unicode="t" horiz-adv-x="264" d="M260 164 Q260 160 257 155.5 Q254 151 245 146 Q237 141 231.5 139.5 Q226 138 222 138 Q220 138 218.5 138 Q217 138 212 139 Q211 140 207 140 Q202 140 194 139.5 Q186 139 177.5 138.5 Q169 138 161.5 136.5 Q154 135 152 134 Q149 131 149 113 L149 75 Q148 65 147 47.5 Q146 30 144 10 Q142 -10 138.5 -27.5 Q135 -45 129 -56 Q121 -69 111 -74.5 Q101 -80 90 -80 Q78 -80 68 -74 Q56 -68 46.5 -49 Q37 -30 37 -13 Q37 -11 37.5 -8.5 Q38 -6 38 -4 Q39 0 41 0 Q42 0 46 -6 Q50 -11 52.5 -17 Q55 -23 57 -28 Q60 -33 62 -38.5 Q64 -44 68 -49 Q74 -55 79 -55 Q85 -55 89 -51 Q94 -47 98 -33.5 Q102 -20 104.5 -3.5 Q107 13 108 30 Q109 47 109 59 Q109 67 108 70 Q108 80 108 89.5 Q108 99 107 107 Q106 115 105.5 120.5 Q105 126 101 126 Q98 126 90 125 Q82 124 73 122 Q64 120 55.5 117.5 Q47 115 43 113 Q29 106 29 93 Q29 89 32 85 Q33 83 33.5 82 Q34 81 34 79 Q34 76 28 76 Q23 76 21 77 Q13 79 4.5 87.5 Q-4 96 -4 109 Q-4 119 3 129 Q13 143 32 150.5 Q51 158 67 161 L93 167 Q103 168 103 181 Q103 182 103 189 Q103 196 102.5 204 Q102 212 102 219.5 Q102 227 102 231 L102 257 Q102 296 101 324 Q100 352 99.5 372 Q99 392 98 406 Q97 420 97 432 Q96 443 96 454.5 Q96 466 96 477 Q96 513 98.5 548.5 Q101 584 106 616 Q114 659 122 674.5 Q130 690 147 690 Q157 690 159.5 680 Q162 670 162 659 Q162 648 161 644 Q161 634 158 616 Q156 607 154 597.5 Q152 588 149 580 Q142 563 141 547 Q140 531 138 513 L138 487 Q138 467 138.5 442 Q139 417 141 389 Q143 349 145.5 308.5 Q148 268 148 226 L148 197 Q148 189 149 183.5 Q150 178 152 178 Q154 178 160.5 179 Q167 180 175 180 L210 180 Q218 179 224.5 178.5 Q231 178 236 176 Q241 175 245.5 174 Q250 173 253 172 Q260 170 260 164 Z " />
<glyph glyph-name="u" unicode="u" horiz-adv-x="289" d="M282 16 Q282 14 280 8 Q276 -2 264.5 -13.5 Q253 -25 241 -31 Q231 -36 223 -36 Q215 -36 206 -31 Q197 -26 188 -14 Q174 4 167.5 26 Q161 48 159 57 Q157 66 157 76.5 Q157 87 154 87 Q151 87 146.5 73.5 Q142 60 138 47 Q134 34 128.5 20 Q123 6 111 -11 Q102 -25 92 -35 Q82 -45 70 -45 Q63 -45 56 -42 Q42 -35 32.5 -9 Q23 17 23 62 Q23 71 23 80 Q23 89 24 99 Q29 159 32 185 Q35 211 35 223 Q35 226 34.5 229.5 Q34 233 34 237 Q34 249 36 253 Q41 264 46 264 Q50 264 53 263 Q59 261 65 255.5 Q71 250 71 235 Q71 233 70.5 231 Q70 229 70 227 Q68 208 66 183 Q64 158 64 136 L64 126 Q64 110 64.5 90.5 Q65 71 65 54 L65 25 Q65 6 75 6 Q81 7 87.5 24 Q94 41 101 61 Q109 81 117 108 Q125 135 129 161 Q134 187 136 206 Q138 225 155 230 Q157 230 158.5 230.5 Q160 231 162 231 Q174 231 177.5 219.5 Q181 208 181 203 L181 189 Q181 179 182 167 Q183 155 185 147 Q186 141 188.5 129.5 Q191 118 193.5 104.5 Q196 91 198.5 77 Q201 63 203 53 Q204 47 207 37.5 Q210 28 215 19 Q220 10 226.5 3.5 Q233 -3 242 -4 Q250 0 256 7 Q262 14 268 21 Q272 24 275 24 Q282 24 282 16 Z " />
<glyph glyph-name="v" unicode="v" horiz-adv-x="279" d="M280 259 Q280 255 273 254 Q262 253 254.5 248.5 Q247 244 240 232 Q233 220 225 198.5 Q217 177 206 142 Q195 107 183.5 71 Q172 35 158 6 Q144 -23 130 -41.5 Q116 -60 101 -65 Q93 -67 91 -67 Q77 -67 66.5 -56 Q56 -45 48.5 -29 Q41 -13 36.5 5.5 Q32 24 31 39 Q28 67 28 100 L28 142 Q28 152 28 161 Q28 170 27 177 Q25 194 22.5 206.5 Q20 219 18 230 Q17 235 17 242 Q17 251 21 255 Q27 263 36 263 Q42 263 47 258 Q52 253 54 240 Q56 214 59.5 183 Q63 152 63 120 L63 106 Q63 74 68 49 Q73 24 78 9 Q85 -10 96 -10 Q106 -10 114 8 L139 58 Q147 75 154.5 95.5 Q162 116 166 133 Q170 149 175 169 Q180 189 186.5 207.5 Q193 226 201.5 241 Q210 256 221 264 Q236 276 255 276 Q262 276 265 275 Q268 273 274 268.5 Q280 264 280 259 Z " />
<glyph glyph-name="w" unicode="w" horiz-adv-x="414" d="M408 238 Q407 230 402 223 Q397 216 391 208.5 Q385 201 378 193 Q371 185 367 174 Q360 157 353 137.5 Q346 118 338 85 Q335 69 331.5 52 Q328 35 323 18.5 Q318 2 309 -13.5 Q300 -29 286 -42 Q258 -67 239 -67 Q219 -67 207 -40 Q201 -26 196 -12 Q191 2 187 12 Q179 36 174 36 Q171 36 165.5 29 Q160 22 153 12 Q147 2 139 -9.5 Q131 -21 122 -32 Q110 -46 101 -53.5 Q92 -61 83 -61 Q75 -61 63 -54 Q56 -50 50 -39.5 Q44 -29 39.5 -17 Q35 -5 32 7.5 Q29 20 29 30 Q28 38 27.5 46.5 Q27 55 27 63 L27 72 Q27 102 31 124 Q35 146 35 170 Q35 175 35 180 Q35 185 34 190 Q33 196 32 205 Q31 214 31 223 L31 231 Q32 247 42 247 Q54 247 62 232 Q70 217 70 206 Q68 190 68 177.5 Q68 165 68 154 Q68 141 68.5 128 Q69 115 69 98 Q69 76 70 60 Q71 44 73 36 Q77 22 82.5 10.5 Q88 -1 95 -1 Q98 -1 103 4 Q108 10 114 20 Q120 30 125.5 41 Q131 52 136.5 62.5 Q142 73 145 80 Q148 86 151 93 Q154 100 159 105 Q166 115 177 115 Q178 116 181 116 Q190 116 193.5 110 Q197 104 202 90 Q205 82 208.5 73 Q212 64 217 54 Q221 44 225 35.5 Q229 27 231 19 Q234 2 239 -3.5 Q244 -9 251 -10 Q259 -10 271.5 7.5 Q284 25 293 53 Q298 68 300.5 77 Q303 86 304.5 94 Q306 102 308.5 112 Q311 122 316 139 Q327 174 341.5 194 Q356 214 370 228 Q375 234 381.5 238 Q388 242 393 244 Q395 245 399 245 Q402 245 405 243.5 Q408 242 408 238 Z " />
<glyph glyph-name="x" unicode="x" horiz-adv-x="380" d="M366 382 Q366 377 362 370 Q360 368 356 361 Q352 354 347 343 Q341 332 334.5 319.5 Q328 307 321 293 Q313 279 306.5 265 Q300 251 294 239 Q282 213 275 203 Q270 195 261 178.5 Q252 162 243 144 Q233 126 224 111 Q215 96 210 86 Q193 55 193 45 Q193 40 194 38 Q195 34 199.5 24.5 Q204 15 209.5 2.5 Q215 -10 221.5 -23.5 Q228 -37 234 -50 L247 -75 L250 -63 L254 -40 Q255 -33 260 -30 Q261 -28 264 -28 Q268 -28 270 -37 Q270 -39 270.5 -41.5 Q271 -44 271 -46 Q271 -49 270.5 -52.5 Q270 -56 270 -60 L270 -65 Q270 -72 271 -80.5 Q272 -89 272 -97 Q272 -114 264 -123 Q258 -127 255 -127 Q249 -127 241.5 -121 Q234 -115 227 -105.5 Q220 -96 213 -84.5 Q206 -73 200 -63 L174 -19 L170 -10 Q169 -8 168 -6.5 Q167 -5 166 -3 Q165 -2 163.5 -0.5 Q162 1 160 1 Q156 -1 150.5 -8.5 Q145 -16 142 -20 L119 -50 Q116 -53 111 -59.5 Q106 -66 101 -72 Q96 -78 90 -82.5 Q84 -87 78 -87 Q73 -87 73 -83 Q73 -80 74 -78 Q77 -71 93 -46 Q99 -37 107 -25.5 Q115 -14 122.5 -2 Q130 10 135.5 22.5 Q141 35 142 47 L124 99 Q116 119 109 141 Q102 163 97 180 Q92 198 87.5 213.5 Q83 229 78 242 Q70 269 63 279 Q62 280 62 280.5 Q62 281 61 282 L60 283 Q59 283 59 280 L57 262 Q57 257 56.5 249.5 Q56 242 56 232 Q56 212 56.5 184.5 Q57 157 59 130 L70 -5 L70 -14 Q70 -21 69 -23 Q67 -26 66 -26 Q63 -26 61 -22 Q58 -18 57.5 -6.5 Q57 5 56 13 Q52 42 48 77 Q44 112 40 133 Q38 143 36 159.5 Q34 176 31.5 192.5 Q29 209 27.5 223 Q26 237 26 243 Q25 252 25 261 Q25 270 25 279 Q25 308 29 331 Q33 354 42 359 Q52 363 56 363 Q64 363 70 355.5 Q76 348 84 330 Q89 317 96.5 296 Q104 275 112.5 252 Q121 229 129.5 206 Q138 183 144 166 Q150 149 154 134 Q158 119 163 109 Q166 99 170 99 Q171 99 176 105 Q182 114 191 130.5 Q200 147 210.5 166.5 Q221 186 232 206.5 Q243 227 252 244 Q262 261 272 282 Q282 303 292 323 L310 360 Q314 368 317.5 373.5 Q321 379 323 383 Q329 393 334 399 Q339 405 344 405 Q347 405 354 400 Q359 395 362.5 391 Q366 387 366 382 Z " />
<glyph glyph-name="y" unicode="y" horiz-adv-x="301" d="M264 -64 Q264 -95 262 -133.5 Q260 -172 253 -214 Q248 -244 239.5 -279 Q231 -314 222 -346 Q213 -378 206 -403.5 Q199 -429 197 -440 Q196 -447 195.5 -452 Q195 -457 195 -461 Q195 -470 197.5 -474 Q200 -478 203 -480 Q214 -487 214 -496 Q214 -501 208 -504 Q202 -507 195 -507 Q180 -507 170 -498 Q158 -486 158 -457 Q158 -438 164 -409 Q168 -390 174.5 -365.5 Q181 -341 188 -315 Q195 -289 201.5 -263 Q208 -237 211 -213 Q216 -172 219.5 -131.5 Q223 -91 223 -56 Q223 -50 223 -44.5 Q223 -39 222 -34 L222 -18 Q222 -6 222.5 3 Q223 12 224 19 Q224 24 224.5 27 Q225 30 225 33 Q225 36 223 38 Q222 39 222 40 Q220 40 219 37 L213 28 Q210 25 199.5 14 Q189 3 174.5 -10 Q160 -23 143 -34 Q126 -45 109 -48 Q95 -51 86 -51 Q65 -51 56 -41 Q47 -31 43 -17 Q41 -10 38.5 3.5 Q36 17 33.5 33.5 Q31 50 29.5 69 Q28 88 28 106 L28 122 Q29 141 31 159 Q33 177 35 192 Q37 207 39 217 Q41 227 42 230 Q45 240 50.5 243.5 Q56 247 61 247 Q65 247 69 245 Q77 243 81 236.5 Q85 230 89 219 Q92 211 92 206 Q92 193 84 190 Q79 188 76.5 184.5 Q74 181 72 168 Q71 160 71 147.5 Q71 135 71 121 Q71 109 71 96 Q71 83 72 71 Q74 57 75 43 Q76 29 78 18 Q81 -6 92 -6 Q99 -6 109 -2 Q119 2 128.5 7 Q138 12 146.5 18 Q155 24 158 28 Q162 33 169 43.5 Q176 54 185 66 Q193 78 201 89 Q209 100 214 106 Q228 120 235 120 Q241 120 247 111 Q252 106 254 93.5 Q256 81 258 66 Q260 50 260.5 34 Q261 18 262 5 Q263 -6 263.5 -23.5 Q264 -41 264 -64 Z " />
<glyph glyph-name="z" unicode="z" horiz-adv-x="362" d="M70 179 Q70 182 63.5 188.5 Q57 195 52 199 Q43 208 38 208 Q36 208 34 206 Q33 204 33 202 Q33 198 37 194 Q41 190 47 186.5 Q53 183 59.5 181 Q66 179 70 179 Z M218 118 Q218 122 205 122 Q198 122 186 123 Q174 124 164 124 Q159 124 153.5 125 Q148 126 141 126 Q139 126 139 124 Q139 122 144.5 115.5 Q150 109 154 101 Q159 92 161 86 Q163 80 165 71 Q166 63 169 63 Q171 63 177 69 Q179 71 184 77 Q189 83 195 90 Q201 97 206.5 103.5 Q212 110 215 113 Q218 116 218 118 Z M317 -36 Q317 -38 314 -41 Q309 -46 299 -50 Q289 -54 275 -55 Q271 -56 258 -56 L216 -56 Q206 -56 197.5 -56 Q189 -56 184 -57 Q172 -59 153.5 -61 Q135 -63 122 -63 Q115 -63 112 -62 Q104 -61 101 -56.5 Q98 -52 98 -47 Q98 -42 99 -40 Q102 -33 107.5 -29.5 Q113 -26 126 -26 L140 -26 Q147 -26 156.5 -25.5 Q166 -25 177 -23 Q182 -23 187 -22.5 Q192 -22 197 -22 Q211 -22 223 -23 Q235 -24 246 -25 Q253 -25 262 -25.5 Q271 -26 280 -27 Q289 -28 296.5 -28.5 Q304 -29 307 -29 Q317 -31 317 -36 Z M361 162 Q361 158 357 154 Q349 149 337.5 143 Q326 137 315 135 Q302 133 290.5 131 Q279 129 272 124 Q266 118 253.5 103 Q241 88 229 75 Q223 69 214 61 Q205 53 195 44.5 Q185 36 176.5 28 Q168 20 163 15 Q159 11 154 5 Q149 -1 143 -7 Q137 -13 130.5 -17 Q124 -21 116 -21 Q108 -21 100.5 -16 Q93 -11 93 -2 Q93 2 96 8 Q100 15 103.5 18 Q107 21 111.5 22.5 Q116 24 121.5 26 Q127 28 134 34 Q139 39 141 46 Q143 53 143 61 Q143 67 142 72.5 Q141 78 139 81 Q129 99 122 112 Q115 125 107 130 Q102 132 88.5 136 Q75 140 60 145 Q52 147 43 152 Q34 157 25.5 163.5 Q17 170 10 177.5 Q3 185 1 191 Q-2 198 -2 205 Q-2 223 13 229 Q20 232 28 232 Q35 232 41 230 Q47 228 51 226 Q57 223 66.5 212.5 Q76 202 84 191 Q96 177 101.5 171 Q107 165 121 163 Q128 161 140.5 160 Q153 159 166.5 158.5 Q180 158 192.5 157.5 Q205 157 211 157 Q223 157 239 158 Q255 159 259 166 Q261 171 268 184 Q275 197 275 210 L275 217 Q273 224 269 231.5 Q265 239 256.5 246.5 Q248 254 233 261 Q218 268 194 274 Q151 284 122 284 Q105 284 94.5 281.5 Q84 279 76 276 Q68 272 59 270.5 Q50 269 41 269 Q30 269 22 270 Q14 271 9 273 Q2 274 -3.5 278 Q-9 282 -9 290 Q-9 292 -7 298 Q-2 309 3 309 Q8 309 16 310 Q43 314 70.5 318.5 Q98 323 128 323 Q147 323 166.5 320 Q186 317 204 312.5 Q222 308 237.5 303 Q253 298 263 292 Q283 281 298.5 264.5 Q314 248 314 222 L314 214 Q312 200 310.5 192 Q309 184 307 179.5 Q305 175 304 173 Q303 171 303 168 Q303 165 312 165 Q321 165 333 167 Q345 169 350 169 Q361 169 361 162 Z " />
<glyph glyph-name="braceleft" unicode="&#x7b;" horiz-adv-x="475" d="M446 -218 Q446 -227 438.5 -236 Q431 -245 408 -250 Q398 -252 384 -254 Q370 -256 353 -256 Q324 -256 291.5 -248 Q259 -240 230 -217 Q211 -201 193.5 -179.5 Q176 -158 162.5 -133.5 Q149 -109 141 -84 Q133 -59 133 -37 Q133 -23 136 -11 Q143 12 155 38.5 Q167 65 181 91 Q195 118 207.5 136.5 Q220 155 230 172 L266 235 Q271 243 277 253.5 Q283 264 283 274 Q282 283 265 283 Q259 283 251 284.5 Q243 286 233 286 L227 286 Q215 285 199.5 284.5 Q184 284 168 283.5 Q152 283 137 282 Q122 281 111 280 Q107 279 100 279 Q83 279 73.5 286 Q64 293 64 304 Q64 315 83 324 Q93 328 107 331.5 Q121 335 138 340 Q158 345 175 350.5 Q192 356 209 362 Q226 368 245.5 374.5 Q265 381 289 390 L329 405 Q337 408 343 410.5 Q349 413 354 416 Q369 423 369 435 Q369 437 368.5 439 Q368 441 368 443 Q363 459 344 470 Q337 475 323 480 L299 490 Q288 494 276 503.5 Q264 513 254 526.5 Q244 540 237 557.5 Q230 575 230 596 Q230 613 234 626 Q238 642 249 661.5 Q260 681 276 698.5 Q292 716 310.5 728 Q329 740 348 741 Q357 740 369 738.5 Q381 737 393 734 Q405 732 414.5 727.5 Q424 723 427 718 Q430 712 430 705 Q430 694 424.5 683 Q419 672 412 666 Q405 659 399 659 Q398 660 398 662 Q398 664 401 670 Q406 682 406 686 Q406 694 396 695 Q393 696 384.5 697 Q376 698 365 698 Q354 698 343 696 Q332 694 323 687 Q315 681 305.5 670.5 Q296 660 287.5 646.5 Q279 633 273 619 Q267 605 267 592 Q267 585 268 582 Q271 569 275 556 Q279 543 293 537 Q307 531 322.5 526.5 Q338 522 353 516 Q381 505 400 478.5 Q419 452 419 430 Q419 425 418 423 Q416 412 412 404.5 Q408 397 401.5 391 Q395 385 384 379.5 Q373 374 356 367 L305 346 Q297 343 294 340 Q292 339 292 337 Q292 334 295 334 L306 331 Q314 329 318 326 Q323 323 326 318 Q329 313 329 304 Q329 299 328 296 Q323 270 306 233.5 Q289 197 261 147 Q247 123 233 97.5 Q219 72 208 49 Q197 26 190 6.5 Q183 -13 183 -26 Q183 -39 189.5 -59 Q196 -79 206.5 -100 Q217 -121 229.5 -140.5 Q242 -160 253 -170 Q272 -188 302.5 -201.5 Q333 -215 362 -215 Q367 -215 371.5 -214.5 Q376 -214 381 -213 Q396 -210 407.5 -207.5 Q419 -205 427 -204 L432 -204 Q444 -204 445 -211 Q446 -213 446 -218 Z " />
<glyph glyph-name="bar" unicode="&#x7c;" horiz-adv-x="196" d="M132 -193 Q132 -218 117 -226 Q111 -228 108 -228 Q97 -228 86.5 -215.5 Q76 -203 76 -171 Q76 -166 77 -163 Q78 -147 78.5 -118.5 Q79 -90 80 -54 Q81 -18 81.5 24 Q82 66 82 109 Q82 144 82 178 Q82 212 80 243 Q78 296 77 332.5 Q76 369 75 401.5 Q74 434 72.5 468 Q71 502 68 550 Q66 595 61 630 Q56 665 54 683 Q54 687 53.5 690 Q53 693 53 695 Q53 719 73 722 L77 722 Q96 722 96 697 L96 689 Q96 681 97 668 Q98 655 100 639 Q102 621 103.5 600 Q105 579 106 558 Q107 537 109 503.5 Q111 470 113 431.5 Q115 393 116.5 354 Q118 315 118 283 Q118 222 122 152.5 Q126 83 126 17 Q126 0 125.5 -17 Q125 -34 124 -50 Q123 -62 123 -72.5 Q123 -83 123 -93 Q123 -115 124.5 -132.5 Q126 -150 128 -164 Q130 -172 131 -179 Q132 -186 132 -193 Z " />
<glyph glyph-name="braceright" unicode="&#x7d;" horiz-adv-x="381" d="M337 -1 Q337 -30 331 -57 Q325 -84 315 -104 Q306 -124 293 -140 Q280 -156 265 -171 Q250 -185 235 -197.5 Q220 -210 207 -221 Q185 -239 163 -252.5 Q141 -266 127 -266 Q119 -266 115 -262 Q109 -257 107 -252 Q105 -247 104 -242 L104 -213 Q103 -208 103 -198 L103 -187 Q103 -179 109 -179 Q122 -179 125 -200 Q126 -207 129 -212.5 Q132 -218 139 -218 Q146 -218 159 -208 Q163 -204 169 -199 Q175 -194 183 -188 Q212 -164 237.5 -134.5 Q263 -105 275 -69 Q282 -46 287 -27.5 Q292 -9 292 9 Q292 34 279 59.5 Q266 85 231 118 Q185 163 171 195.5 Q157 228 157 249 Q157 257 159 267 Q160 272 161 275.5 Q162 279 162 283 Q163 286 163 292 Q163 304 150 312 L130 319 Q122 321 111 324 Q100 327 88.5 331 Q77 335 67.5 339.5 Q58 344 52 350 Q44 357 38 365 Q32 373 32 384 Q32 395 39 409 Q46 423 64 442 Q78 458 99.5 488.5 Q121 519 141 552.5 Q161 586 175.5 617.5 Q190 649 190 666 Q190 670 188 674 Q181 691 162 691 Q159 691 156 690.5 Q153 690 149 689 Q143 688 136.5 686 Q130 684 123 682 Q116 680 109.5 678.5 Q103 677 97 677 Q86 675 75.5 674 Q65 673 55 673 L50 673 Q27 675 23 686 Q20 692 20 697 Q20 705 26.5 710 Q33 715 42 715 Q53 715 68 716.5 Q83 718 94 720 Q138 731 172 731 Q199 731 212 724 Q235 711 235 675 Q235 665 233.5 653 Q232 641 227 627 Q221 607 211 586 Q201 565 188 543 Q175 522 161.5 501.5 Q148 481 136 462 Q122 440 113.5 424.5 Q105 409 105 398 Q105 382 126 375 Q146 367 174 360.5 Q202 354 228 354 Q233 354 239 354 Q245 354 250 356 Q261 358 272 360.5 Q283 363 296 363 Q311 363 319 354 Q326 348 326 339 Q326 331 320.5 323 Q315 315 309 312 Q304 309 293.5 307 Q283 305 270 303 Q264 301 257.5 300.5 Q251 300 246 298 L228 295 Q218 291 208 282 Q198 273 198 256 Q198 248 201 241 Q206 230 215 216.5 Q224 203 237 187 Q251 170 267.5 150.5 Q284 131 303 107 Q322 84 329.5 56 Q337 28 337 -1 Z " />
<glyph glyph-name="asciitilde" unicode="&#x7e;" horiz-adv-x="402" d="M367 534 Q367 526 363 523 Q363 522 362 521 L358 517 Q350 508 340 496.5 Q330 485 321 479 Q315 475 307 471.5 Q299 468 291 464 Q283 460 274.5 456.5 Q266 453 259 449 Q249 444 232.5 439 Q216 434 199 434 Q180 434 171 442 Q155 453 148.5 469 Q142 485 141 511 Q140 524 139.5 530 Q139 536 138 538 Q137 538 135 536 Q131 533 122.5 524.5 Q114 516 103.5 504 Q93 492 83.5 478 Q74 464 68 450 Q57 422 54 409 Q51 396 49 390 Q47 385 40.5 378 Q34 371 26 371 Q21 371 19 376 Q17 381 16 385 L15 389 Q15 390 14.5 392 Q14 394 14 396 Q14 409 22 438.5 Q30 468 57 506 Q82 541 105 564 Q128 587 141 590 Q143 591 147 591 Q158 591 165.5 580.5 Q173 570 175 555 Q176 550 177 539.5 Q178 529 180 517.5 Q182 506 184.5 496 Q187 486 190 484 Q193 481 197.5 478.5 Q202 476 210 476 Q218 476 231.5 480 Q245 484 265 495 Q274 500 283 503 Q292 506 303 511 Q313 516 323.5 521.5 Q334 527 345 535 Q355 542 361 542 Q367 542 367 534 Z " />
<glyph glyph-name="Adieresis" unicode="&#xc4;" horiz-adv-x="486" d="M321 338 Q321 349 318 370 Q312 405 312 431.5 Q312 458 309 481 Q308 486 307.5 503.5 Q307 521 305.5 540.5 Q304 560 301 576 Q298 592 292 594 Q287 594 277.5 577.5 Q268 561 252 539 Q244 527 234.5 509.5 Q225 492 216 472 Q207 452 199.5 432 Q192 412 186 396 Q180 380 171 359 Q162 338 153 319 Q144 300 137.5 285.5 Q131 271 131 268 L131 263 Q131 260 132 260 Q134 260 137.5 263.5 Q141 267 146 270 Q150 273 160.5 278.5 Q171 284 185 290 Q199 296 215 301.5 Q231 307 246 310 Q277 316 288.5 318 Q300 320 310 322 Q321 325 321 338 Z M496 274 Q496 267 491 261 Q486 255 475 254 L471 254 Q463 254 457.5 256.5 Q452 259 446.5 262 Q441 265 435.5 267.5 Q430 270 422 271 Q404 273 396 274 Q388 275 384 275 Q380 275 376 272 Q371 269 371 249 Q371 238 372 223.5 Q373 209 374 195 Q374 178 374.5 148 Q375 118 375 89 Q375 70 375 54.5 Q375 39 374 31 Q371 11 369 -14 Q367 -39 363 -52 Q358 -66 352 -66 Q344 -66 344 -40 Q344 -27 343.5 -4.5 Q343 18 342 45.5 Q341 73 339.5 102.5 Q338 132 337 160 Q336 188 335 207.5 Q334 227 332.5 239.5 Q331 252 329.5 259 Q328 266 327 270 Q324 276 308 276 Q299 276 288.5 274.5 Q278 273 271 271 Q265 270 253.5 268 Q242 266 228.5 263 Q215 260 202.5 256 Q190 252 182 248 Q162 236 150.5 233 Q139 230 132.5 229.5 Q126 229 122.5 227 Q119 225 115 215 Q111 205 106.5 196.5 Q102 188 97.5 178.5 Q93 169 88 157 Q83 145 79 129 Q75 113 68 90 Q61 67 54 44.5 Q47 22 41.5 4 Q36 -14 36 -18 Q36 -20 36.5 -23 Q37 -26 37 -29 Q37 -35 35 -43 Q33 -51 26 -61 Q18 -73 10 -73 Q-2 -73 -7 -47 Q-8 -43 -8 -33 Q-8 -21 -6 -6.5 Q-4 8 -1 22 Q2 36 5.5 48.5 Q9 61 11 69 Q23 115 33 163.5 Q43 212 48 244 Q51 260 56 283 Q61 306 66 330 Q71 354 76.5 376.5 Q82 399 87 414 Q91 429 98.5 451 Q106 473 113.5 495 Q121 517 128 535.5 Q135 554 140 561 Q150 576 165.5 592 Q181 608 196 608 Q210 606 210 594 Q210 585 202 574 Q193 562 178.5 548.5 Q164 535 156 506 Q152 491 147 473.5 Q142 456 137.5 438.5 Q133 421 128.5 406.5 Q124 392 121 384 Q115 369 111 350 Q107 331 107 325 L107 323 Q107 322 108 322 Q110 322 116 332.5 Q122 343 128 358 Q131 367 136.5 379 Q142 391 147.5 404 Q153 417 158 429.5 Q163 442 166 451 Q168 460 176.5 477.5 Q185 495 196 515 Q207 535 218 553.5 Q229 572 237 583 Q253 606 262 616.5 Q271 627 280 637 Q289 647 299.5 651.5 Q310 656 319 656 Q327 656 332 641.5 Q337 627 337 607 L337 593 Q337 576 340.5 563.5 Q344 551 344 533 Q344 523 345.5 508 Q347 493 349 476 Q351 459 353 441 Q355 423 356 408 Q359 377 362.5 354.5 Q366 332 369 328 Q373 324 385 322 Q397 320 412 315 Q433 308 449.5 302 Q466 296 486 288 Q496 285 496 274 Z M289 758 Q289 745 281 741 Q279 739 275 739 Q267 739 255 744.5 Q243 750 238 760 Q235 766 235 777 Q235 791 238.5 804.5 Q242 818 246 823 Q250 829 260 829 Q272 829 276 818 Q281 807 283.5 799 Q286 791 288 774 Q289 769 289 765 Q289 761 289 758 Z M396 807 Q396 791 393.5 786.5 Q391 782 390 777 Q388 764 385 756 Q382 748 371 737 Q364 730 359 730 Q349 730 349 746 Q349 751 346.5 761.5 Q344 772 344 785 Q344 795 346.5 804 Q349 813 356 819 Q367 829 377 829 Q386 829 391 822.5 Q396 816 396 807 Z " />
<glyph glyph-name="Aring" unicode="&#xc5;" horiz-adv-x="486" d="M321 338 Q321 349 318 370 Q312 405 312 431.5 Q312 458 309 481 Q308 486 307.5 503.5 Q307 521 305.5 540.5 Q304 560 301 576 Q298 592 292 594 Q287 594 277.5 577.5 Q268 561 252 539 Q244 527 234.5 509.5 Q225 492 216 472 Q207 452 199.5 432 Q192 412 186 396 Q180 380 171 359 Q162 338 153 319 Q144 300 137.5 285.5 Q131 271 131 268 L131 263 Q131 260 132 260 Q134 260 137.5 263.5 Q141 267 146 270 Q150 273 160.5 278.5 Q171 284 185 290 Q199 296 215 301.5 Q231 307 246 310 Q277 316 288.5 318 Q300 320 310 322 Q321 325 321 338 Z M496 274 Q496 267 491 261 Q486 255 475 254 L471 254 Q463 254 457.5 256.5 Q452 259 446.5 262 Q441 265 435.5 267.5 Q430 270 422 271 Q404 273 396 274 Q388 275 384 275 Q380 275 376 272 Q371 269 371 249 Q371 238 372 223.5 Q373 209 374 195 Q374 178 374.5 148 Q375 118 375 89 Q375 70 375 54.5 Q375 39 374 31 Q371 11 369 -14 Q367 -39 363 -52 Q358 -66 352 -66 Q344 -66 344 -40 Q344 -27 343.5 -4.5 Q343 18 342 45.5 Q341 73 339.5 102.5 Q338 132 337 160 Q336 188 335 207.5 Q334 227 332.5 239.5 Q331 252 329.5 259 Q328 266 327 270 Q324 276 308 276 Q299 276 288.5 274.5 Q278 273 271 271 Q265 270 253.5 268 Q242 266 228.5 263 Q215 260 202.5 256 Q190 252 182 248 Q162 236 150.5 233 Q139 230 132.5 229.5 Q126 229 122.5 227 Q119 225 115 215 Q111 205 106.5 196.5 Q102 188 97.5 178.5 Q93 169 88 157 Q83 145 79 129 Q75 113 68 90 Q61 67 54 44.5 Q47 22 41.5 4 Q36 -14 36 -18 Q36 -20 36.5 -23 Q37 -26 37 -29 Q37 -35 35 -43 Q33 -51 26 -61 Q18 -73 10 -73 Q-2 -73 -7 -47 Q-8 -43 -8 -33 Q-8 -21 -6 -6.5 Q-4 8 -1 22 Q2 36 5.5 48.5 Q9 61 11 69 Q23 115 33 163.5 Q43 212 48 244 Q51 260 56 283 Q61 306 66 330 Q71 354 76.5 376.5 Q82 399 87 414 Q91 429 98.5 451 Q106 473 113.5 495 Q121 517 128 535.5 Q135 554 140 561 Q150 576 165.5 592 Q181 608 196 608 Q210 606 210 594 Q210 585 202 574 Q193 562 178.5 548.5 Q164 535 156 506 Q152 491 147 473.5 Q142 456 137.5 438.5 Q133 421 128.5 406.5 Q124 392 121 384 Q115 369 111 350 Q107 331 107 325 L107 323 Q107 322 108 322 Q110 322 116 332.5 Q122 343 128 358 Q131 367 136.5 379 Q142 391 147.5 404 Q153 417 158 429.5 Q163 442 166 451 Q168 460 176.5 477.5 Q185 495 196 515 Q207 535 218 553.5 Q229 572 237 583 Q253 606 262 616.5 Q271 627 280 637 Q289 647 299.5 651.5 Q310 656 319 656 Q327 656 332 641.5 Q337 627 337 607 L337 593 Q337 576 340.5 563.5 Q344 551 344 533 Q344 523 345.5 508 Q347 493 349 476 Q351 459 353 441 Q355 423 356 408 Q359 377 362.5 354.5 Q366 332 369 328 Q373 324 385 322 Q397 320 412 315 Q433 308 449.5 302 Q466 296 486 288 Q496 285 496 274 Z M350 853 Q350 855 349.5 857.5 Q349 860 344 860 Q336 858 332.5 857.5 Q329 857 317 849 Q313 846 306 832 Q299 818 295 801 Q293 793 293 783 Q293 778 294 769 Q295 760 296.5 750.5 Q298 741 300.5 734 Q303 727 306 727 Q313 727 319 738 Q325 749 330 760 Q333 766 335.5 777 Q338 788 340.5 799.5 Q343 811 344.5 821 Q346 831 347 835 Q348 839 349 844 Q350 849 350 853 Z M409 832 Q409 828 407 828 Q407 826 404 826 Q396 826 391 832.5 Q386 839 378 839 Q377 834 372 808.5 Q367 783 358 758 Q354 747 347.5 735 Q341 723 332.5 712 Q324 701 315 694 Q306 687 297 687 Q292 687 285 692 Q275 700 270.5 720 Q266 740 266 764 Q266 787 269.5 809 Q273 831 280 848 Q288 869 298.5 889.5 Q309 910 329 917 Q338 920 345 920 Q359 920 369 913.5 Q379 907 383 901 Q385 898 389.5 888.5 Q394 879 398.5 868.5 Q403 858 406 848 Q409 838 409 832 Z " />
<glyph glyph-name="Ccedilla" unicode="&#xc7;" horiz-adv-x="440" d="M484 -5 Q484 -8 481 -14 Q477 -19 467.5 -25 Q458 -31 440 -36 Q417 -42 395.5 -47 Q374 -52 352 -55 Q330 -58 305.5 -60.5 Q281 -63 252 -64 Q250 -64 250 -67 Q258 -86 258 -125 Q258 -131 258 -137 Q258 -143 257 -150 Q255 -168 249.5 -185 Q244 -202 238 -216.5 Q232 -231 226.5 -242 Q221 -253 218 -258 Q213 -269 201 -279.5 Q189 -290 173 -290 Q166 -289 162.5 -283.5 Q159 -278 159 -270 Q159 -256 167 -248 Q175 -240 181 -240 Q187 -240 191 -239 Q195 -238 201 -222 Q207 -206 213 -180 Q218 -159 220.5 -134.5 Q223 -110 223 -95 L223 -84 Q221 -74 221 -72 Q221 -71 221.5 -69.5 Q222 -68 222 -67 Q222 -65 219 -65 Q190 -65 161 -61 Q132 -57 107 -48 Q82 -39 62.5 -24.5 Q43 -10 33 11 Q22 37 15.5 71.5 Q9 106 9 146 Q9 181 14.5 219 Q20 257 32 294 Q49 345 67.5 388.5 Q86 432 103 465 Q120 498 133.5 519.5 Q147 541 153 547 Q166 560 191 573.5 Q216 587 245 587 L251 587 Q281 585 292 566.5 Q303 548 310 522 Q314 509 316.5 497 Q319 485 319 472 Q319 459 315.5 446 Q312 433 303 419 Q289 393 277 384 Q265 375 260 375 Q258 375 257 376 Q254 377 254 380 Q254 383 257 387.5 Q260 392 264 399 Q269 407 272.5 417 Q276 427 276 443 Q276 458 272 474 Q270 482 269 489 Q268 496 267 503 L261 524 Q255 538 243 538 Q238 538 235 537 Q226 534 214.5 528.5 Q203 523 190 511.5 Q177 500 163 480.5 Q149 461 134 430 Q119 399 108 373 Q97 347 89 322 Q81 297 75.5 272.5 Q70 248 67 221 Q64 199 62 174.5 Q60 150 60 126 Q60 90 67.5 58.5 Q75 27 96 12 Q120 -6 161.5 -11.5 Q203 -17 243 -17 Q261 -17 277 -16.5 Q293 -16 306 -16 Q332 -15 352 -15 Q372 -15 387 -14 Q415 -14 427 -11 Q438 -8 454 -4 Q470 0 478 0 L482 0 Q484 -2 484 -5 Z " />
<glyph glyph-name="Eacute" unicode="&#xc9;" horiz-adv-x="401" d="M516 621 Q516 615 501.5 604 Q487 593 477 588 L452 575 Q395 546 340.5 524 Q286 502 230 471 Q203 456 182.5 446.5 Q162 437 147 429 Q132 421 123 413 Q114 405 109 394 Q104 382 100 365.5 Q96 349 96 335 Q96 320 102 314 Q112 306 138.5 298 Q165 290 201 283 Q219 279 234 277 Q249 275 260 273 Q285 270 292 266 Q301 261 301 251 Q301 240 292 234 Q281 229 257 217 Q233 205 213 191 Q205 186 195 179 Q185 172 176 164 Q167 156 161 147.5 Q155 139 155 132 Q155 125 159 121 Q172 108 185.5 101.5 Q199 95 222 88 Q233 84 243.5 81.5 Q254 79 262 77 Q264 76 268 75 Q272 74 272 70 Q267 61 255 61 Q253 61 249.5 61 Q246 61 242 62 Q234 63 219.5 65.5 Q205 68 190 72 Q175 76 162 81.5 Q149 87 144 94 Q138 103 132 111.5 Q126 120 124 131 Q123 134 123 141 Q123 149 126.5 158 Q130 167 140 177 Q154 191 167 199.5 Q180 208 191 215 L209 225 Q217 231 217 235 Q217 242 200 247 Q192 248 183 249.5 Q174 251 165 253 Q156 255 145 257.5 Q134 260 124 262 Q114 264 106 265.5 Q98 267 95 267 Q90 267 87.5 259 Q85 251 85 238 L85 227 L89 182 Q91 168 95.5 151.5 Q100 135 108 118 Q123 83 148.5 58.5 Q174 34 200 31 L214 31 Q234 31 246.5 35.5 Q259 40 266 45 Q269 47 272 49.5 Q275 52 278 54 Q282 58 290 59 Q299 59 299 47 Q299 41 298 38 Q296 30 286.5 20.5 Q277 11 262 5 Q257 3 252.5 1 Q248 -1 242 -3 Q220 -11 198 -11 Q178 -11 157 -2 Q141 6 125 18.5 Q109 31 94.5 50 Q80 69 69 94.5 Q58 120 52 153 Q46 187 44 211 Q42 235 42 251 L42 275 Q42 283 39 288 L31 294 Q23 302 15.5 311.5 Q8 321 8 333 Q8 342 10.5 353 Q13 364 19 376 Q25 388 35 400 Q45 412 61 422 Q77 432 101 446.5 Q125 461 150.5 475.5 Q176 490 199 502.5 Q222 515 235 521 Q289 546 331 562.5 Q373 579 417 596 Q439 605 451 609.5 Q463 614 470.5 616 Q478 618 482 619 Q486 620 491 621 Q503 624 509 624 Q516 624 516 621 Z M422 818 Q422 809 418 800 Q414 791 412 787 Q409 782 398 773.5 Q387 765 380 760 Q374 755 357 740 Q340 725 297 699 Q276 686 263.5 680.5 Q251 675 243 672.5 Q235 670 229.5 668 Q224 666 215 661 Q198 650 189 645.5 Q180 641 172 632 Q167 627 163 627 Q158 627 155.5 635 Q153 643 153 645 Q153 656 169.5 670 Q186 684 226 706 Q246 716 259.5 724 Q273 732 282.5 738 Q292 744 299.5 749 Q307 754 315 759 Q335 773 347.5 783 Q360 793 365 802 Q370 810 377.5 821 Q385 832 403 832 L408 832 Q422 831 422 818 Z " />
<glyph glyph-name="Ntilde" unicode="&#xd1;" horiz-adv-x="476" d="M467 582 Q467 574 464 574 Q461 574 457.5 580 Q454 586 452 590 Q450 596 449.5 600 Q449 604 444 606 Q441 606 437.5 589.5 Q434 573 429.5 547 Q425 521 420.5 488.5 Q416 456 411 424 Q406 391 396 346 Q386 301 374 255 Q362 209 350 168.5 Q338 128 329 105 Q326 97 321 80 Q316 63 309 45.5 Q302 28 292 14.5 Q282 1 270 0 Q259 1 251.5 5.5 Q244 10 237.5 19.5 Q231 29 224 45 Q217 61 208 85 Q199 110 194.5 142 Q190 174 187 209.5 Q184 245 182 280.5 Q180 316 176 348 Q172 379 169 413.5 Q166 448 163 478.5 Q160 509 158 531.5 Q156 554 155 562 Q155 565 154 570 Q153 575 151.5 580 Q150 585 147.5 588.5 Q145 592 140 592 Q138 589 132.5 577 Q127 565 120.5 549 Q114 533 108 515.5 Q102 498 99 485 Q97 479 94.5 470 Q92 461 90 451.5 Q88 442 86 433.5 Q84 425 84 421 Q84 417 86 417 Q92 420 94.5 433.5 Q97 447 104 454 Q107 457 110 457 Q114 457 114 446 Q114 443 114 439 Q114 435 112 430 Q110 423 109 414 Q108 405 107 390 Q106 375 104 352 Q102 329 98 295 Q90 229 83.5 182 Q77 135 77 101 L77 94 Q77 79 78.5 55 Q80 31 81.5 4.5 Q83 -22 84 -48.5 Q85 -75 85 -95 L85 -108 Q84 -127 82 -137.5 Q80 -148 77 -153 Q74 -158 70 -159 Q66 -160 62 -160 Q53 -160 47.5 -147 Q42 -134 37 -97 Q34 -72 31.5 -50.5 Q29 -29 29 2 Q29 30 32 75 Q34 93 34 106.5 Q34 120 34 132 Q34 151 33.5 167.5 Q33 184 33 207 Q33 224 33.5 245.5 Q34 267 36 296 Q39 345 42 376 Q45 407 49 429 Q53 451 58 469.5 Q63 488 69 513 Q75 538 84.5 561 Q94 584 103.5 602.5 Q113 621 121.5 633.5 Q130 646 136 651 Q143 657 151 657 Q158 657 165 651 Q172 645 179 631 Q184 620 189.5 583 Q195 546 200.5 493.5 Q206 441 211 377 Q216 313 221 248 Q225 183 231 146.5 Q237 110 243 90.5 Q249 71 254 63 Q259 55 262 48 Q263 44 266 44 Q269 44 273 50.5 Q277 57 281.5 68 Q286 79 290.5 93 Q295 107 300 122 Q305 139 306.5 145.5 Q308 152 310 162 Q312 172 317 192.5 Q322 213 334 258 Q347 306 356.5 348 Q366 390 373.5 428 Q381 466 387.5 503.5 Q394 541 401 580 Q408 619 411.5 639 Q415 659 416.5 667 Q418 675 419.5 676.5 Q421 678 423 680 Q429 684 434 684 Q445 684 450.5 675.5 Q456 667 456 656 L456 651 Q456 632 460.5 617.5 Q465 603 466 585 Q467 584 467 582 Z M469 862 Q469 854 464 851 Q464 850 463 849 L459 845 Q451 836 441.5 824.5 Q432 813 422 807 Q416 803 408 799.5 Q400 796 392 792 L360 777 Q351 772 334 767 Q317 762 300 762 Q281 762 272 770 Q256 781 249.5 797 Q243 813 242 839 Q240 865 239 866 L237 866 Q235 866 233 864 Q225 858 211.5 842 Q198 826 184 797 Q176 780 174 768 Q172 756 170 750 Q168 745 161.5 738 Q155 731 147 731 Q143 731 141 736 Q139 741 137 745 L136 749 L136 756 Q136 769 142.5 793.5 Q149 818 173 853 Q195 885 212 900 Q229 915 242 918 Q244 919 248 919 Q259 919 266.5 908.5 Q274 898 276 883 Q277 878 278.5 867.5 Q280 857 282 845.5 Q284 834 286.5 824 Q289 814 292 812 Q294 809 298.5 806.5 Q303 804 311 804 Q319 804 332.5 808 Q346 812 366 823 Q375 828 384 831 Q393 834 404 839 Q414 844 424.5 849.5 Q435 855 446 863 Q456 870 462 870 Q469 870 469 862 Z " />
<glyph glyph-name="Odieresis" unicode="&#xd6;" horiz-adv-x="482" d="M408 204 Q408 232 396.5 261 Q385 290 358 325 Q347 339 328.5 359.5 Q310 380 288 398.5 Q266 417 242.5 431 Q219 445 198 446 Q193 445 186 445 Q176 445 171 448.5 Q166 452 159 460 Q157 462 156.5 465 Q156 468 154 470 Q153 470 149.5 460.5 Q146 451 141 443 Q133 431 123 405.5 Q113 380 103.5 346 Q94 312 85 272 Q76 232 70 191 Q68 182 68 173 Q68 164 68 155 Q68 120 77.5 90.5 Q87 61 102.5 38.5 Q118 16 138 3.5 Q158 -9 180 -9 L183 -9 Q208 -9 240.5 2.5 Q273 14 303 33 Q333 52 357.5 76 Q382 100 391 125 Q399 146 403.5 165 Q408 184 408 204 Z M455 206 Q455 172 442 128 Q429 84 399 48 Q383 29 356 11.5 Q329 -6 297.5 -19.5 Q266 -33 232.5 -41 Q199 -49 170 -49 Q136 -49 114 -37 Q78 -17 60.5 6 Q43 29 35 55 Q27 78 25 101.5 Q23 125 23 149 L23 155 Q23 185 29 225 Q35 265 45.5 307 Q56 349 70 390.5 Q84 432 102 465 Q107 475 112 484.5 Q117 494 123 503 Q134 521 150.5 531.5 Q167 542 184 542 Q198 542 210 535 Q222 528 232 511 Q235 505 235 504 Q235 505 233 499 Q231 493 227 493 Q225 493 224 493.5 Q223 494 221 495 Q212 503 207.5 505.5 Q203 508 198 508 Q190 508 181 503 Q178 502 174 496.5 Q170 491 170 487 Q170 485 173 485 L176 485 Q184 487 191 487 Q208 487 238 476 Q268 465 319 431 Q352 409 374 383 Q396 357 410 331 Q424 305 433 283 Q442 261 448 247 Q455 234 455 206 Z M187 658 Q187 645 179 641 Q177 639 173 639 Q165 639 153 644.5 Q141 650 136 660 Q133 666 133 677 Q133 691 136.5 704.5 Q140 718 144 723 Q148 729 158 729 Q170 729 174 718 Q179 707 181.5 699 Q184 691 186 674 Q187 669 187 665 Q187 661 187 658 Z M294 707 Q294 691 291.5 686.5 Q289 682 288 677 Q286 664 283 656 Q280 648 269 637 Q262 630 257 630 Q247 630 247 646 Q247 651 244.5 661.5 Q242 672 242 685 Q242 695 244.5 704 Q247 713 254 719 Q265 729 275 729 Q284 729 289 722.5 Q294 716 294 707 Z " />
<glyph glyph-name="Udieresis" unicode="&#xdc;" horiz-adv-x="475" d="M460 -43 Q460 -49 456 -57.5 Q452 -66 447 -74 Q439 -85 426.5 -100 Q414 -115 398 -115 Q393 -115 391 -114 Q382 -111 374 -105 Q366 -99 359.5 -81 Q353 -63 348 -30 Q343 3 341 59 Q340 82 339.5 102.5 Q339 123 339 141 Q339 212 343.5 255 Q348 298 351 327 Q353 345 355.5 363.5 Q358 382 360 397 Q363 418 363 428 Q363 433 362 434 Q360 432 358 425 Q356 418 355 416 Q352 406 346 391 Q340 376 335 364 L295 268 Q278 227 258 183 Q238 139 216 101 Q177 33 142 5 Q107 -23 87 -23 Q81 -23 79 -22 Q62 -15 45.5 32 Q29 79 22 153 Q20 179 19 208.5 Q18 238 18 267 Q18 318 19.5 361 Q21 404 21 422 Q21 450 19 461 Q17 472 16 483 Q15 490 15 495.5 Q15 501 15 506 Q15 523 19 531.5 Q23 540 33 545 Q40 549 45 549 Q55 549 58 533 Q59 528 60 523 Q61 518 62 512 L62 503 Q62 497 61.5 490 Q61 483 60 475 Q59 467 58.5 455.5 Q58 444 58 431 Q58 404 59 373 Q60 342 60 314 Q60 273 61.5 238 Q63 203 67 172 Q69 157 72.5 135.5 Q76 114 78 94 Q80 74 82.5 58.5 Q85 43 87 37 Q90 27 96 27 Q103 27 114 35 Q126 44 149 71.5 Q172 99 202 157 Q217 186 234.5 224.5 Q252 263 269 302.5 Q286 342 300.5 380 Q315 418 325 445 Q335 473 342.5 497.5 Q350 522 356 541 Q361 560 366.5 572.5 Q372 585 378 588 Q380 589 385 589 Q393 589 398 582 Q403 575 403 568 Q403 565 402 550 Q401 535 400 512.5 Q399 490 397 462.5 Q395 435 394 408.5 Q393 382 392 359 Q391 336 391 322 Q391 301 389.5 264 Q388 227 386 187.5 Q384 148 382.5 113.5 Q381 79 380 64 Q380 59 379.5 54 Q379 49 379 44 Q379 27 380 8.5 Q381 -10 384 -26 Q387 -42 391.5 -53.5 Q396 -65 403 -67 Q406 -68 411 -68 Q422 -68 427.5 -60 Q433 -52 438 -44 Q445 -33 451 -33 Q455 -33 459 -37 Q460 -39 460 -43 Z M187 658 Q187 645 179 641 Q177 639 173 639 Q165 639 153 644.5 Q141 650 136 660 Q133 666 133 677 Q133 691 136.5 704.5 Q140 718 144 723 Q148 729 158 729 Q170 729 174 718 Q179 707 181.5 699 Q184 691 186 674 Q187 669 187 665 Q187 661 187 658 Z M294 707 Q294 691 291.5 686.5 Q289 682 288 677 Q286 664 283 656 Q280 648 269 637 Q262 630 257 630 Q247 630 247 646 Q247 651 244.5 661.5 Q242 672 242 685 Q242 695 244.5 704 Q247 713 254 719 Q265 729 275 729 Q284 729 289 722.5 Q294 716 294 707 Z " />
<glyph glyph-name="aacute" unicode="&#xe1;" horiz-adv-x="312" d="M167 -7 Q167 -4 166 -2 Q162 4 148.5 15.5 Q135 27 117 41 Q102 53 87 59 Q72 65 63 65 Q59 65 57 63 Q49 60 49 48 Q49 35 57.5 18.5 Q66 2 81 -10 Q103 -28 123 -28 Q128 -28 133 -27 Q138 -26 143 -24 Q153 -20 160 -16 Q167 -12 167 -7 Z M293 89 Q293 76 287 67 L281 58 Q279 56 277.5 53 Q276 50 272 45 L249 13 Q245 8 244 4.5 Q243 1 241 -4 L241 -16 Q241 -20 241.5 -24.5 Q242 -29 242 -34 Q242 -44 239 -49 Q236 -54 231 -58 Q223 -65 215 -65 Q210 -65 206.5 -62 Q203 -59 201 -55 Q199 -50 198.5 -46 Q198 -42 196 -39 Q194 -37 192 -35.5 Q190 -34 188 -34 Q186 -34 184 -36 Q180 -41 160 -52 Q140 -63 115 -63 Q112 -63 108.5 -63 Q105 -63 102 -62 Q73 -57 55.5 -39.5 Q38 -22 24 7 Q16 21 13 35 Q10 49 10 61 Q10 86 23 97 Q36 108 52 108 Q74 108 106 89 Q125 79 137 70 Q149 61 164 48 L180 34 Q189 27 192 27 Q197 28 197 32 L197 40 Q197 45 196 48 Q194 57 190 95 Q186 133 169 187 Q152 241 141.5 266.5 Q131 292 121 298 Q110 306 97 306 Q89 306 83 303 Q81 302 77.5 300.5 Q74 299 71 299 Q68 299 68 302 Q68 304 69 305 Q69 306 73 316 Q78 328 85.5 332.5 Q93 337 102 337 Q107 337 113 336 Q119 335 124 333 Q140 327 156 308.5 Q172 290 186 255 Q197 226 209 189.5 Q221 153 226 124 Q228 110 230.5 97 Q233 84 233 76 L235 64 Q235 62 237.5 60 Q240 58 241 58 Q246 61 256 73.5 Q266 86 271 91 Q280 101 286 101 Q290 101 292 95 Q293 93 293 89 Z M348 613 Q348 604 344 595 Q340 586 338 582 Q335 577 324 568.5 Q313 560 306 555 Q300 550 283 535 Q266 520 223 494 Q202 481 189.5 475.5 Q177 470 169 467.5 Q161 465 155.5 463 Q150 461 141 456 Q124 445 115 440.5 Q106 436 98 427 Q93 422 89 422 Q84 422 81.5 430 Q79 438 79 440 Q79 451 95.5 465 Q112 479 152 501 Q172 511 185.5 519 Q199 527 208.5 533 Q218 539 225.5 544 Q233 549 241 554 Q261 568 273.5 578 Q286 588 291 597 Q296 605 303.5 616 Q311 627 329 627 L334 627 Q348 626 348 613 Z " />
<glyph glyph-name="agrave" unicode="&#xe0;" horiz-adv-x="312" d="M167 -7 Q167 -4 166 -2 Q162 4 148.5 15.5 Q135 27 117 41 Q102 53 87 59 Q72 65 63 65 Q59 65 57 63 Q49 60 49 48 Q49 35 57.5 18.5 Q66 2 81 -10 Q103 -28 123 -28 Q128 -28 133 -27 Q138 -26 143 -24 Q153 -20 160 -16 Q167 -12 167 -7 Z M293 89 Q293 76 287 67 L281 58 Q279 56 277.5 53 Q276 50 272 45 L249 13 Q245 8 244 4.5 Q243 1 241 -4 L241 -16 Q241 -20 241.5 -24.5 Q242 -29 242 -34 Q242 -44 239 -49 Q236 -54 231 -58 Q223 -65 215 -65 Q210 -65 206.5 -62 Q203 -59 201 -55 Q199 -50 198.5 -46 Q198 -42 196 -39 Q194 -37 192 -35.5 Q190 -34 188 -34 Q186 -34 184 -36 Q180 -41 160 -52 Q140 -63 115 -63 Q112 -63 108.5 -63 Q105 -63 102 -62 Q73 -57 55.5 -39.5 Q38 -22 24 7 Q16 21 13 35 Q10 49 10 61 Q10 86 23 97 Q36 108 52 108 Q74 108 106 89 Q125 79 137 70 Q149 61 164 48 L180 34 Q189 27 192 27 Q197 28 197 32 L197 40 Q197 45 196 48 Q194 57 190 95 Q186 133 169 187 Q152 241 141.5 266.5 Q131 292 121 298 Q110 306 97 306 Q89 306 83 303 Q81 302 77.5 300.5 Q74 299 71 299 Q68 299 68 302 Q68 304 69 305 Q69 306 73 316 Q78 328 85.5 332.5 Q93 337 102 337 Q107 337 113 336 Q119 335 124 333 Q140 327 156 308.5 Q172 290 186 255 Q197 226 209 189.5 Q221 153 226 124 Q228 110 230.5 97 Q233 84 233 76 L235 64 Q235 62 237.5 60 Q240 58 241 58 Q246 61 256 73.5 Q266 86 271 91 Q280 101 286 101 Q290 101 292 95 Q293 93 293 89 Z M244 444 Q244 440 240 440 Q237 440 231 441.5 Q225 443 219 445.5 Q213 448 207.5 449.5 Q202 451 200 451 Q195 451 186.5 454 Q178 457 167.5 461.5 Q157 466 147 470.5 Q137 475 130 477 Q108 485 81.5 499 Q55 513 44 524 Q38 529 29 536 Q20 543 20 550 Q20 566 35 574 Q42 578 49 578 Q71 578 84 556 Q93 541 108 530.5 Q123 520 142 512 Q158 505 176 495 Q194 485 209 475.5 Q224 466 234 457.5 Q244 449 244 444 Z " />
<glyph glyph-name="acircumflex" unicode="&#xe2;" horiz-adv-x="312" d="M167 -7 Q167 -4 166 -2 Q162 4 148.5 15.5 Q135 27 117 41 Q102 53 87 59 Q72 65 63 65 Q59 65 57 63 Q49 60 49 48 Q49 35 57.5 18.5 Q66 2 81 -10 Q103 -28 123 -28 Q128 -28 133 -27 Q138 -26 143 -24 Q153 -20 160 -16 Q167 -12 167 -7 Z M293 89 Q293 76 287 67 L281 58 Q279 56 277.5 53 Q276 50 272 45 L249 13 Q245 8 244 4.5 Q243 1 241 -4 L241 -16 Q241 -20 241.5 -24.5 Q242 -29 242 -34 Q242 -44 239 -49 Q236 -54 231 -58 Q223 -65 215 -65 Q210 -65 206.5 -62 Q203 -59 201 -55 Q199 -50 198.5 -46 Q198 -42 196 -39 Q194 -37 192 -35.5 Q190 -34 188 -34 Q186 -34 184 -36 Q180 -41 160 -52 Q140 -63 115 -63 Q112 -63 108.5 -63 Q105 -63 102 -62 Q73 -57 55.5 -39.5 Q38 -22 24 7 Q16 21 13 35 Q10 49 10 61 Q10 86 23 97 Q36 108 52 108 Q74 108 106 89 Q125 79 137 70 Q149 61 164 48 L180 34 Q189 27 192 27 Q197 28 197 32 L197 40 Q197 45 196 48 Q194 57 190 95 Q186 133 169 187 Q152 241 141.5 266.5 Q131 292 121 298 Q110 306 97 306 Q89 306 83 303 Q81 302 77.5 300.5 Q74 299 71 299 Q68 299 68 302 Q68 304 69 305 Q69 306 73 316 Q78 328 85.5 332.5 Q93 337 102 337 Q107 337 113 336 Q119 335 124 333 Q140 327 156 308.5 Q172 290 186 255 Q197 226 209 189.5 Q221 153 226 124 Q228 110 230.5 97 Q233 84 233 76 L235 64 Q235 62 237.5 60 Q240 58 241 58 Q246 61 256 73.5 Q266 86 271 91 Q280 101 286 101 Q290 101 292 95 Q293 93 293 89 Z M281 397 Q281 391 276 386 Q271 381 265 381 Q249 381 240 403 Q230 427 222.5 445 Q215 463 209.5 477.5 Q204 492 200 504 Q196 516 193 528 Q192 531 190 540 Q188 549 185 559.5 Q182 570 178 578 Q174 586 170 586 Q168 586 161 569 Q156 557 146 534 Q136 511 130 494 Q127 486 122.5 476 Q118 466 114 456 Q110 446 107 438 Q104 430 103 426 Q101 418 92 408.5 Q83 399 75 399 Q74 399 73.5 399.5 Q73 400 72 400 Q57 403 57 413 Q57 415 59 417 Q61 418 65.5 424.5 Q70 431 74.5 439 Q79 447 82.5 455 Q86 463 87 468 Q88 472 90.5 479.5 Q93 487 96.5 496 Q100 505 103.5 514 Q107 523 109 529 Q116 551 121 564 Q126 577 129.5 585 Q133 593 136 600 Q139 607 142 618 Q145 629 148 642 Q151 655 155 666 Q159 677 163.5 685.5 Q168 694 176 696 Q180 698 182 698 Q192 698 196 689.5 Q200 681 200 675 Q200 674 199.5 673.5 Q199 673 199 672 L199 668 Q199 663 202.5 650 Q206 637 216 603 Q221 585 224 574.5 Q227 564 229 556 Q231 548 233 540.5 Q235 533 238 522 Q242 504 246 492.5 Q250 481 254.5 470.5 Q259 460 264.5 447.5 Q270 435 276 415 Q278 410 279.5 405.5 Q281 401 281 397 Z " />
<glyph glyph-name="adieresis" unicode="&#xe4;" horiz-adv-x="312" d="M167 -7 Q167 -4 166 -2 Q162 4 148.5 15.5 Q135 27 117 41 Q102 53 87 59 Q72 65 63 65 Q59 65 57 63 Q49 60 49 48 Q49 35 57.5 18.5 Q66 2 81 -10 Q103 -28 123 -28 Q128 -28 133 -27 Q138 -26 143 -24 Q153 -20 160 -16 Q167 -12 167 -7 Z M293 89 Q293 76 287 67 L281 58 Q279 56 277.5 53 Q276 50 272 45 L249 13 Q245 8 244 4.5 Q243 1 241 -4 L241 -16 Q241 -20 241.5 -24.5 Q242 -29 242 -34 Q242 -44 239 -49 Q236 -54 231 -58 Q223 -65 215 -65 Q210 -65 206.5 -62 Q203 -59 201 -55 Q199 -50 198.5 -46 Q198 -42 196 -39 Q194 -37 192 -35.5 Q190 -34 188 -34 Q186 -34 184 -36 Q180 -41 160 -52 Q140 -63 115 -63 Q112 -63 108.5 -63 Q105 -63 102 -62 Q73 -57 55.5 -39.5 Q38 -22 24 7 Q16 21 13 35 Q10 49 10 61 Q10 86 23 97 Q36 108 52 108 Q74 108 106 89 Q125 79 137 70 Q149 61 164 48 L180 34 Q189 27 192 27 Q197 28 197 32 L197 40 Q197 45 196 48 Q194 57 190 95 Q186 133 169 187 Q152 241 141.5 266.5 Q131 292 121 298 Q110 306 97 306 Q89 306 83 303 Q81 302 77.5 300.5 Q74 299 71 299 Q68 299 68 302 Q68 304 69 305 Q69 306 73 316 Q78 328 85.5 332.5 Q93 337 102 337 Q107 337 113 336 Q119 335 124 333 Q140 327 156 308.5 Q172 290 186 255 Q197 226 209 189.5 Q221 153 226 124 Q228 110 230.5 97 Q233 84 233 76 L235 64 Q235 62 237.5 60 Q240 58 241 58 Q246 61 256 73.5 Q266 86 271 91 Q280 101 286 101 Q290 101 292 95 Q293 93 293 89 Z M122 481 Q122 468 114 464 Q112 462 108 462 Q100 462 88 467.5 Q76 473 71 483 Q68 489 68 500 Q68 514 71.5 527.5 Q75 541 79 546 Q83 552 93 552 Q105 552 109 541 Q114 530 116.5 522 Q119 514 121 497 Q122 492 122 488 Q122 484 122 481 Z M229 530 Q229 514 226.5 509.5 Q224 505 223 500 Q221 487 218 479 Q215 471 204 460 Q197 453 192 453 Q182 453 182 469 Q182 474 179.5 484.5 Q177 495 177 508 Q177 518 179.5 527 Q182 536 189 542 Q200 552 210 552 Q219 552 224 545.5 Q229 539 229 530 Z " />
<glyph glyph-name="atilde" unicode="&#xe3;" horiz-adv-x="312" d="M167 -7 Q167 -4 166 -2 Q162 4 148.5 15.5 Q135 27 117 41 Q102 53 87 59 Q72 65 63 65 Q59 65 57 63 Q49 60 49 48 Q49 35 57.5 18.5 Q66 2 81 -10 Q103 -28 123 -28 Q128 -28 133 -27 Q138 -26 143 -24 Q153 -20 160 -16 Q167 -12 167 -7 Z M293 89 Q293 76 287 67 L281 58 Q279 56 277.5 53 Q276 50 272 45 L249 13 Q245 8 244 4.5 Q243 1 241 -4 L241 -16 Q241 -20 241.5 -24.5 Q242 -29 242 -34 Q242 -44 239 -49 Q236 -54 231 -58 Q223 -65 215 -65 Q210 -65 206.5 -62 Q203 -59 201 -55 Q199 -50 198.5 -46 Q198 -42 196 -39 Q194 -37 192 -35.5 Q190 -34 188 -34 Q186 -34 184 -36 Q180 -41 160 -52 Q140 -63 115 -63 Q112 -63 108.5 -63 Q105 -63 102 -62 Q73 -57 55.5 -39.5 Q38 -22 24 7 Q16 21 13 35 Q10 49 10 61 Q10 86 23 97 Q36 108 52 108 Q74 108 106 89 Q125 79 137 70 Q149 61 164 48 L180 34 Q189 27 192 27 Q197 28 197 32 L197 40 Q197 45 196 48 Q194 57 190 95 Q186 133 169 187 Q152 241 141.5 266.5 Q131 292 121 298 Q110 306 97 306 Q89 306 83 303 Q81 302 77.5 300.5 Q74 299 71 299 Q68 299 68 302 Q68 304 69 305 Q69 306 73 316 Q78 328 85.5 332.5 Q93 337 102 337 Q107 337 113 336 Q119 335 124 333 Q140 327 156 308.5 Q172 290 186 255 Q197 226 209 189.5 Q221 153 226 124 Q228 110 230.5 97 Q233 84 233 76 L235 64 Q235 62 237.5 60 Q240 58 241 58 Q246 61 256 73.5 Q266 86 271 91 Q280 101 286 101 Q290 101 292 95 Q293 93 293 89 Z M360 594 Q360 586 355 583 Q355 582 354 581 L350 577 Q342 568 332.5 556.5 Q323 545 313 539 Q307 535 299 531.5 Q291 528 283 524 L251 509 Q242 504 225 499 Q208 494 191 494 Q172 494 163 502 Q147 513 140.5 529 Q134 545 133 571 Q131 597 130 598 L128 598 Q126 598 124 596 Q116 590 102.5 574 Q89 558 75 529 Q67 512 65 500 Q63 488 61 482 Q59 477 52.5 470 Q46 463 38 463 Q34 463 32 468 Q30 473 28 477 L27 481 L27 488 Q27 501 33.5 525.5 Q40 550 64 585 Q86 617 103 632 Q120 647 133 650 Q135 651 139 651 Q150 651 157.5 640.5 Q165 630 167 615 Q168 610 169.5 599.5 Q171 589 173 577.5 Q175 566 177.5 556 Q180 546 183 544 Q185 541 189.5 538.5 Q194 536 202 536 Q210 536 223.5 540 Q237 544 257 555 Q266 560 275 563 Q284 566 295 571 Q305 576 315.5 581.5 Q326 587 337 595 Q347 602 353 602 Q360 602 360 594 Z " />
<glyph glyph-name="aring" unicode="&#xe5;" horiz-adv-x="312" d="M167 -7 Q167 -4 166 -2 Q162 4 148.5 15.5 Q135 27 117 41 Q102 53 87 59 Q72 65 63 65 Q59 65 57 63 Q49 60 49 48 Q49 35 57.5 18.5 Q66 2 81 -10 Q103 -28 123 -28 Q128 -28 133 -27 Q138 -26 143 -24 Q153 -20 160 -16 Q167 -12 167 -7 Z M293 89 Q293 76 287 67 L281 58 Q279 56 277.5 53 Q276 50 272 45 L249 13 Q245 8 244 4.5 Q243 1 241 -4 L241 -16 Q241 -20 241.5 -24.5 Q242 -29 242 -34 Q242 -44 239 -49 Q236 -54 231 -58 Q223 -65 215 -65 Q210 -65 206.5 -62 Q203 -59 201 -55 Q199 -50 198.5 -46 Q198 -42 196 -39 Q194 -37 192 -35.5 Q190 -34 188 -34 Q186 -34 184 -36 Q180 -41 160 -52 Q140 -63 115 -63 Q112 -63 108.5 -63 Q105 -63 102 -62 Q73 -57 55.5 -39.5 Q38 -22 24 7 Q16 21 13 35 Q10 49 10 61 Q10 86 23 97 Q36 108 52 108 Q74 108 106 89 Q125 79 137 70 Q149 61 164 48 L180 34 Q189 27 192 27 Q197 28 197 32 L197 40 Q197 45 196 48 Q194 57 190 95 Q186 133 169 187 Q152 241 141.5 266.5 Q131 292 121 298 Q110 306 97 306 Q89 306 83 303 Q81 302 77.5 300.5 Q74 299 71 299 Q68 299 68 302 Q68 304 69 305 Q69 306 73 316 Q78 328 85.5 332.5 Q93 337 102 337 Q107 337 113 336 Q119 335 124 333 Q140 327 156 308.5 Q172 290 186 255 Q197 226 209 189.5 Q221 153 226 124 Q228 110 230.5 97 Q233 84 233 76 L235 64 Q235 62 237.5 60 Q240 58 241 58 Q246 61 256 73.5 Q266 86 271 91 Q280 101 286 101 Q290 101 292 95 Q293 93 293 89 Z M197 608 Q197 610 196.5 612.5 Q196 615 191 615 Q183 613 179.5 612.5 Q176 612 164 604 Q160 601 153 587 Q146 573 142 556 Q140 548 140 538 Q140 533 141 524 Q142 515 143.5 505.5 Q145 496 147.5 489 Q150 482 153 482 Q160 482 166 493 Q172 504 177 515 Q180 521 182.5 532 Q185 543 187.5 554.5 Q190 566 191.5 576 Q193 586 194 590 Q195 594 196 599 Q197 604 197 608 Z M256 587 Q256 583 254 583 Q254 581 251 581 Q243 581 238 587.5 Q233 594 225 594 Q224 589 219 563.5 Q214 538 205 513 Q201 502 194.5 490 Q188 478 179.5 467 Q171 456 162 449 Q153 442 144 442 Q139 442 132 447 Q122 455 117.5 475 Q113 495 113 519 Q113 542 116.5 564 Q120 586 127 603 Q135 624 145.5 644.5 Q156 665 176 672 Q185 675 192 675 Q206 675 216 668.5 Q226 662 230 656 Q232 653 236.5 643.5 Q241 634 245.5 623.5 Q250 613 253 603 Q256 593 256 587 Z " />
</font>
</defs>
</svg>
